<?xml version="1.0" standalone="no"?>
<!DOCTYPE svg PUBLIC "-//W3C//DTD SVG 1.1//EN" "http://www.w3.org/Graphics/SVG/1.1/DTD/svg11.dtd" >
<svg>
<metadata>
Created by FontForge 20090622 at Fri May 13 02:42:34 2016
 By deploy user
(c) Copyright 2005 by Tong Duc Thinh. All Rights Reserved
</metadata>
<defs>
<font id="SFUToledoMedium" horiz-adv-x="1000" >
  <font-face 
    font-family="SFU Toledo"
    font-weight="500"
    font-stretch="normal"
    units-per-em="1000"
    panose-1="0 0 5 0 0 0 0 0 0 0"
    ascent="800"
    descent="-200"
    x-height="504"
    cap-height="720"
    bbox="-60 -242 983 1131"
    underline-thickness="58"
    underline-position="-68"
    unicode-range="U+0020-U+F002"
  />
<missing-glyph horiz-adv-x="500" 
d="M63 0v802h375v-802h-375zM125 63h250v677h-250v-677z" />
    <glyph glyph-name=".notdef" horiz-adv-x="500" 
d="M63 0v802h375v-802h-375zM125 63h250v677h-250v-677z" />
    <glyph glyph-name=".null" horiz-adv-x="0" 
 />
    <glyph glyph-name="glyph2" horiz-adv-x="290" 
 />
    <glyph glyph-name="space" unicode=" " horiz-adv-x="290" 
 />
    <glyph glyph-name="exclam" unicode="!" horiz-adv-x="209" 
d="M48 60q0 27 19 46.5t46 19.5t46 -19t19 -46t-19.5 -46.5t-46.5 -18.5q-26 0 -45 19t-19 45zM118 208h-10q-1 14 -2 44q-5 107 -33 238l-17 80q-8 39 -8 68q0 41 17 66t48 25t48 -25.5t17 -66.5q0 -29 -8 -67l-11 -50l-6 -30q-29 -147 -33 -237q-2 -50 -2 -45z" />
    <glyph glyph-name="quotedbl" unicode="&#x22;" horiz-adv-x="311" 
d="M47 490l20 230h77l-21 -230h-76zM168 490l20 230h76l-20 -230h-76z" />
    <glyph glyph-name="numbersign" unicode="#" horiz-adv-x="585" 
d="M47 224l11 50h115l36 172h-115l10 50h116l44 210h50l-45 -210h105l44 210h49l-44 -210h115l-10 -50h-115l-37 -172h115l-10 -50h-115l-45 -210h-49l44 210h-104l-45 -210h-49l44 210h-115zM222 274h105l36 172h-104z" />
    <glyph glyph-name="dollar" unicode="$" horiz-adv-x="543" 
d="M252 724v71h52l-1 -68q26 3 63 -8l24 -7l5 -2q6 -2 12 -2q35 -2 43 24h11v-233h-11q-1 8 -4 25q-17 73 -48 112q-50 64 -94 61v-286q27 -5 54 -16q151 -59 151 -190q0 -27 -7 -56q-29 -129 -172 -159q-9 -2 -28 -4v-85h-53v86q-30 3 -83 17l-31 8q-25 6 -41 6
q-27 0 -32 -23v-7l-12 1v249l11 -1q1 -11 4 -25q13 -71 53 -120q56 -69 134 -80v297q-11 3 -33 11q-93 35 -133.5 83.5t-41.5 123.5q-1 93 63 150q55 48 124 48q10 0 21 -1zM302 15q3 1 11 2q86 18 104 104q4 21 4 39q0 91 -119 131v-276zM252 698l-7 -1l-7 -2
q-59 -17 -80 -84q-9 -29 -6 -58q9 -82 84 -116q6 -3 16 -6v267z" />
    <glyph glyph-name="percent" unicode="%" horiz-adv-x="655" 
d="M35 559q0 45 21 87q23 46 60 66q31 17 65 17q65 0 107 -54q40 -50 40 -116q0 -15 -3 -31q-12 -60 -47 -97q-39 -41 -97 -41q-34 0 -65 17q-60 32 -78 121q-3 15 -3 31zM117 559q0 -22 1 -36q9 -124 65 -124q37 0 53 60q6 23 9 64q3 37 0 73q-3 41 -9 64q-16 60 -53 60
q-56 0 -65 -124q-1 -14 -1 -37zM134 0l347 730h42l-349 -730h-40zM327 170q0 16 3 31q12 60 47 97q39 41 97 41q56 0 96 -41q35 -38 47 -97q6 -32 0 -63q-12 -60 -47 -97q-39 -41 -97 -41q-64 0 -107 54q-39 50 -39 116zM409 170q0 -23 1 -37q9 -124 65 -124q37 0 53 60
q6 23 9 64q1 18 1 37q0 18 -1 36q-3 41 -9 64q-16 60 -53 60q-56 0 -65 -125q-1 -14 -1 -35z" />
    <glyph glyph-name="ampersand" unicode="&#x26;" horiz-adv-x="620" 
d="M206 402l-54 101q-23 43 -23 84q0 52 35.5 90t98.5 51q24 5 46 5q102 0 133 -94q8 -24 8 -46q0 -85 -112 -148l-25 -12l146 -275q18 -34 28 -48q18 -24 41 -35q12 -6 24 -6q45 0 49 56q1 3 1 8l9 1l1 -10v-12q0 -18 -3 -36q-7 -39 -36.5 -63t-67.5 -24q-29 0 -52.5 13
t-47 38t-31.5 44q-47 -95 -149 -95q-22 0 -46 6q-91 23 -130 127q-14 38 -14 75q0 70 51 131t120 74zM308 443q53 22 61 84q4 27 -14 90q-6 20 -13 35q-22 45 -45 56q-14 6 -28 6q-47 0 -55 -46q-6 -35 14 -73zM211 392q-10 -3 -16 -7q-61 -28 -61 -105q0 -73 42 -149
q48 -89 108 -89q45 0 85 50z" />
    <glyph glyph-name="quotesingle" unicode="'" horiz-adv-x="191" 
d="M47 490l20 230h77l-21 -230h-76z" />
    <glyph glyph-name="parenleft" unicode="(" horiz-adv-x="267" 
d="M258 809l1 -8q-25 0 -39.5 -20.5t-36.5 -90.5q-29 -93 -34 -244q-2 -46 -2 -88q0 -216 35 -327q22 -69 36.5 -90t40.5 -22l-1 -8q-82 5 -137 89q-63 95 -79 275q-7 85 0 170q16 180 79 275q56 85 137 89z" />
    <glyph glyph-name="parenright" unicode=")" horiz-adv-x="267" 
d="M8 -81q25 0 39.5 21t36.5 90q35 112 35 330q0 217 -35 330q-22 70 -36.5 90.5t-39.5 20.5l1 8q82 -5 137 -89q63 -95 79 -275q7 -85 0 -170q-16 -179 -79 -275q-56 -84 -137 -89z" />
    <glyph glyph-name="asterisk" unicode="*" horiz-adv-x="375" 
d="M177 567q-1 -9 -6 -28q-22 -82 -62 -105q-25 -14 -47 -9q-31 7 -31 42q0 14 8 29q25 46 111 66q9 2 27 5zM198 568q9 -2 26 -5q94 -23 116 -76q4 -10 4 -20q0 -35 -32 -42q-22 -5 -46 9q-27 15 -47 59q-17 38 -21 75zM178 588q-19 4 -30 7q-107 31 -117 90
q-3 18 6.5 32.5t26.5 17.5q47 9 81 -48q27 -45 33 -99zM197 588q6 54 32 99q34 57 81 48q17 -3 27 -17.5t7 -32.5q-11 -59 -117 -90q-10 -3 -30 -7z" />
    <glyph glyph-name="plus" unicode="+" horiz-adv-x="502" 
d="M62 311v81h149v147h82v-147h147v-81h-147v-148h-82v148h-149z" />
    <glyph glyph-name="comma" unicode="," horiz-adv-x="176" 
d="M42 -142l-1 11q58 39 58 111q0 10 -2 21q-10 -2 -15 -2q-26 0 -44.5 17.5t-18.5 43.5q0 23 18 42.5t45 19.5q32 0 51 -28q17 -24 17 -58q0 -97 -86 -163q-9 -7 -22 -15z" />
    <glyph glyph-name="hyphen" unicode="-" horiz-adv-x="399" 
d="M19 213l59 84h302l-58 -84h-303z" />
    <glyph glyph-name="hyphen" unicode="&#x2010;" horiz-adv-x="399" 
d="M19 213l59 84h302l-58 -84h-303z" />
    <glyph glyph-name="period" unicode="." horiz-adv-x="174" 
d="M25 62q0 25 18.5 43t43.5 18q26 0 44 -18t18 -43q0 -27 -19 -45t-44 -18t-43 18.5t-18 44.5z" />
    <glyph glyph-name="slash" unicode="/" horiz-adv-x="428" 
d="M8 0l348 726h64l-350 -726h-62z" />
    <glyph glyph-name="zero" unicode="0" horiz-adv-x="504" 
d="M25 360q0 178 69 279q63 91 158 91q96 0 158 -91q51 -75 64 -186q6 -52 6 -101q0 -168 -70 -271q-62 -92 -158 -92t-158 92q-69 101 -69 279zM142 360q0 -19 2 -63q9 -190 41 -251q23 -43 67 -43q30 0 52 23q46 47 56 271q1 32 1 63q0 32 -1 64q-10 223 -56 270
q-23 23 -53 23q-44 0 -66 -42q-32 -60 -41 -251q-2 -44 -2 -64z" />
    <glyph glyph-name="one" unicode="1" horiz-adv-x="502" 
d="M128 10q8 0 12 1q58 8 58 98l-1 424q0 74 -13.5 103t-43.5 33h-8l1 10q99 6 180 53v-623q0 -99 69 -99v-10h-254v10z" />
    <glyph glyph-name="two" unicode="2" horiz-adv-x="504" 
d="M27 0q55 100 143 210q95 118 131 186q34 65 34 122q0 58 -29 96q-33 41 -90 41q-93 0 -139 -87q-4 -6 -10 -20l-8 1q29 97 96 141q53 35 107 35q51 0 95.5 -28t65.5 -73q17 -36 17 -72q0 -61 -50 -147q-26 -45 -80 -103l-14 -15l-51 -54l-64 -74q-12 -14 -63 -61h237
q36 0 51 8q21 11 25 42q1 3 1 9l9 1v-158h-414z" />
    <glyph glyph-name="three" unicode="3" horiz-adv-x="503" 
d="M13 182h11q1 -8 5 -19q27 -84 127 -105q20 -4 39 -4q58 0 100 34.5t55 93.5q4 19 4 39q0 60 -40 108t-109 65q-13 3 -29 5l171 222h-179q-35 0 -49 -6q-19 -9 -27 -37v-4q-1 -2 -1 -4l-8 -1v151h376l-194 -248q9 -3 26 -8q191 -69 184 -249q-3 -87 -51.5 -146.5
t-132.5 -74.5q-27 -5 -54 -5q-81 0 -139 43t-78 115q-6 21 -7 35z" />
    <glyph glyph-name="four" unicode="4" horiz-adv-x="503" 
d="M-7 180l390 550v-496h82v-55h-82v-70q0 -90 57 -98q4 -1 12 -1v-10h-253v10q8 0 12 1q56 8 56 98v71h-274zM62 234h206v310z" />
    <glyph glyph-name="five" unicode="5" horiz-adv-x="503" 
d="M44 35l5 9q28 -25 77 -25q37 0 76 16q91 37 115 141q7 31 7 60q0 74 -45 115.5t-115 35.5q-40 -4 -95 -33q-8 -4 -13 -8l45 374h274q17 0 25 13h8l-20 -107h-275l-21 -185l10 5l12 5q53 22 113 22q100 0 160.5 -59.5t60.5 -156.5q0 -28 -5 -57q-14 -77 -72 -133.5
t-139 -71.5q-29 -5 -56 -5q-85 0 -132 45z" />
    <glyph glyph-name="six" unicode="6" horiz-adv-x="504" 
d="M405 729l-1 -7q-9 0 -14 -1q-130 -8 -199 -206q-20 -57 -29 -121q4 9 12 21q47 69 125 69q75 0 122 -64t47 -160q0 -28 -4 -56q-29 -186 -175 -212q-19 -3 -38 -3q-92 0 -151 72q-65 78 -65 213q0 47 9 100q27 163 126 264q92 93 205 93q15 0 30 -2zM155 237q0 -16 1 -36
q4 -90 24 -138q11 -27 24 -42q17 -20 43 -20q34 0 56 32q17 26 33 84q14 53 14 119q0 132 -43 190q-20 28 -53 28q-37 0 -62 -36q-15 -22 -27 -69q-10 -40 -10 -112z" />
    <glyph glyph-name="seven" unicode="7" horiz-adv-x="504" 
d="M77 584v136h376l-20 -35l-36 -65q-161 -291 -161 -480q0 -68 18 -140h-123q-12 49 -12 96q0 160 176 415q39 57 87 117l-255 -1q-29 0 -39 -35q-2 -7 -2 -8h-9z" />
    <glyph glyph-name="eight" unicode="8" horiz-adv-x="503" 
d="M179 371q-46 24 -79 68q-41 54 -41 115q0 69 47 117q44 44 113 57q29 6 54 6q49 0 84 -23q78 -50 73 -132q-5 -93 -128 -147q172 -86 172 -226q0 -21 -4 -43q-12 -67 -59.5 -111.5t-121.5 -57.5q-30 -5 -57 -5q-78 0 -130.5 38.5t-67.5 104.5q-6 25 -6 47q0 84 81 150
q31 25 70 42zM282 443l13 10q33 29 46.5 53t17.5 65q2 16 -1 38q-6 51 -33.5 79.5t-65.5 28.5q-45 0 -72 -31.5t-27 -77.5q0 -57 37 -99q26 -30 85 -66zM204 358q-8 -5 -13 -9q-58 -50 -74 -113q-7 -28 -7 -58q0 -53 20 -93q40 -81 111 -81q62 0 99 50q33 45 33 108
q0 91 -117 164z" />
    <glyph glyph-name="nine" unicode="9" horiz-adv-x="503" 
d="M99 -9l1 8h14q130 9 199 207q20 58 29 120q-5 -12 -12 -20q-47 -69 -125 -69q-74 0 -121.5 64t-47.5 159q0 27 4 56q29 186 175 212q19 3 38 3q92 0 151 -72q65 -79 65 -213q0 -48 -9 -100q-26 -163 -126 -263q-92 -94 -205 -94q-15 0 -30 2zM154 484q0 -26 1 -41
q7 -102 42 -149q20 -27 53 -27q37 0 62 36q16 23 27 69.5t10 111.5q-3 119 -25 174q-10 26 -24 41q-18 21 -44 21q-34 0 -55 -32q-17 -26 -33 -84q-14 -53 -14 -120z" />
    <glyph glyph-name="colon" unicode=":" horiz-adv-x="195" 
d="M36 62q0 25 18.5 43t43.5 18q26 0 44 -18t18 -43q0 -27 -19 -45t-44 -18t-43 18.5t-18 44.5zM35 376q0 25 18 43t43 18q26 1 45 -17.5t19 -44.5q0 -25 -18 -43t-45 -18q-26 0 -44 18t-18 44z" />
    <glyph glyph-name="semicolon" unicode=";" horiz-adv-x="187" 
d="M51 -142l-2 11q4 2 18 14q40 40 40 94q0 12 -2 24q-10 -2 -15 -2q-26 0 -44 18t-18 44q0 25 18.5 43t43.5 18q32 0 52 -27q17 -25 17 -59q0 -97 -86 -163zM27 375q0 26 18 44t43 18q26 0 44 -18t18 -44t-18 -44t-44 -18q-25 0 -43 18t-18 44z" />
    <glyph glyph-name="less" unicode="&#x3c;" horiz-adv-x="515" 
d="M47 360l421 237v-87l-277 -150l277 -150v-87z" />
    <glyph glyph-name="equal" unicode="=" horiz-adv-x="504" 
d="M28 397v71h448v-71h-448zM28 273v71h448v-71h-448z" />
    <glyph glyph-name="greater" unicode="&#x3e;" horiz-adv-x="515" 
d="M47 123v87l277 150l-277 150v87l421 -237z" />
    <glyph glyph-name="question" unicode="?" horiz-adv-x="350" 
d="M60 61q0 26 19 45t46 19q28 0 47 -19t19 -45q0 -27 -19 -46t-46 -19t-46.5 19t-19.5 46zM5 596q9 62 71 104q44 30 95 31q16 0 32 -2q59 -9 96 -51.5t37 -100.5q0 -37 -16 -73q-23 -54 -88 -107l-23 -19l-18 -14q-59 -46 -61 -140v-16l-11 -1v18q1 100 35 155l21 34l8 14
l19 30q21 33 24 67q6 62 -22 99t-79 37q-57 0 -91 -37q-13 -14 -21 -29z" />
    <glyph glyph-name="at" unicode="@" horiz-adv-x="756" 
d="M443 230q-5 -19 -20 -36q-35 -41 -81 -41q-24 0 -50 11q-85 38 -77 178q1 15 4 35q15 94 67 155q49 58 109 58q58 0 86 -53q1 -1 2.5 -4.5t2.5 -5.5l9 57l49 -1l-52 -302q-6 -36 2 -62q9 -31 41 -31q7 0 15 3q26 9 57 46q39 46 52 134q4 28 4 54q0 116 -71 189t-181 73
q-23 0 -47 -4q-110 -16 -184 -107.5t-74 -217.5q0 -48 12 -94q28 -108 106 -170.5t176 -62.5q76 0 148 39t119 102l20 -36q-120 -150 -291 -150q-156 0 -258 114.5t-91 284.5q9 133 97.5 233t219.5 115q22 3 43 3q134 0 221 -87.5t87 -221.5q0 -32 -6 -66q-13 -80 -56 -141
q-52 -75 -125 -75q-39 0 -63.5 25t-21.5 60zM273 291q1 -36 13 -62q16 -36 57 -36q26 0 46 19q26 25 47 86q7 20 18 75l2 10l7 42q5 32 1 59q-4 28 -23 44.5t-43 16.5q-13 0 -26 -5q-50 -21 -80 -111q-9 -28 -13 -49q-8 -44 -6 -89z" />
    <glyph glyph-name="A" unicode="A" horiz-adv-x="581" 
d="M165 259h182l-91 283zM-39 10q74 -2 111 99l227 625l218 -625q35 -101 103 -99v-10h-294v10h15q57 7 57 56q0 18 -7 43l-36 122h-201l-40 -122q-8 -26 -8 -45q0 -47 55 -54h15v-10h-215v10z" />
    <glyph glyph-name="B" unicode="B" horiz-adv-x="616" 
d="M15 10q34 0 51.5 23.5t17.5 76.5l-1 501q0 90 -56 98q-4 1 -12 1l1 10h292q23 0 37 -1q196 -14 201 -164q4 -140 -142 -172q-18 -4 -35 -4q23 0 41 -3q169 -28 168 -182q-1 -194 -218 -194h-345v10zM200 395h86q131 0 139 123q10 159 -122 171q-11 1 -22 1h-81v-295z
M200 31h97q81 0 119 38.5t38 123.5q1 153 -140 172q-15 2 -27 2h-87v-336z" />
    <glyph glyph-name="C" unicode="C" horiz-adv-x="597" 
d="M534 732h12v-226h-12q0 76 -43 133q-53 70 -135 70q-74 0 -120 -59q-78 -100 -74 -291q2 -90 23 -154q10 -30 27 -58q56 -94 160 -94q81 0 133 62q41 49 48 113h11q0 -10 -1 -15q-12 -106 -74.5 -167t-161.5 -61q-31 0 -65 7q-104 21 -165 113q-65 99 -61 252
q4 179 87 278q79 94 208 94q57 0 118 -19l32 -10q11 -3 20 -3q37 0 33 35z" />
    <glyph glyph-name="D" unicode="D" horiz-adv-x="614" 
d="M15 10q69 0 69 99v502q0 90 -57 98q-4 1 -12 1v10h251q143 0 226 -93q85 -97 84 -268q-2 -177 -85 -270q-80 -89 -226 -89h-250v10zM200 29h43q91 0 147 76q61 85 61 246q0 61 -9 131q-27 207 -177 207h-65v-660z" />
    <glyph glyph-name="E" unicode="E" horiz-adv-x="514" 
d="M15 710v10h440v-174h-10q-16 145 -195 145h-50v-304h44q111 0 138 76q7 20 7 34l11 1v-246h-11q-2 8 -2 12q-21 95 -142 95h-45v-330h74q163 0 191 134q1 5 2 13.5t1 12.5h11v-189h-463v10q8 0 12 1q57 8 57 98v502q0 99 -70 99z" />
    <glyph glyph-name="F" unicode="F" horiz-adv-x="446" 
d="M15 710v10h438v-176h-12q-4 70 -59 110q-50 36 -124 36h-57v-304h52q54 0 89.5 25.5t44.5 67.5q1 2 3 19l11 -1v-245h-12q0 9 -3 16q-22 91 -136 91h-50v-250q0 -90 57 -98q4 -1 12 -1v-10h-253v10q8 0 12 1q57 8 57 98v502q0 90 -58 98q-4 1 -12 1z" />
    <glyph glyph-name="G" unicode="G" horiz-adv-x="653" 
d="M542 732l11 -1v-243h-10l-3 11l-5 21q-19 81 -59 127q-52 60 -120 60q-69 0 -118 -61q-54 -66 -66 -218q-3 -34 -3 -69q0 -117 24.5 -192.5t68.5 -114.5t98 -39q50 0 100 33q6 4 10 7v181q0 91 -57 99q-4 1 -12 1v10h247v-10q-69 0 -69 -100v-234h-10q0 29 -33 29
q-14 0 -32 -6l-9 -3l-30 -12q-20 -8 -53 -15q-39 -8 -79 -8q-133 0 -213 96q-84 101 -82 277q2 177 86 278q80 98 213 98q60 0 126 -22l27 -9h2q11 -4 20 -4q23 0 29 24q0 2 1 5v4z" />
    <glyph glyph-name="H" unicode="H" horiz-adv-x="661" 
d="M15 10q8 0 12 1q57 8 57 98v502q0 90 -56 98q-4 1 -12 1v10h247v-10q-62 0 -62 -99v-214h258v214q0 80 -41 95q-8 4 -20 4v10h247v-10q-13 0 -24 -4q-44 -15 -44 -95v-501q0 -100 69 -100l-1 -10h-247l-1 10q8 -1 22 3q41 16 41 96v259h-259v-259q0 -79 41 -95
q8 -4 21 -4v-10h-248v10z" />
    <glyph glyph-name="I" unicode="I" horiz-adv-x="284" 
d="M15 10q8 0 12 1q57 8 57 99v501q0 90 -56 98q-4 1 -12 1v10h253v-10q-8 0 -12 -1q-58 -8 -58 -98v-502q0 -90 57 -98q4 -1 12 -1v-10h-253v10z" />
    <glyph glyph-name="J" unicode="J" horiz-adv-x="286" 
d="M-20 -141q54 0 86 56q17 29 18 79l1 35l1 14v568q0 90 -57 98q-4 1 -11 1v10h253v-10q-8 0 -12 -1q-56 -8 -56 -98v-519q0 -117 -50 -176.5t-158 -67.5h-15v11z" />
    <glyph glyph-name="K" unicode="K" horiz-adv-x="601" 
d="M15 710v10h253v-10q-8 0 -12 -1q-56 -8 -56 -98v-251l84 114q31 42 55.5 83t31.5 55q17 35 17 57q0 34 -39 41h-14l1 10h224v-9q-9 -2 -25 -7q-75 -29 -137 -115l-113 -158l224 -322q6 -9 22 -27q61 -70 107 -72v-10h-261v10q5 -1 11 0q25 5 25 25q0 22 -37 74l-176 245
v-245q0 -90 56 -98q4 -1 12 -1v-10h-252v10q8 0 12 1q57 8 57 98v502q0 90 -58 98q-4 1 -12 1z" />
    <glyph glyph-name="L" unicode="L" horiz-adv-x="455" 
d="M15 10q13 0 24 4q44 15 44 95v502q0 90 -56 98q-4 1 -12 1v10h252v-10q-8 0 -11 -1q-56 -8 -56 -98v-581q11 -1 29 -1q191 3 209 161h10v-190h-433v10z" />
    <glyph glyph-name="M" unicode="M" horiz-adv-x="768" 
d="M15 710v10h183l189 -527l184 527h182v-10q-8 0 -12 -1q-54 -8 -54 -98v-502q0 -90 54 -98q4 -1 11 -1v-10h-252v10q8 0 12 1q59 8 59 98v526l-229 -649l-230 641v-518q0 -90 56 -98q4 -1 12 -1v-10h-164v10q8 0 12 1q57 8 57 98v502q0 90 -58 98q-4 1 -12 1z" />
    <glyph glyph-name="N" unicode="N" horiz-adv-x="611" 
d="M15 10q8 0 12 1q57 8 57 98v502q0 79 -45 95q-11 4 -23 4v10h171l312 -496v387q0 90 -55 98q-4 1 -12 1v10h164v-10q-13 0 -24 -4q-44 -15 -44 -95v-626l-416 642v-518q0 -90 55 -98q3 -1 11 -1v-10h-163v10z" />
    <glyph glyph-name="O" unicode="O" horiz-adv-x="680" 
d="M38 364q0 39 5 77q19 144 97 220t200 76q133 0 215 -96q86 -101 87 -277q1 -162 -72 -261q-68 -95 -185 -110q-23 -3 -46 -3q-133 0 -215 97q-86 101 -86 277zM154 506q-3 -67 16 -163q47 -235 124 -293q38 -29 83 -29q42 0 77 24.5t52 66.5q22 55 22 126q0 92 -35 227
q-42 164 -106 212q-38 29 -85 29q-41 0 -76 -24t-51 -66q-18 -48 -21 -110z" />
    <glyph glyph-name="P" unicode="P" horiz-adv-x="512" 
d="M15 710v10h242q119 0 184 -57t62 -151q-3 -79 -54.5 -131t-143.5 -63q-16 -2 -42 -2h-62v-207q0 -90 54 -98q4 -1 12 -1v-10h-251v10q8 0 12 1q55 8 55 98v502q0 90 -56 98q-4 1 -12 1zM201 346h58q7 0 17 2q54 10 78 40.5t30 95.5q2 22 2 42q0 159 -130 161l-55 1v-342z
" />
    <glyph glyph-name="Q" unicode="Q" horiz-adv-x="680" 
d="M403 -7q-1 -6 1 -19q6 -37 33 -60t66 -23q68 0 97 51q8 13 11 32l12 -1q-6 -42 -31 -76q-50 -68 -127 -68q-37 0 -74 17q-67 31 -87 112q-5 21 -5 35q-112 11 -186 108q-77 102 -77 252q0 80 23 164q28 104 102.5 162t178.5 58q133 0 215 -96q87 -101 87 -277
q0 -38 -5 -76q-31 -237 -234 -295zM154 506q-3 -67 16 -163q47 -235 124 -293q38 -29 83 -29q42 0 77 24.5t52 66.5q22 55 22 126q0 92 -35 227q-42 164 -106 212q-38 29 -85 29q-41 0 -76 -24t-51 -66q-18 -48 -21 -110z" />
    <glyph glyph-name="R" unicode="R" horiz-adv-x="571" 
d="M15 10q8 0 12 1q58 8 58 98l-1 501q0 91 -57 99q-4 1 -12 1v10h255q251 0 242 -180q-4 -78 -63 -121q-53 -38 -134 -38q10 0 28 -3q86 -14 121 -56.5t42 -139.5l5 -79q5 -96 71 -93v-10h-150q-30 19 -34 78l-5 69l-2 18q-11 101 -37.5 144t-86.5 52h-8q-6 1 -8 1l-51 1
v-254q0 -90 56 -98q4 -1 12 -1v-10h-253v10zM201 393h60q15 0 22 2q106 20 109 146q2 70 -32.5 109.5t-94.5 39.5h-64v-297z" />
    <glyph glyph-name="S" unicode="S" horiz-adv-x="534" 
d="M442 732h11v-233h-11q-2 14 -4 25q-20 88 -69 138q-46 46 -102 46q-35 0 -66 -20q-61 -38 -61 -108q0 -113 120 -153l3 -1l63 -22q9 -3 28 -10q146 -59 146 -189q0 -27 -7 -56q-17 -74 -76 -116.5t-148 -42.5q-50 0 -105 14l-24 6l-6 2q-24 8 -39 8q-28 0 -33 -25
q-1 -2 -1 -7l-11 1v249l11 -1l4 -25q18 -92 78 -148q56 -53 124 -53q53 0 92.5 30t49.5 82q4 20 4 38q0 92 -98 125l-69 23q-6 2 -34 13q-90 35 -128.5 83t-39.5 122q-1 81 46 134t135 68q48 8 116 -6q6 -1 18 -4l18 -6l11 -3q6 -2 12 -2q34 -2 42 24z" />
    <glyph glyph-name="T" unicode="T" horiz-adv-x="468" 
d="M2 534v186h464v-186h-10q-1 8 -4 25q-26 114 -138 132l-21 3v-585q0 -90 57 -98q4 -1 12 -1l-1 -10h-252v10q8 0 12 1q56 8 56 98v584q-19 0 -25 -1q-61 -10 -97 -53t-43 -106z" />
    <glyph glyph-name="U" unicode="U" horiz-adv-x="559" 
d="M11 710v10h252v-10q-33 0 -49.5 -24.5t-16.5 -74.5v-449q0 -63 24.5 -93.5t78.5 -37.5q14 -2 28 -2q126 0 126 146v436q0 90 -58 98q-4 1 -12 1v10h164v-10q-8 0 -12 -1q-54 -8 -54 -98v-439q0 -84 -38 -128t-120 -56q-37 -5 -74 -1q-93 11 -131.5 54.5t-38.5 135.5v434
q0 90 -57 98q-4 1 -12 1z" />
    <glyph glyph-name="V" unicode="V" horiz-adv-x="553" 
d="M-38 710v10h268v-10h-12q-41 -6 -41 -47q0 -21 10 -52l134 -416l130 416q8 26 8 45q0 47 -54 54h-15v10h201v-10q-66 0 -100 -99l-217 -626l-212 626q-34 101 -100 99z" />
    <glyph glyph-name="W" unicode="W" horiz-adv-x="873" 
d="M-24 710v10h252v-10h-11q-37 -7 -37 -49q0 -21 9 -50l129 -412l98 300l-37 112q-32 97 -78 99v10h245v-10h-12q-43 -6 -43 -50q0 -20 9 -49l131 -419l133 419q8 24 8 41q0 51 -68 58h-17v10h210v-10q-55 0 -90 -99l-222 -625l-155 470l-158 -470l-207 625q-33 99 -89 99z
" />
    <glyph glyph-name="X" unicode="X" horiz-adv-x="625" 
d="M-16 10q77 0 134 99l142 246l-140 256q-53 97 -111 99v10h269v-10q-6 2 -12 0q-36 -4 -36 -34q0 -24 22 -65l91 -168l91 168q21 38 21 60q0 33 -46 39q-9 1 -14 0v10h201v-10q-68 0 -125 -99l-112 -196l171 -306q54 -97 109 -99v-10h-278v10h14q43 5 43 38q0 23 -21 61
l-121 217l-119 -217q-20 -36 -20 -58q0 -35 48 -41h15l-1 -10h-215v10z" />
    <glyph glyph-name="Y" unicode="Y" horiz-adv-x="525" 
d="M-38 710v10h266v-10h-13q-44 -6 -44 -44q0 -21 14 -55l118 -288l120 288q13 31 13 51q0 42 -56 48h-14v10h200v-10q-63 0 -106 -99l-142 -326v-176q0 -80 43 -95q11 -4 24 -4v-10h-251v10q13 0 24 4q44 15 44 95v174l-145 328q-43 97 -95 99z" />
    <glyph glyph-name="Z" unicode="Z" horiz-adv-x="525" 
d="M-3 0l370 690l-71 -2q-9 0 -30 -3q-133 -17 -176 -101q-13 -26 -18 -58h-9v194h450l-369 -687l105 2q18 0 36 3q87 13 135 57t50 109l10 -1v-203h-483z" />
    <glyph glyph-name="bracketleft" unicode="[" horiz-adv-x="241" 
d="M66 -93v907h151v-51h-57v-806h57v-50h-151z" />
    <glyph glyph-name="backslash" unicode="\" horiz-adv-x="297" 
d="M47 720h76l127 -720h-77z" />
    <glyph glyph-name="bracketright" unicode="]" horiz-adv-x="241" 
d="M24 -93v50h57v806h-57v51h151v-907h-151z" />
    <glyph glyph-name="asciicircum" unicode="^" horiz-adv-x="569" 
d="M47 170l237 421l238 -421h-87l-151 277l-150 -277h-87z" />
    <glyph glyph-name="underscore" unicode="_" horiz-adv-x="454" 
d="M47 -30v30h360v-30h-360z" />
    <glyph glyph-name="grave" unicode="`" horiz-adv-x="198" 
d="M-31 710h96l105 -162h-58z" />
    <glyph glyph-name="a" unicode="a" horiz-adv-x="479" 
d="M77 382h-9l9 22q51 107 180 110q13 0 32 -2q67 -8 93 -40.5t26 -108.5l-1 -284l3 -16q0 -7 3 -13q4 -19 25 -10q17 8 21 41l1 9v3h11q0 -11 -1 -16q-9 -91 -90 -86q-38 2 -59.5 25.5t-17.5 55.5q-4 -6 -12 -20q-43 -61 -121 -62q-15 0 -25 1q-106 13 -110 139t100 152
l60 15l27 7q81 22 81 64q0 85 -92 85q-12 0 -25 -1q-71 -7 -109 -70zM302 326q-16 -14 -46 -25l-17 -6l-16 -6q-46 -17 -60 -37.5t-18 -77.5q-2 -22 -1 -35q3 -57 15.5 -77.5t48.5 -26.5q18 -3 31 0q63 14 63 92v199z" />
    <glyph glyph-name="b" unicode="b" horiz-adv-x="511" 
d="M16 696v10q78 6 156 24v-288l9 15q42 57 111 57q21 0 42 -6q60 -15 98 -78q42 -68 42 -170q0 -29 -4 -60q-12 -100 -68 -155t-137 -55q-43 0 -88 16l-22 8l-13 6l-12 3q-46 6 -56 -27h-9l-1 622q-1 36 -6 49q-8 24 -36 28q-2 1 -6 1zM173 96q0 -41 25.5 -68.5t60.5 -27.5
q51 0 75 49q14 28 22 89q4 27 6 75q1 29 0 79q-5 196 -96 196q-13 0 -27 -4q-66 -16 -66 -105v-283z" />
    <glyph glyph-name="c" unicode="c" horiz-adv-x="460" 
d="M428 363q-51 -12 -85 -31v9q1 6 1 9q1 71 -26 116q-21 35 -59 35q-62 0 -89 -99q-19 -69 -17 -146q1 -18 3 -37q6 -49 16 -73q34 -83 117 -83q40 0 74 24q43 31 53 84l3 21l11 -1q0 -13 -3 -31q-13 -78 -64 -124t-121 -46q-20 0 -40 4q-72 14 -117 77q-47 67 -47 168
q0 29 4 60q14 98 76 158q59 57 136 57q17 0 34 -3q116 -22 138 -131q2 -10 2 -17z" />
    <glyph glyph-name="d" unicode="d" horiz-adv-x="516" 
d="M338 472l-1 146q-1 42 -10 57.5t-32 19.5q-2 1 -7 1v10q77 5 157 24v-641q0 -37 7 -49q15 -27 42 -30v-10h-155v60q-42 -70 -120 -70q-18 0 -37 4q-124 26 -142 202q-2 23 -2 46q0 88 29 151q27 58 76 90q46 31 97 31q53 0 89 -34q3 -3 9 -8zM338 395q0 92 -69 105
q-10 2 -19 2q-70 0 -91 -126q-11 -62 -8 -167q0 -12 2 -40q5 -76 32 -118q25 -38 64 -38q18 0 38 10q41 20 50 83q1 7 1 16v273z" />
    <glyph glyph-name="e" unicode="e" horiz-adv-x="497" 
d="M462 277h-308q-2 -15 -1 -28q7 -145 109 -177q23 -7 46 -7q56 0 96 38q37 36 48 92l10 -1q0 -11 -3 -31q-12 -78 -67 -126t-132 -48q-23 0 -47 5q-83 16 -130 86q-49 74 -45 186q4 114 65 178q69 73 161 73q61 0 111.5 -34.5t71.5 -94.5q18 -52 15 -111zM154 298h198v21
q0 109 -29 152q-22 32 -61 32q-90 0 -107 -178v-13q-1 -9 -1 -14z" />
    <glyph glyph-name="f" unicode="f" horiz-adv-x="262" 
d="M18 10q51 5 51 79v378h-49l116 170q66 97 128 97q34 0 79 -26q6 -3 17 -11l-84 -93l-7 3q14 43 11 65q-2 16 -9 27q-9 16 -29 16q-44 0 -60 -70q-3 -12 -3 -22l-2 -119h87l-23 -37h-65v-378q0 -74 49 -79v-10h-207v10z" />
    <glyph glyph-name="g" unicode="g" horiz-adv-x="536" 
d="M363 459v45h155v-11q-28 -3 -42 -30q-8 -15 -8 -49v-400q0 -106 -50 -161.5t-144 -56.5q-76 -1 -126 34t-65 95q-3 10 -4 22h10q8 -42 49.5 -67.5t104.5 -20.5q120 10 120 153v74q-13 -44 -51.5 -70.5t-85.5 -26.5q-56 0 -103 36q-86 66 -86 206q0 35 6 72q9 50 30 92
q30 57 81 89q48 30 100 30q54 0 89 -32q9 -8 20 -23zM364 386q0 12 -1 17q-1 21 -7 37q-20 56 -81 56q-25 0 -48 -14q-71 -42 -75 -230q-3 -137 44 -198q26 -34 68 -34q45 0 73 40q19 27 25 74q2 16 2 26v226z" />
    <glyph glyph-name="h" unicode="h" horiz-adv-x="547" 
d="M22 696v10q80 6 157 24v-302q5 7 17 19q68 68 159 68q122 0 122 -147v-279q0 -42 15 -59.5t35 -19.5v-10h-196v10q3 0 7 2q34 12 34 77v284q0 18 -1 27v7q-2 12 -5 17q-15 36 -64 44q-23 4 -46 -3q-77 -22 -77 -107v-269q0 -71 41 -79l-1 -10h-196v10q49 5 49 78l-1 530
q0 41 -9.5 57t-33.5 20q-2 1 -6 1z" />
    <glyph glyph-name="i" unicode="i" horiz-adv-x="248" 
d="M22 10q28 3 42 29q8 15 8 50l-2 312q-3 71 -41 78h-6v10q35 3 84 10q19 3 70 14v-424q0 -32 8 -50q15 -26 41 -29v-10h-204v10zM55 632q0 26 19 45t46 19q28 0 46.5 -18.5t18.5 -45.5t-19 -46t-45 -19q-28 -1 -47 18.5t-19 46.5z" />
    <glyph glyph-name="j" unicode="j" horiz-adv-x="251" 
d="M-57 -166l5 6q20 -13 43 -13q30 0 55 21.5t33 58.5q5 24 5 88l-1 406q-2 71 -41 78h-6v10q84 6 155 24v-517q0 -99 -33 -143.5t-107 -51.5q-64 -6 -108 33zM69 630q-1 27 18.5 46.5t46.5 19.5q29 0 47.5 -19t18.5 -45q0 -27 -19.5 -45.5t-45.5 -18.5q-27 0 -46 18t-20 44
z" />
    <glyph glyph-name="k" unicode="k" horiz-adv-x="496" 
d="M22 696v10q88 6 156 24v-465q43 39 87 94q56 70 56 104q0 31 -33 31v10h167l-1 -10q-36 -5 -77 -37q-15 -12 -55 -55l-66 -71l172 -242q5 -8 15 -20q46 -53 90 -59v-10h-164l-191 258v-169q0 -74 48 -79v-10h-203v10q26 3 40 29q8 15 8 49l-1 530q-1 36 -6 49
q-9 24 -36 28q-2 1 -6 1z" />
    <glyph glyph-name="l" unicode="l" horiz-adv-x="249" 
d="M22 696v10q80 6 157 24v-641q0 -35 8 -50q14 -26 40 -29v-10h-204v10q25 3 40 29q8 18 8 49l-1 530q-1 36 -6 49q-9 24 -36 28q-2 1 -6 1z" />
    <glyph glyph-name="m" unicode="m" horiz-adv-x="758" 
d="M22 0v10q49 5 49 78l-1 313q-1 6 -2 19q-6 52 -39 59h-6v10q77 6 154 24v-65q42 52 105 61q25 4 46 4q88 0 104 -63q10 10 15 14q52 50 129 50q112 0 112 -116v-309q0 -74 50 -79v-10h-194v10q10 2 14 5q25 13 25 74v296v15q-2 73 -65 73q-15 0 -34 -6q-50 -16 -50 -80
v-298q0 -33 4 -46q7 -22 30 -31q1 0 3 -0.5t3 -1.5v-10h-187v10q3 0 7 2q34 10 34 77v300q0 77 -65 81q-47 3 -71 -28q-15 -20 -15 -54v-299q0 -74 40 -79v-10h-195z" />
    <glyph glyph-name="n" unicode="n" horiz-adv-x="547" 
d="M22 0v10q50 5 50 79l-2 312q-2 71 -41 78h-6v10q77 5 157 24v-84q10 14 20 21q67 65 156 65q122 0 122 -144v-282q0 -74 49 -79v-10h-197l-1 10q3 1 7 2q35 13 35 77v285q0 85 -75 93q-19 2 -41 -4q-76 -21 -76 -97v-277q0 -64 34 -77q1 0 3 -0.5t3 -1.5v-10h-197z" />
    <glyph glyph-name="o" unicode="o" horiz-adv-x="532" 
d="M38 251q0 123 64 195q62 69 164 69q90 0 150 -55t74 -155q4 -31 4 -61q0 -118 -64 -187.5t-164 -69.5q-102 0 -165 70.5t-63 193.5zM139 353q-1 -46 12 -115q44 -224 134 -233q48 -5 77.5 31.5t29.5 117.5q0 70 -24 168q-42 170 -120 176q-104 9 -109 -145z" />
    <glyph glyph-name="p" unicode="p" horiz-adv-x="516" 
d="M22 -184q49 5 49 79l-2 506q-3 42 -11.5 58t-28.5 20h-7v10q80 6 155 24v-70q1 2 8 12q41 59 114 59q81 0 130 -71t49 -182q0 -99 -37 -169q-26 -49 -70.5 -75.5t-91.5 -26.5q-52 0 -88 31l-7 6l-6 6v-139q0 -35 7 -49q14 -27 40 -29v-10h-203v10zM178 104q0 -84 64 -98
q15 -3 27 -3q44 0 67 47t29 160q2 43 1 77q-4 114 -29 159q-22 42 -71 41q-56 -1 -80 -58q-8 -19 -8 -62v-263z" />
    <glyph glyph-name="q" unicode="q" horiz-adv-x="501" 
d="M433 507h10v-613q0 -73 48 -78v-10h-204v10q26 2 42 29q9 16 9 51v163q-24 -50 -89 -65q-18 -4 -36 -4q-75 0 -124 66q-52 71 -51 194q1 122 62 193q57 68 146 68q41 0 83 -15l22 -8l9 -4q6 -3 15 -4q48 -6 58 27zM338 396q0 40 -13 62q-26 44 -76 44q-87 0 -100 -213
q-2 -29 -1 -72q2 -113 28 -161q25 -44 75 -43q72 2 85 85q2 13 2 18v280z" />
    <glyph glyph-name="r" unicode="r" horiz-adv-x="315" 
d="M22 10q27 3 40 29q8 15 8 50l-1 312q0 6 -1 19q-7 52 -39 59h-7v10q83 6 155 24v-118q1 13 8 30q36 91 120 87q13 -1 26 -4q-31 -46 -31 -97l-8 -1q-2 4 -3 5q-11 21 -37 21q-50 0 -69 -52q-5 -14 -5 -59v-236q0 -74 49 -79v-10h-205v10z" />
    <glyph glyph-name="s" unicode="s" horiz-adv-x="444" 
d="M25 144q40 9 80 24v-21q4 -70 34.5 -107t77.5 -37q16 0 32 4q56 14 70 72q4 17 4 32q0 65 -92 96l-3 1l-47 16q-136 46 -136 140q0 22 8 46q27 86 141 102q32 5 63 0q107 -16 137 -104q2 -5 5 -17q-6 -2 -19 -6q-29 -9 -56 -24l-1 11l-2 14q0 4 -1.5 11t-2.5 10
q-22 92 -93 92q-32 0 -55.5 -21t-26.5 -55q-7 -72 68 -100l24 -9l22 -7l18 -7l29 -11q109 -42 109 -136q0 -17 -3 -35q-25 -129 -188 -130q-176 -1 -196 156z" />
    <glyph glyph-name="t" unicode="t" horiz-adv-x="287" 
d="M13 467l157 159v-122h136l-22 -37h-115v-379q0 -56 63 -56q29 0 44 11q23 13 30 38h10q0 -5 -3 -15q-21 -66 -110 -76q-23 -3 -49 2q-54 9 -72.5 36.5t-18.5 100.5v338h-50z" />
    <glyph glyph-name="u" unicode="u" horiz-adv-x="546" 
d="M22 492v12h154v-379q0 -94 81 -94q42 0 68 18t35 39q8 18 8 53v273q0 73 -48 78l1 12h152v-415q0 -43 15 -60.5t36 -18.5v-10h-156v71l-16 -16q-70 -66 -158 -66q-60 0 -92 35.5t-32 98.5v291q0 73 -48 78z" />
    <glyph glyph-name="v" unicode="v" horiz-adv-x="443" 
d="M-34 494v10h231v-10h-4q-3 -1 -5 -1q-34 -8 -34 -39q0 -16 9 -39l102 -275l55 147q3 8 8 23q10 30 17 60q10 47 10 71q0 42 -41 52q-1 0 -4 1h-4l-1 10h172v-10q-31 -5 -52.5 -30.5t-55.5 -103.5q-1 -1 -10 -24l-144 -347l-173 426q-14 35 -27 49q-23 25 -49 30z" />
    <glyph glyph-name="w" unicode="w" horiz-adv-x="636" 
d="M-34 494v10h222v-10h-4q-3 -1 -5 -1q-32 -8 -32 -41q0 -15 7 -37l81 -255l114 352l124 -362l62 192q15 48 15 83q0 64 -46 69l-1 10h167v-10q-58 -9 -91 -93l-24 -61l-129 -353l-116 354l-123 -351l-146 425q-12 36 -24 49q-24 27 -51 30z" />
    <glyph glyph-name="x" unicode="x" horiz-adv-x="481" 
d="M-21 0v10q27 4 48 19.5t57 60.5q6 6 16 19l93 130l-104 176q-20 34 -37 50q-26 24 -52 29v10h224v-10q-33 0 -33 -29q0 -19 19 -50l66 -110l34 51q4 5 10 16q28 52 28 83q0 30 -24 36q-9 3 -17 0v13h158l1 -10q-40 -7 -88 -65l-13 -19l-19 -27l-63 -92l123 -202
q22 -36 38 -50q27 -24 60 -29v-10h-236v10q35 0 35 30q0 18 -18 48l-84 137l-45 -63q-7 -10 -12 -18q-20 -33 -28 -66q-2 -10 -2 -19q0 -22 12.5 -36t30.5 -13v-10h-178z" />
    <glyph glyph-name="y" unicode="y" horiz-adv-x="534" 
d="M20 492v12h155v-365q0 -108 79 -108q55 0 86 33q26 28 26 76v274q0 73 -48 78v12h154v-474q0 -236 -191 -236q-66 0 -110 26q-79 46 -89 127h10q9 -41 48.5 -66t100.5 -23q126 5 126 156v60q-37 -45 -89 -68q-41 -19 -81 -19q-53 0 -89 32.5t-38 80.5q-1 20 -1 44v270
q0 73 -49 78z" />
    <glyph glyph-name="z" unicode="z" horiz-adv-x="419" 
d="M9 0l268 487q-37 -2 -64 -8q-137 -32 -149 -131l-10 1v155h349l-268 -487h17q75 3 122 23q97 43 105 125h10v-165h-380z" />
    <glyph glyph-name="braceleft" unicode="{" horiz-adv-x="316" 
d="M47 360q27 2 45 21.5t18 50.5v330q0 71 81 71h78v-45h-12q-35 0 -46.5 -11.5t-11.5 -46.5v-290q0 -31 -20 -54t-51 -26q31 -3 51 -26t20 -54v-290q0 -35 11.5 -46.5t46.5 -11.5h12v-45h-78q-81 0 -81 71v330q0 31 -18 50.5t-45 21.5z" />
    <glyph glyph-name="bar" unicode="|" horiz-adv-x="170" 
d="M47 0v720h76v-720h-76z" />
    <glyph glyph-name="braceright" unicode="}" horiz-adv-x="316" 
d="M47 -113v45h12q35 0 46.5 11.5t11.5 46.5v290q0 31 20 54t51 26q-31 3 -51 26t-20 54v290q0 35 -11.5 46.5t-46.5 11.5h-12v45h78q81 0 81 -71v-330q0 -31 18 -50.5t45 -21.5q-27 -2 -45 -21.5t-18 -50.5v-330q0 -71 -81 -71h-78z" />
    <glyph glyph-name="asciitilde" unicode="~" horiz-adv-x="470" 
d="M47 288v18q9 119 98 119q27 0 60 -13l77 -31q4 -1 12 -5q21 -6 33 -6q20 0 30 26q2 5 6 21q0 6 1 9h59v-18q-9 -119 -98 -119q-27 0 -60 13l-78 31q-1 0 -9 3q-25 8 -37 8q-18 0 -28 -26q-2 -5 -6 -21q0 -6 -1 -9h-59z" />
    <glyph glyph-name="dagger" unicode="&#x2020;" horiz-adv-x="667" 
d="M17 397v32l74 56l227 -55l-57 225l57 91h31l57 -91l-57 -225l227 55l74 -56v-32l-73 -56l-228 56l57 -188l-56 -451h-33l-56 451l57 188l-228 -56z" />
    <glyph glyph-name="cent" unicode="&#xa2;" horiz-adv-x="451" 
d="M230 511v66h41v-65l24 -3q108 -24 128 -129q2 -10 2 -17q-51 -12 -85 -31v9q1 6 1 9q1 63 -20 106q-19 39 -50 43v-435q50 -6 90.5 24t51.5 83l3 21l11 -1q0 -13 -3 -31q-23 -137 -157 -171l1 -77h-41l-1 79q-74 1 -125 55q-55 57 -64 153q-2 22 -2 43q0 116 59 193
q56 72 136 76zM230 489q-24 -10 -50 -57.5t-30 -138.5q-2 -36 3 -73q7 -56 20.5 -83t42.5 -46q3 -1 7.5 -3.5t6.5 -3.5v405z" />
    <glyph glyph-name="sterling" unicode="&#xa3;" horiz-adv-x="503" 
d="M30 312v24h76q-15 29 -26 59q-28 78 -28 138q0 80 51 135q45 48 112 59q29 5 55 5q166 0 204 -190q-42 -12 -82 -33q0 6 -1 18q-5 74 -32 125q-35 68 -100 68q-47 0 -78 -38t-27 -99q3 -41 25 -112l9 -25l23 -66q5 -14 7 -43h149v-25h-145q1 -13 1 -25q0 -77 -69 -162
q-13 -16 -26 -29h266q53 0 66.5 9t21.5 50q1 2 1 7h5v-162h-450q101 115 101 212q0 56 -25 100h-84z" />
    <glyph glyph-name="section" unicode="&#xa7;" horiz-adv-x="561" 
d="M126 495q-38 38 -38 98q0 63 52 102q56 42 152 39q95 -3 186 -50l16 -8l4 -176l-34 -2q0 11 -4 34q-13 72 -60 117q-45 41 -100 41q-33 0 -62 -16q-39 -22 -39 -64q0 -36 32 -64l248 -221q56 -50 56 -122q0 -83 -75 -163q-4 -3 -11.5 -10l-11.5 -11q40 -40 40 -94
q0 -43 -28.5 -79t-80.5 -53q-42 -14 -89 -14q-107 0 -209 60l-4 174l34 1q0 -16 3 -31q14 -75 60 -118q43 -41 98 -41q22 0 44 7q8 2 14 6q47 23 47 64q0 34 -30 61l-252 228q-56 51 -56 119q0 81 80 168zM159 466q-6 -6 -13 -14q-38 -43 -38 -90q0 -51 46 -92l251 -222
q6 5 15 16q35 42 35 89q0 51 -41 87z" />
    <glyph glyph-name="bullet" unicode="&#x2022;" horiz-adv-x="364" 
d="M47 360q0 56 39.5 95.5t95.5 39.5t95.5 -39.5t39.5 -95.5t-39.5 -95.5t-95.5 -39.5t-95.5 39.5t-39.5 95.5z" />
    <glyph glyph-name="paragraph" unicode="&#xb6;" horiz-adv-x="534" 
d="M214 720h309v-27h-299q-61 0 -106 -49t-44 -121q1 -71 45.5 -118t105.5 -47h58v266h54v-624h-109v13h16l6 1l8 1q25 3 25 32v283h-69q-84 0 -145 59q-58 56 -58 137q0 80 59 137t144 57zM404 0v624h55v-577q0 -29 24 -32l14 -2h15v-13h-108z" />
    <glyph glyph-name="germandbls" unicode="&#xdf;" horiz-adv-x="524" 
d="M22 0v10q47 5 47 78v417q0 105 52.5 164.5t142.5 62.5q74 2 121 -31.5t60 -94.5q5 -23 5 -45q0 -101 -100 -134q-6 -1 -18 -5q9 0 22 -3q64 -15 103 -71t41 -142q2 -89 -30 -146q-30 -52 -80 -65q-25 -7 -47 -7q-52 0 -84 35.5t-36 100.5v19l11 -1v-13q2 -30 23 -50
t51 -20q53 0 70 67q5 22 7 65q1 34 -2 66q-16 161 -130 161l1 9q5 -2 11 0q44 4 62 32t17 95q0 25 -4 49q-7 47 -18 76q-17 44 -61 44q-22 0 -41 -14q-42 -31 -42 -136v-573h-154z" />
    <glyph glyph-name="acute" unicode="&#xb4;" horiz-adv-x="197" 
d="M33 549l106 161h94l-141 -161h-59z" />
    <glyph glyph-name="dieresis" unicode="&#xa8;" horiz-adv-x="287" 
d="M-3 605q0 22 15 37t37 15q23 0 38.5 -15t15.5 -37q0 -21 -16.5 -37t-37.5 -16q-22 1 -37 16.5t-15 36.5zM184 605q0 22 15.5 37t37.5 15q21 0 37 -16t16 -37t-16 -36.5t-37 -15.5q-22 -1 -37.5 15t-15.5 38z" />
    <glyph glyph-name="AE" unicode="&#xc6;" horiz-adv-x="847" 
d="M-39 10q53 14 103 89q12 18 18 29l36 66l293 526h377v-173l-9 1q0 72 -57 110q-50 34 -124 34h-65v-304h51q56 0 94 26q44 30 44 83h10v-246h-9q0 6 -2 15q-21 93 -137 93h-50v-329h88q78 0 128 46t53 115h9v-191h-463v10q8 0 12 1q21 2 34 16q23 22 23 82v122h-240
l-24 -40q-32 -53 -32 -107q0 -71 59 -74v-10h-220v10zM191 259h227v424z" />
    <glyph glyph-name="Oslash" unicode="&#xd8;" horiz-adv-x="680" 
d="M539 658l59 78l29 -22l-64 -86q60 -84 73 -178q7 -50 7 -97q0 -170 -87 -269q-83 -94 -216 -94q-111 0 -188 69l-60 -81l-30 22l65 85q-69 86 -83 193q-7 49 -7 94q0 156 74 254q70 93 184 108q25 3 48 3q117 0 196 -79zM227 157q16 -53 54 -89q48 -45 105 -45
q74 0 113 70q32 57 32 149q0 136 -52 278zM463 558q-11 34 -27 58.5t-32 40.5q-47 45 -106 45q-76 0 -113 -67q-33 -60 -33 -156q0 -141 59 -282z" />
    <glyph glyph-name="yen" unicode="&#xa5;" horiz-adv-x="644" 
d="M20 710v10h266v-10h-13q-44 -6 -44 -44q0 -21 14 -55l118 -288l120 288q13 31 13 51q0 42 -56 48h-14v10h200v-10q-63 0 -106 -99l-105 -244h173v-56h-198l-12 -26v-25h208v-57h-208v-94q0 -90 55 -98q4 -1 12 -1v-10h-251v10q69 0 69 99v94h-203v61h202v19l-11 29
l-191 1v59h167l-110 239q-45 97 -95 99z" />
    <glyph glyph-name="ordfeminine" unicode="&#xaa;" horiz-adv-x="450" 
d="M47 281v53h353v-53h-353zM256 589v59q0 29 -8.5 43t-34.5 18q-7 1 -14 1q-26 0 -41.5 -13t-14.5 -27l5 -15l3 -6q2 -5 1 -16q-4 -34 -42 -33q-40 1 -40 41q0 50 63 75q49 20 103 16q106 -8 106 -92v-206q3 -29 32 -23q8 2 16 10l4 4l3 5l6 -8q-10 -21 -31 -35
q-25 -17 -50 -17q-45 0 -60 42q-1 2 -4 15q-5 -5 -7 -8q-49 -49 -105 -49q-16 0 -32 4q-63 17 -63 79q0 24 13 46q24 40 102 65l19 6l26 7l21 6zM257 568l-9 -4l-10 -3l-13 -5l-12 -5l-9 -4l-15 -6q-55 -22 -55 -70q0 -23 16 -41t40 -18q30 0 60 30q1 2 3.5 4.5l3.5 3.5v118
z" />
    <glyph glyph-name="ordmasculine" unicode="&#xba;" horiz-adv-x="448" 
d="M48 281v53h352v-53h-352zM47 552q-1 72 38.5 121t105.5 59q19 3 37 3q76 0 123 -47q38 -38 47 -94q4 -22 4 -43q0 -81 -48 -130.5t-126 -51.5q-70 -2 -117 37.5t-60 108.5q-4 21 -4 37zM138 552q0 -40 13 -79q15 -47 41 -65q17 -12 38 -12q44 0 63 41q16 35 18 87
q1 22 -4 57q-9 67 -35 101q-21 27 -51 27q-41 0 -64 -46q-16 -33 -19 -81q-1 -17 0 -30z" />
    <glyph glyph-name="ae" unicode="&#xe6;" horiz-adv-x="751" 
d="M71 380h-10q22 73 97 113q40 21 92 21q16 0 33 -2q77 -9 96 -58q12 14 28 25q49 34 114 34q82 0 136 -56t58 -152q1 -13 -1 -27h-307q-1 -6 0 -23q4 -91 45 -141t105 -50q18 0 36 4q92 19 114 127l9 -1q0 -88 -57.5 -146t-145.5 -58q-15 0 -30 2q-118 12 -165 123
q-3 -10 -7 -16q-41 -91 -116 -106q-16 -3 -32 -3q-51 0 -87 33t-40 83q-1 18 -1 33q0 66 25.5 99t84.5 48l44 11l12 2l41 8q11 2 15 4q40 18 40 60q0 11 -3 24q-12 58 -91 58q-37 0 -66 -12q-49 -19 -66 -61zM408 299h198q2 42 -3 79q-15 126 -84 126q-18 0 -35 -7
q-42 -18 -65 -112q-9 -39 -11 -86zM296 326q-17 -17 -45 -25l-33 -10q-4 -1 -15 -6q-37 -17 -49 -36.5t-16 -71.5v-16v-13l1 -30q1 -42 14.5 -60t45.5 -23q10 -2 19 -2q36 0 57 23t21 63v207z" />
    <glyph glyph-name="oslash" unicode="&#xf8;" horiz-adv-x="535" 
d="M38 0l56 68q-41 59 -50 125q-4 32 -4 62q0 119 64 191q63 69 162 69q91 0 153 -56l51 64l27 -22l-53 -67q38 -57 48 -125q5 -33 5 -63q0 -109 -54 -177t-141 -80q-19 -2 -36 -2q-87 0 -147 57l-54 -65zM189 123q13 -48 42 -81q33 -37 72 -37q47 0 74 49q25 46 25 103
q0 44 -14 106q-7 32 -13 49l-6 18l-6 16zM348 382q-9 43 -41 79.5t-70 36.5q-46 0 -72 -49.5t-26 -106.5q0 -43 13 -105q1 -6 13 -47l4 -14l6 -16z" />
    <glyph glyph-name="questiondown" unicode="&#xbf;" horiz-adv-x="350" 
d="M155 666q0 27 19 46t46 19q26 0 46 -19t20 -46t-19.5 -46t-46.5 -19t-46 19.5t-19 45.5zM216 519l11 1v-18l-1 -20q-4 -86 -34 -135l-11 -18l-10 -17l-7 -10l-20 -33q-21 -35 -24 -67q-5 -63 22.5 -99.5t78.5 -36.5q73 0 112 66l8 -1q-10 -63 -71 -105q-43 -29 -95 -30
q-69 -1 -117 42t-48 112q0 36 16 73q21 47 88 106l23 20l18 14q8 6 16 15q42 46 45 125v16z" />
    <glyph glyph-name="exclamdown" unicode="&#xa1;" horiz-adv-x="209" 
d="M48 665q0 27 19.5 46.5t46.5 18.5q26 0 45 -19t19 -46t-18.5 -46t-46.5 -19q-27 0 -46 19t-19 46zM108 518h10q1 -14 2 -44q5 -108 33 -238l17 -80q8 -39 8 -68q0 -41 -17 -66t-48 -25t-48 25.5t-17 66.5q0 29 8 67l11 50l6 30q28 142 33 238q2 41 2 44z" />
    <glyph glyph-name="florin" unicode="&#x192;" horiz-adv-x="517" 
d="M20 -169l84 94l8 -4q-2 -3 -4 -9q-11 -34 -8 -56q2 -16 9 -27q9 -16 29 -16q21 0 37.5 18t22.5 57q7 44 7 150v429h-48l116 170q66 97 129 97q34 0 78 -26q6 -3 17 -11l-84 -93l-7 3l3 9q8 24 8 45q0 54 -39 54q-43 0 -59 -70q-3 -12 -3 -22l-2 -119h87l-23 -37h-66v-406
q0 -71 -66.5 -169t-129.5 -98q-34 0 -79 26q-6 3 -17 11z" />
    <glyph glyph-name="guillemotleft" unicode="&#xab;" horiz-adv-x="351" 
d="M19 251l94 187h83l-109 -188l107 -186h-81zM155 251l94 187h83l-109 -188l107 -186h-81z" />
    <glyph glyph-name="guillemotright" unicode="&#xbb;" horiz-adv-x="351" 
d="M19 64l109 188l-107 186h81l94 -186l-94 -188h-83zM155 64l109 188l-107 186h81l94 -186l-94 -188h-83z" />
    <glyph glyph-name="ellipsis" unicode="&#x2026;" horiz-adv-x="620" 
d="M40 53q0 26 18.5 44.5t44.5 18.5t44.5 -18.5t18.5 -44.5t-18.5 -44.5t-44.5 -18.5t-44.5 18.5t-18.5 44.5zM247 53q0 26 18.5 44.5t44.5 18.5t44.5 -18.5t18.5 -44.5t-18.5 -44.5t-44.5 -18.5t-44.5 18.5t-18.5 44.5zM454 53q0 26 18.5 44.5t44.5 18.5t44.5 -18.5
t18.5 -44.5t-18.5 -44.5t-44.5 -18.5t-44.5 18.5t-18.5 44.5z" />
    <glyph glyph-name="OE" unicode="&#x152;" horiz-adv-x="870" 
d="M494 720h320v-175h-11q-5 89 -90 130q-33 16 -83 16h-73v-304h57q15 0 22 1q52 7 81.5 37.5t29.5 71.5l8 1v-247h-10q0 51 -42 81q-38 27 -90 27h-56v-329h74q78 0 129 35q48 34 62 95q4 18 4 28l9 1v-189l-385 -1l-40 -7q-17 -3 -27 -3q-20 -2 -38 -2q-140 0 -221 95
q-85 98 -86 277q-1 175 86 275q85 97 228 97q40 0 83 -8q7 -1 19 -4zM442 659q-2 3 -8 8q-34 30 -65 36q-14 3 -27 3q-61 0 -112 -72q-43 -61 -56 -207q-3 -39 -3 -77q0 -100 20 -171q30 -105 79 -140q37 -27 74 -27q47 0 98 51v596z" />
    <glyph glyph-name="oe" unicode="&#x153;" horiz-adv-x="841" 
d="M438 422q40 75 128 89q22 4 44 4q85 0 138 -55.5t57 -153.5q1 -19 0 -28h-309q0 -22 1 -35q7 -86 46.5 -132.5t104.5 -46.5q16 0 34 3q45 8 78 45t38 83h8q0 -84 -58 -143.5t-142 -60.5q-119 -1 -172 92q-47 -93 -168 -93q-25 0 -53 5q-77 14 -126 82.5t-49 174.5
q0 102 52 172t131 85q26 5 51 5q118 0 166 -92zM498 299h198q1 5 1 21q1 73 -13 115q-10 29 -22 44q-20 25 -55 25q-36 0 -62 -29q-21 -24 -38 -97q-9 -38 -9 -79zM145 355q-1 -37 14 -116q42 -226 132 -233q85 -7 105 106q10 53 -9 153q-42 226 -133 234q-105 9 -109 -144z
" />
    <glyph glyph-name="endash" unicode="&#x2013;" horiz-adv-x="504" 
d="M28 334v71h448v-71h-448z" />
    <glyph glyph-name="emdash" unicode="&#x2014;" horiz-adv-x="591" 
d="M19 302v94h553v-94h-553z" />
    <glyph glyph-name="quotedblleft" unicode="&#x201c;" horiz-adv-x="332" 
d="M124 727l2 -11q-6 -4 -18 -14q-40 -40 -40 -94q0 -12 2 -24q10 2 15 2q9 0 23 -4q40 -16 40 -57q0 -25 -18.5 -43.5t-43.5 -18.5q-33 0 -53 28q-16 24 -16 59q0 97 85 162q8 5 22 15zM281 727l1 -11q-6 -4 -18 -14q-40 -40 -40 -94q0 -12 2 -24q10 2 15 2
q26 0 44.5 -17.5t18.5 -43.5q0 -25 -18.5 -43.5t-43.5 -18.5q-33 0 -53 28q-16 24 -16 59q0 109 108 177z" />
    <glyph glyph-name="quotedblright" unicode="&#x201d;" horiz-adv-x="332" 
d="M42 463l-1 10q10 7 17 15q41 40 41 95q0 11 -2 22q-10 -2 -15 -2q-25 0 -44 18t-19 43t18 44t44 19q33 0 51 -26.5t18 -60.5q0 -96 -86 -162zM198 463l-1 10q10 7 17 15q41 41 41 96q0 10 -2 21q-10 -2 -15 -2q-25 0 -44 18t-19 43t18 44t45 19q33 0 50.5 -25.5
t17.5 -59.5q0 -98 -86 -164z" />
    <glyph glyph-name="quoteleft" unicode="&#x2018;" horiz-adv-x="176" 
d="M124 727l2 -11q-6 -4 -18 -14q-40 -40 -40 -94q0 -12 2 -24q10 2 15 2q9 0 23 -4q40 -16 40 -57q0 -25 -18.5 -43.5t-43.5 -18.5q-33 0 -53 28q-16 24 -16 59q0 97 85 162q8 5 22 15z" />
    <glyph glyph-name="quoteright" unicode="&#x2019;" horiz-adv-x="176" 
d="M42 463l-1 10q10 7 17 15q41 40 41 95q0 11 -2 22q-10 -2 -15 -2q-25 0 -44 18t-19 43t18 44t44 19q33 0 51 -26.5t18 -60.5q0 -96 -86 -162z" />
    <glyph glyph-name="fraction" unicode="&#x2044;" horiz-adv-x="189" 
d="M-47 0l244 726h49l-245 -726h-48z" />
    <glyph glyph-name="currency" unicode="&#xa4;" horiz-adv-x="458" 
d="M47 213l62 61q-29 39 -29 88q0 47 28 86l-60 58q12 18 31 35l62 -62q39 29 88 29q48 0 87 -28l61 62q27 -21 34 -36l-62 -58q28 -38 28 -86q0 -49 -29 -89l62 -62l-7 -8l-8 -7q-6 -6 -19 -17l-60 62q-39 -29 -87 -29q-49 0 -87 29l-63 -61q-17 12 -32 33zM129 360
q0 -41 29.5 -70t70.5 -29t70 29t29 70t-29 70t-70 29t-70.5 -29t-29.5 -70z" />
    <glyph glyph-name="guilsinglleft" unicode="&#x2039;" horiz-adv-x="215" 
d="M19 251l94 187h83l-109 -188l107 -186h-81z" />
    <glyph glyph-name="guilsinglright" unicode="&#x203a;" horiz-adv-x="215" 
d="M19 64l109 188l-107 186h81l94 -186l-94 -188h-83z" />
    <glyph glyph-name="fi" unicode="&#xf001;" horiz-adv-x="503" 
d="M89 456l58 58l105 -105l104 104l58 -58l-104 -105l104 -104l-57 -57l-105 104l-104 -105l-58 59l104 104z" />
    <glyph glyph-name="fl" unicode="&#xf002;" horiz-adv-x="352" 
d="M46 10q8 0 12 1q58 8 58 98l-1 424q0 74 -13.5 103t-43.5 33h-8l1 10q97 6 180 53v-623q0 -99 69 -99v-10h-254v10z" />
    <glyph glyph-name="daggerdbl" unicode="&#x2021;" horiz-adv-x="673" 
d="M20 219v29l74 51l227 -50l-56 101l56 102l-228 -52l-73 51v29l74 52l227 -51l-57 212l57 71h31l57 -71l-57 -212l227 51l74 -52v-29l-73 -51l-228 52l56 -103l-56 -100l227 50l74 -51v-29l-73 -51l-228 51l57 -144l-56 -309h-33l-56 309l57 144l-228 -51z" />
    <glyph glyph-name="periodcentered" horiz-adv-x="186" 
d="M31 255q0 25 18 43t44 18t44 -18t18 -43t-18.5 -43.5t-44.5 -18.5q-25 0 -43 18t-18 44z" />
    <glyph glyph-name="quotesinglbase" unicode="&#x201a;" horiz-adv-x="176" 
d="M42 -142l-1 11q58 39 58 111q0 10 -2 21q-10 -2 -15 -2q-26 0 -44.5 17.5t-18.5 43.5q0 23 18 42.5t45 19.5q32 0 51 -28q17 -24 17 -58q0 -97 -86 -163q-9 -7 -22 -15z" />
    <glyph glyph-name="quotedblbase" unicode="&#x201e;" horiz-adv-x="332" 
d="M42 -142l-1 11q58 39 58 111q0 10 -2 21q-10 -2 -15 -2q-26 0 -44.5 17.5t-18.5 43.5q0 23 18 42.5t45 19.5q32 0 51 -28q17 -24 17 -58q0 -97 -86 -163q-9 -7 -22 -15zM198 -142l-1 11q58 39 58 111q0 10 -2 21q-10 -2 -15 -2q-26 0 -44.5 17.5t-18.5 43.5q0 25 18 44
t44 19q33 0 52 -27q16 -24 16 -59q0 -98 -85 -164q-9 -7 -22 -15z" />
    <glyph glyph-name="perthousand" unicode="&#x2030;" horiz-adv-x="965" 
d="M20 559q0 45 21 87q23 46 60 66q31 17 65 17q65 0 107 -54q40 -50 40 -116q0 -15 -3 -31q-12 -60 -47 -97q-39 -41 -97 -41q-34 0 -65 17q-60 32 -78 121q-3 15 -3 31zM102 559q0 -22 1 -36q9 -124 65 -124q37 0 53 60q6 23 9 64q3 37 0 73q-3 41 -9 64q-16 60 -53 60
q-56 0 -65 -124q-1 -14 -1 -37zM119 0l347 730h42l-349 -730h-40zM312 170q0 16 3 31q12 60 47 97q39 41 97 41q56 0 96 -41q35 -38 47 -97q6 -32 0 -63q-12 -60 -47 -97q-39 -41 -97 -41q-64 0 -107 54q-39 50 -39 116zM394 170q0 -23 1 -37q9 -124 65 -124q37 0 53 60
q6 23 9 64q1 18 1 37q0 18 -1 36q-3 41 -9 64q-16 60 -53 60q-56 0 -65 -125q-1 -14 -1 -35zM651 170q0 16 3 31q12 59 49.5 98.5t94.5 39.5t96 -41q36 -38 48 -97q6 -29 -1 -63q-22 -108 -108 -133q-35 -10 -71 0q-51 14 -82 64q-29 45 -29 101zM733 170q0 -20 1 -37
q7 -124 65 -124q38 0 54 60q5 18 8 64q1 18 1 36q0 19 -1 37q-3 44 -8 64q-15 60 -54 60q-57 0 -65 -125q-1 -17 -1 -35z" />
    <glyph glyph-name="dotlessi" unicode="&#x131;" horiz-adv-x="248" 
d="M22 10q28 3 42 29q8 15 8 50l-2 312q-3 71 -41 78h-6v10q35 3 84 10q19 3 70 14v-424q0 -32 8 -50q15 -26 41 -29v-10h-204v10z" />
    <glyph glyph-name="circumflex" unicode="&#x2c6;" horiz-adv-x="266" 
d="M-3 548l107 160h65l100 -160h-73l-62 108l-63 -108h-74z" />
    <glyph glyph-name="tilde" unicode="&#x2dc;" horiz-adv-x="308" 
d="M-1 568q22 88 82 88q17 0 40 -5h2l55 -18q42 -14 78 -14q44 0 52 29l5 -2l-3 -10l-4 -12q-2 -7 -7 -15q-26 -55 -74 -55q-17 0 -38 5l-27 7l-18 5l-46 14l-23 6l-18 5q-27 7 -41 -10q-8 -8 -8 -18h-7z" />
    <glyph glyph-name="macron" unicode="&#xaf;" horiz-adv-x="319" 
d="M20 569l46 65h233l-46 -65h-233z" />
    <glyph glyph-name="macron" unicode="&#x2c9;" horiz-adv-x="319" 
d="M20 569l46 65h233l-46 -65h-233z" />
    <glyph glyph-name="breve" unicode="&#x2d8;" horiz-adv-x="300" 
d="M20 710h50q-2 -9 -2 -19q0 -33 23.5 -57.5t57.5 -24.5q35 0 59 24t24 58q0 9 -2 18h50q3 -13 3 -27q0 -48 -31 -85.5t-79 -47.5q-9 -2 -27 -2q-54 -1 -92 37.5t-38 91.5q0 17 4 34z" />
    <glyph glyph-name="dotaccent" unicode="&#x2d9;" 
 />
    <glyph glyph-name="ring" unicode="&#x2da;" horiz-adv-x="202" 
d="M20 624q0 34 23.5 57.5t56.5 23.5q34 0 58 -24t24 -57q0 -34 -24 -58t-57 -24t-57 24.5t-24 57.5zM49 623q1 -22 15.5 -36.5t36.5 -14.5q21 0 36 15t15 37q0 21 -14.5 36.5t-36.5 15.5t-37.5 -15.5t-14.5 -37.5z" />
    <glyph glyph-name="cedilla" unicode="&#xb8;" horiz-adv-x="163" 
d="M43 -183l2 8q5 -1 14 0q23 3 41.5 18.5t18.5 37.5q0 28 -28 36q-11 3 -19 3q-8 -1 -18 -3v84h24v-44q3 1 13 1q33 1 57 -13q28 -17 28 -49q0 -29 -26 -52q-28 -26 -92 -27q-7 -2 -15 0z" />
    <glyph glyph-name="hungarumlaut" unicode="&#x2dd;" 
 />
    <glyph glyph-name="ogonek" unicode="&#x2db;" 
 />
    <glyph glyph-name="caron" unicode="&#x2c7;" horiz-adv-x="266" 
d="M-3 710h73l61 -108l64 107h74l-108 -160h-65z" />
    <glyph glyph-name="Lslash" unicode="&#x141;" 
 />
    <glyph glyph-name="lslash" unicode="&#x142;" 
 />
    <glyph glyph-name="Eth" unicode="&#xd0;" 
 />
    <glyph glyph-name="eth" unicode="&#xf0;" 
 />
    <glyph glyph-name="Scaron" unicode="&#x160;" 
 />
    <glyph glyph-name="scaron" unicode="&#x161;" 
 />
    <glyph glyph-name="Yacute" unicode="&#xdd;" horiz-adv-x="525" 
d="M-38 710v10h266v-10h-13q-44 -6 -44 -44q0 -21 14 -55l118 -288l120 288q13 31 13 51q0 42 -56 48h-14v10h200v-10q-63 0 -106 -99l-142 -326v-176q0 -99 67 -99v-10h-251v10q68 0 68 99v174l-145 328q-43 97 -95 99zM301 741l59 121h106l-147 -121h-18z" />
    <glyph glyph-name="yacute" unicode="&#xfd;" horiz-adv-x="534" 
d="M20 492v12h155v-365q0 -108 79 -108q52 0 82 29t30 80v274q0 73 -48 78v12h154v-474q0 -236 -191 -236q-66 0 -110 26q-79 46 -89 127h10q10 -47 57 -71q40 -20 92 -18q126 5 126 156v60q-31 -38 -77 -62.5t-93 -24.5q-51 0 -88 31.5t-39 81.5q-1 23 -1 44v270
q0 73 -49 78zM247 534l59 121h106l-147 -121h-18z" />
    <glyph glyph-name="HT" 
 />
    <glyph glyph-name="LF" 
 />
    <glyph glyph-name="Thorn" unicode="&#xde;" 
 />
    <glyph glyph-name="thorn" unicode="&#xfe;" 
 />
    <glyph glyph-name="nonmarkingreturn" 
 />
    <glyph glyph-name="Zcaron" unicode="&#x17d;" 
 />
    <glyph glyph-name="zcaron" unicode="&#x17e;" 
 />
    <glyph glyph-name="DLE" 
 />
    <glyph glyph-name="DC1" 
 />
    <glyph glyph-name="DC2" 
 />
    <glyph glyph-name="DC3" 
 />
    <glyph glyph-name="DC4" 
 />
    <glyph glyph-name="onehalf" unicode="&#xbd;" 
 />
    <glyph glyph-name="onequarter" unicode="&#xbc;" 
 />
    <glyph glyph-name="onesuperior" unicode="&#xb9;" 
 />
    <glyph glyph-name="threequarters" unicode="&#xbe;" 
 />
    <glyph glyph-name="threesuperior" unicode="&#xb3;" 
 />
    <glyph glyph-name="twosuperior" unicode="&#xb2;" 
 />
    <glyph glyph-name="brokenbar" unicode="&#xa6;" 
 />
    <glyph glyph-name="minus" unicode="&#x2212;" 
 />
    <glyph glyph-name="multiply" unicode="&#xd7;" 
 />
    <glyph glyph-name="RS" 
 />
    <glyph glyph-name="US" 
 />
    <glyph glyph-name="DEL" 
 />
    <glyph glyph-name="Adieresis" unicode="&#xc4;" horiz-adv-x="581" 
d="M-39 10q74 -2 111 99l227 625l218 -625q35 -101 103 -99v-10h-294v10h15q57 7 57 56q0 18 -7 43l-36 122h-201l-40 -122q-8 -26 -8 -45q0 -47 55 -54h15v-10h-215v10zM165 259h182l-91 283zM138 799q0 23 17 39.5t41 17.5q23 0 41 -17.5t18 -40.5q0 -25 -17.5 -41.5
t-41.5 -16.5t-41 17.5t-17 41.5zM344 799q0 24 17.5 40.5t42.5 16.5q23 0 40 -17.5t17 -40.5q0 -24 -16.5 -41t-41.5 -17t-42 17t-17 42z" />
    <glyph glyph-name="Aring" unicode="&#xc5;" horiz-adv-x="581" 
d="M-39 10q74 -2 111 99l217 597q-34 5 -56 32t-21 62t26 60t60 25t60 -25t26 -61q1 -34 -20.5 -60t-53.5 -32l207 -598q35 -101 103 -99v-10h-294v10h15q57 7 57 56q0 18 -7 43l-36 122h-201l-40 -122q-9 -26 -9 -45q0 -47 56 -54h15v-10h-215v10zM165 259h182l-91 283z
M242 799q0 -23 16.5 -39t39.5 -16q22 0 38.5 16.5t16.5 38.5t-16 39t-39 17q-22 0 -39 -16t-17 -40z" />
    <glyph glyph-name="Ccedilla" unicode="&#xc7;" horiz-adv-x="599" 
d="M536 732h12v-226h-12q0 76 -43 133q-53 70 -135 70q-74 0 -120 -59q-78 -100 -74 -291q2 -90 23 -154q10 -30 27 -58q56 -94 160 -94q81 0 133 62q41 49 48 113h11q0 -10 -1 -15q-11 -108 -73.5 -167.5t-162.5 -59.5h-14v-44q5 1 13 2q35 1 62 -16t27 -47q0 -29 -27 -52
q-29 -26 -96 -28h-16l2 8q10 0 15 1q23 2 42.5 18t19.5 38q0 28 -29 37q-12 2 -20 2q-10 0 -18 -3v84q-116 14 -184 109q-72 101 -68 262q4 179 87 278q79 94 208 94q57 0 118 -19l32 -10q11 -3 20 -3q37 0 33 35z" />
    <glyph glyph-name="Eacute" unicode="&#xc9;" horiz-adv-x="514" 
d="M15 710v10h440v-174h-10q-16 145 -195 145h-50v-304h44q111 0 138 76q7 20 7 34l11 1v-246h-11q-2 8 -2 12q-21 95 -142 95h-45v-330h74q163 0 191 134q3 14 3 26h11v-189h-463v10q8 0 12 1q57 8 57 98v502q0 99 -70 99zM241 761l59 121h106l-147 -121h-18z" />
    <glyph glyph-name="Ntilde" unicode="&#xd1;" horiz-adv-x="611" 
d="M15 10q8 0 12 1q57 8 57 98v502q0 79 -45 95q-11 4 -23 4v10h171l312 -496v387q0 90 -55 98q-4 1 -12 1v10h164v-10q-13 0 -24 -4q-44 -15 -44 -95v-626l-416 642v-518q0 -90 55 -98q3 -1 11 -1v-10h-163v10zM150 787q22 88 82 88q17 0 40 -5h2l55 -18q42 -14 78 -14
q44 0 52 29l5 -2l-3 -10l-4 -12q-2 -7 -7 -15q-26 -55 -74 -55q-17 0 -38 5l-27 7l-18 5l-46 14l-23 6l-18 5q-27 7 -41 -10q-8 -8 -8 -18h-7z" />
    <glyph glyph-name="Odieresis" unicode="&#xd6;" horiz-adv-x="680" 
d="M38 364q0 39 5 77q19 144 97 220t200 76q133 0 215 -96q86 -101 87 -277q1 -162 -72 -261q-68 -95 -185 -110q-23 -3 -46 -3q-133 0 -215 97q-86 101 -86 277zM154 506q-3 -67 16 -163q47 -235 124 -293q38 -29 83 -29q42 0 77 24.5t52 66.5q22 55 22 126q0 92 -35 227
q-42 164 -106 212q-38 29 -85 29q-41 0 -76 -24t-51 -66q-18 -48 -21 -110zM139 799q0 23 17 39.5t41 17.5t41.5 -17t17.5 -42q0 -23 -17 -40t-42 -17q-24 0 -41 17.5t-17 41.5zM428 799q0 24 17.5 40.5t42.5 16.5q22 0 39.5 -17.5t17.5 -41.5q0 -23 -17 -40t-41 -17
q-25 0 -42 17t-17 42z" />
    <glyph glyph-name="Udieresis" unicode="&#xdc;" horiz-adv-x="559" 
d="M11 710v10h252v-10q-33 0 -49.5 -24.5t-16.5 -74.5v-449q0 -63 24.5 -93.5t78.5 -37.5q14 -2 28 -2q126 0 126 146v436q0 90 -58 98q-4 1 -12 1v10h164v-10q-8 0 -12 -1q-54 -8 -54 -98v-439q0 -84 -38 -128t-120 -56q-37 -5 -74 -1q-93 11 -131.5 54.5t-38.5 135.5v434
q0 90 -57 98q-4 1 -12 1zM156 799q0 23 17 40t40 17q24 1 42 -16.5t18 -42.5q0 -23 -17 -40t-42 -17q-24 0 -41 17.5t-17 41.5zM362 799q0 24 17.5 40.5t41.5 16.5q23 0 40.5 -17.5t17.5 -40.5q0 -24 -16.5 -41t-41.5 -17t-42 17t-17 42z" />
    <glyph glyph-name="aacute" unicode="&#xe1;" horiz-adv-x="479" 
d="M77 382h-9q3 9 9 22q51 107 180 110q13 0 32 -2q69 -8 96 -44q23 -32 23 -105l-1 -284l3 -16q0 -7 3 -13q4 -19 25 -10q17 8 21 41l1 9v3h11q0 -11 -1 -16q-9 -91 -90 -86q-35 2 -58 24t-19 57q-4 -6 -12 -20q-43 -61 -121 -62q-15 0 -25 1q-106 13 -110 139t100 152
l60 15q108 27 108 71q0 85 -92 85q-14 0 -25 -1q-71 -7 -109 -70zM302 326q-17 -15 -46 -25l-17 -6l-16 -6q-47 -18 -62 -41q-12 -19 -16 -74q-2 -23 -1 -35q3 -50 11 -68q13 -29 53 -36q18 -3 31 0q63 14 63 92v199zM257 564l59 121h106l-147 -121h-18z" />
    <glyph glyph-name="agrave" unicode="&#xe0;" horiz-adv-x="479" 
d="M77 382h-9q3 9 9 22q51 107 180 110q13 0 32 -2q69 -8 96 -44q23 -32 23 -105l-1 -284l3 -16q0 -7 3 -13q4 -19 25 -10q17 8 21 41l1 9v3h11q0 -11 -1 -16q-9 -91 -90 -86q-35 2 -58 24t-19 57q-4 -6 -12 -20q-43 -61 -121 -62q-15 0 -25 1q-106 13 -110 139t100 152
l60 15q108 27 108 71q0 85 -92 85q-14 0 -25 -1q-71 -7 -109 -70zM302 326q-17 -15 -46 -25l-17 -6l-16 -6q-47 -18 -62 -41q-12 -19 -16 -74q-2 -23 -1 -35q3 -50 11 -68q13 -29 53 -36q18 -3 31 0q63 14 63 92v199zM275 563l-59 121h-106l147 -121h18z" />
    <glyph glyph-name="acircumflex" unicode="&#xe2;" horiz-adv-x="479" 
d="M77 382h-9q3 9 9 22q51 107 180 110q13 0 32 -2q69 -8 96 -44q23 -32 23 -105l-1 -284l3 -16q0 -7 3 -13q4 -19 25 -10q17 8 21 41l1 9v3h11q0 -11 -1 -16q-9 -91 -90 -86q-35 2 -58 24t-19 57q-4 -6 -12 -20q-43 -61 -121 -62q-15 0 -25 1q-106 13 -110 139t100 152
l60 15q108 27 108 71q0 85 -92 85q-14 0 -25 -1q-71 -7 -109 -70zM302 326q-17 -15 -46 -25l-17 -6l-16 -6q-47 -18 -62 -41q-12 -19 -16 -74q-2 -23 -1 -35q3 -50 11 -68q13 -29 53 -36q18 -3 31 0q63 14 63 92v199zM167 535l90 139l30 -10l82 -129h-65l-47 79l-54 -79h-36
z" />
    <glyph glyph-name="adieresis" unicode="&#xe4;" horiz-adv-x="479" 
d="M77 382h-9l9 22q51 107 180 110q13 0 32 -2q67 -8 93 -40.5t26 -108.5l2 -300q0 -13 7.5 -20.5t20.5 -2.5q17 7 21 41l1 9v3h11q0 -11 -1 -16q-9 -91 -90 -86q-35 2 -58.5 25t-18.5 56q-4 -6 -12 -20q-43 -61 -121 -62q-15 0 -25 1q-106 13 -110 139t100 152l60 15l27 7
q81 22 81 64q0 85 -92 85q-12 0 -25 -1q-71 -7 -109 -70zM302 326q-16 -14 -46 -25l-17 -6l-16 -6q-46 -17 -60 -37.5t-18 -77.5q-2 -22 -1 -35q3 -57 15.5 -77.5t48.5 -26.5q18 -3 31 0q63 14 63 92v199zM104 604q0 21 15.5 36t36.5 16q22 1 38 -14.5t16 -37.5t-15.5 -37.5
t-38.5 -15.5q-22 0 -37 15.5t-15 37.5zM291 603q0 22 15.5 37.5t37.5 15.5t37.5 -15.5t15.5 -36.5q0 -22 -15.5 -37.5t-37.5 -15.5t-37.5 15t-15.5 37z" />
    <glyph glyph-name="atilde" unicode="&#xe3;" horiz-adv-x="479" 
d="M77 382h-9q3 9 9 22q51 107 180 110q13 0 32 -2q69 -8 96 -44q23 -32 23 -105l-1 -284l3 -16q0 -7 3 -13q4 -19 25 -10q17 8 21 41l1 9v3h11q0 -11 -1 -16q-9 -91 -90 -86q-35 2 -58 24t-19 57q-4 -6 -12 -20q-43 -61 -121 -62q-15 0 -25 1q-106 13 -110 139t100 152
l60 15q108 27 108 71q0 85 -92 85q-14 0 -25 -1q-71 -7 -109 -70zM302 326q-17 -15 -46 -25l-17 -6l-16 -6q-47 -18 -62 -41q-12 -19 -16 -74q-2 -23 -1 -35q3 -50 11 -68q13 -29 53 -36q18 -3 31 0q63 14 63 92v199zM146 578q7 32 23 57q22 33 49 33q16 0 30 -12l33 -28
l9 -5q11 -6 21.5 1t13.5 19q1 2 2 5l32 3q-19 -89 -72 -89q-16 0 -30 12l-33 28l-9 5q-11 6 -21.5 -1t-13.5 -19q0 -2 -1 -5z" />
    <glyph glyph-name="aring" unicode="&#xe5;" horiz-adv-x="479" 
d="M77 382h-9l9 22q51 107 180 110q13 0 32 -2q67 -8 93 -40.5t26 -108.5l-1 -284l3 -16q0 -7 3 -13q4 -19 25 -10q17 8 21 41l1 9v3h11q0 -11 -1 -16q-9 -91 -90 -86q-38 2 -59.5 25.5t-17.5 55.5q-4 -6 -12 -20q-43 -61 -121 -62q-15 0 -25 1q-106 13 -110 139t100 152
l60 15l27 7q81 22 81 64q0 85 -92 85q-12 0 -25 -1q-71 -7 -109 -70zM302 326q-16 -14 -46 -25l-17 -6l-16 -6q-46 -17 -60 -37.5t-18 -77.5q-2 -22 -1 -35q3 -57 15.5 -77.5t48.5 -26.5q18 -3 31 0q63 14 63 92v199zM176 624q0 34 23.5 57.5t56.5 23.5q34 0 58 -24t24 -57
q0 -34 -23.5 -58t-57.5 -24q-33 0 -57 24t-24 58zM205 623q1 -22 15.5 -36.5t36.5 -14.5q21 0 36 15t15 37q0 21 -14.5 36.5t-36.5 15.5t-37.5 -15.5t-14.5 -37.5z" />
    <glyph glyph-name="ccedilla" unicode="&#xe7;" horiz-adv-x="460" 
d="M428 363q-51 -12 -85 -31v9q1 6 1 9q1 71 -26 116q-21 35 -59 35q-62 0 -89 -99q-19 -69 -17 -146q1 -18 3 -37q6 -49 16 -73q34 -83 117 -83q40 0 74 24q43 31 53 84l3 21l11 -1q0 -13 -3 -31q-13 -76 -61.5 -120t-121.5 -50l-13 -1h-3v-43q2 0 6.5 0.5t6.5 1.5
q32 1 56 -14q28 -17 28 -48q0 -29 -25 -52q-30 -27 -92 -28h-15l2 8h14q23 3 41.5 18.5t18.5 37.5q0 28 -28 37q-14 2 -19 2l-18 -3v83q-148 49 -164 212q-2 21 -2 43q1 121 66 198q61 72 149 72q18 0 35 -3q116 -22 138 -131q2 -10 2 -17z" />
    <glyph glyph-name="eacute" unicode="&#xe9;" horiz-adv-x="497" 
d="M462 277h-308q-2 -13 -1 -28q7 -145 109 -177q22 -7 46 -7q56 0 96 38q37 35 48 92l10 -1q0 -11 -3 -31q-12 -78 -66.5 -126t-132.5 -48q-22 0 -47 5q-93 18 -139 100q-40 71 -36 172q4 104 62 174q63 77 164 77q63 0 112.5 -35t70.5 -94q18 -52 15 -111zM154 298h198v21
q0 184 -90 184t-107 -178v-13q-1 -9 -1 -14zM257 564l59 121h106l-147 -121h-18z" />
    <glyph glyph-name="egrave" unicode="&#xe8;" horiz-adv-x="497" 
d="M462 277h-308q-2 -13 -1 -28q7 -145 109 -177q22 -7 46 -7q56 0 96 38q37 35 48 92l10 -1q0 -11 -3 -31q-12 -78 -66.5 -126t-132.5 -48q-22 0 -47 5q-93 18 -139 100q-40 71 -36 172q4 104 62 174q63 77 164 77q63 0 112.5 -35t70.5 -94q18 -52 15 -111zM154 298h198v21
q0 184 -90 184t-107 -178v-13q-1 -9 -1 -14zM265 563l-59 121h-106l147 -121h18z" />
    <glyph glyph-name="ecircumflex" unicode="&#xea;" horiz-adv-x="497" 
d="M462 277h-308q-2 -13 -1 -28q7 -145 109 -177q22 -7 46 -7q56 0 96 38q37 35 48 92l10 -1q0 -11 -3 -31q-12 -78 -66.5 -126t-132.5 -48q-22 0 -47 5q-93 18 -139 100q-40 71 -36 172q4 104 62 174q63 77 164 77q63 0 112.5 -35t70.5 -94q18 -52 15 -111zM154 298h198v21
q0 184 -90 184t-107 -178v-13q-1 -9 -1 -14zM177 535l90 139l30 -10l82 -129h-65l-47 79l-54 -79h-36z" />
    <glyph glyph-name="edieresis" unicode="&#xeb;" horiz-adv-x="497" 
d="M462 277h-308q-2 -15 -1 -28q7 -145 109 -177q23 -7 46 -7q56 0 96 38q37 36 48 92l10 -1q0 -11 -3 -31q-12 -78 -67 -126t-132 -48q-23 0 -47 5q-83 16 -130 86q-49 74 -45 186q4 114 65 178q69 73 161 73q61 0 111.5 -34.5t71.5 -94.5q18 -52 15 -111zM154 298h198v21
q0 109 -29 152q-22 32 -61 32q-90 0 -107 -178v-13q-1 -9 -1 -14zM102 605q0 22 15 37t37 15q23 0 38.5 -15t15.5 -37q0 -21 -16.5 -37t-37.5 -16q-22 1 -37 16.5t-15 36.5zM289 605q0 22 15.5 37t37.5 15q21 0 37 -16t16 -37t-16 -36.5t-37 -15.5q-22 -1 -37.5 15t-15.5 38
z" />
    <glyph glyph-name="iacute" unicode="&#xed;" horiz-adv-x="248" 
d="M22 10q28 3 42 29q8 15 8 50l-2 312q0 71 -41 78h-6v10q38 3 84 10q16 2 70 14v-424q0 -32 8 -50q15 -26 41 -29v-10h-204v10zM98 549l59 121h106l-147 -121h-18z" />
    <glyph glyph-name="igrave" unicode="&#xec;" horiz-adv-x="248" 
d="M22 10q28 3 42 29q8 15 8 50l-2 312q0 71 -41 78h-6v10q38 3 84 10q16 2 70 14v-424q0 -32 8 -50q15 -26 41 -29v-10h-204v10zM105 549l-59 121h-106l147 -121h18z" />
    <glyph glyph-name="icircumflex" unicode="&#xee;" horiz-adv-x="248" 
d="M22 10q28 3 42 29q8 15 8 50l-2 312q-3 71 -41 78h-6v10q35 3 84 10q19 3 70 14v-424q0 -32 8 -50q15 -26 41 -29v-10h-204v10zM-12 548l107 160h65l100 -160h-73l-62 108l-63 -108h-74z" />
    <glyph glyph-name="idieresis" unicode="&#xef;" horiz-adv-x="248" 
d="M22 10q28 3 42 29q8 15 8 50l-2 312q-3 71 -41 78h-6v10q35 3 84 10q19 3 70 14v-424q0 -32 8 -50q15 -26 41 -29v-10h-204v10zM-22 605q0 22 15 37t37 15q23 0 38.5 -15t15.5 -37q0 -21 -16.5 -37t-37.5 -16q-22 1 -37 16.5t-15 36.5zM165 605q0 22 15.5 37t37.5 15
q21 0 37 -16t16 -37t-16 -36.5t-37 -15.5q-22 -1 -37.5 15t-15.5 38z" />
    <glyph glyph-name="ntilde" unicode="&#xf1;" horiz-adv-x="547" 
d="M22 0v10q50 5 50 79l-2 312q-2 71 -41 78h-6v10q77 5 157 24v-84q10 14 20 21q67 65 156 65q122 0 122 -144v-282q0 -74 49 -79v-10h-197l-1 10q3 1 7 2q35 13 35 77v285q0 85 -75 93q-19 2 -41 -4q-76 -21 -76 -97v-277q0 -64 34 -77q1 0 3 -0.5t3 -1.5v-10h-197z
M118 568q22 88 82 88q17 0 40 -5h2l55 -18q42 -14 78 -14q44 0 52 29l5 -2l-3 -10l-4 -12q-2 -7 -7 -15q-26 -55 -74 -55q-17 0 -38 5l-27 7l-18 5l-46 14l-23 6l-18 5q-27 7 -41 -10q-8 -8 -8 -18h-7z" />
    <glyph glyph-name="oacute" unicode="&#xf3;" horiz-adv-x="532" 
d="M38 251q0 114 56 186q61 78 172 78q94 0 154 -59q57 -56 70 -151q4 -29 4 -61q0 -110 -58 -181q-62 -76 -170 -76q-111 0 -172 79q-56 71 -56 185zM139 353q-1 -46 12 -115q44 -224 134 -233q107 -11 107 149q0 71 -24 168q-42 170 -120 176q-104 9 -109 -145zM257 564
l59 121h106l-147 -121h-18z" />
    <glyph glyph-name="ograve" unicode="&#xf2;" horiz-adv-x="532" 
d="M38 251q0 114 56 186q61 78 172 78q94 0 154 -59q57 -56 70 -151q4 -29 4 -61q0 -110 -58 -181q-62 -76 -170 -76q-111 0 -172 79q-56 71 -56 185zM139 353q-1 -46 12 -115q44 -224 134 -233q107 -11 107 149q0 71 -24 168q-42 170 -120 176q-104 9 -109 -145zM265 563
l-59 121h-106l147 -121h18z" />
    <glyph glyph-name="ocircumflex" unicode="&#xf4;" horiz-adv-x="532" 
d="M38 251q0 114 56 186q61 78 172 78q94 0 154 -59q57 -56 70 -151q4 -29 4 -61q0 -110 -58 -181q-62 -76 -170 -76q-111 0 -172 79q-56 71 -56 185zM139 353q-1 -46 12 -115q44 -224 134 -233q107 -11 107 149q0 71 -24 168q-42 170 -120 176q-104 9 -109 -145zM177 535
l90 139l30 -10l82 -129h-65l-47 79l-54 -79h-36z" />
    <glyph glyph-name="odieresis" unicode="&#xf6;" horiz-adv-x="532" 
d="M38 251q0 123 64 195q62 69 164 69q90 0 150 -55t74 -155q4 -31 4 -61q0 -118 -64 -187.5t-164 -69.5q-102 0 -165 70.5t-63 193.5zM139 353q-1 -46 12 -115q44 -224 134 -233q48 -5 77.5 31.5t29.5 117.5q0 70 -24 168q-42 170 -120 176q-104 9 -109 -145zM120 604
q0 21 15 36t37 16t38 -14.5t16 -37.5t-15.5 -37.5t-38.5 -15.5q-22 0 -37 15.5t-15 37.5zM306 603q0 22 15.5 37.5t38.5 15.5q21 0 37 -16t16 -37q0 -22 -15.5 -37t-37.5 -15t-38 15t-16 37z" />
    <glyph glyph-name="otilde" unicode="&#xf5;" horiz-adv-x="532" 
d="M38 251q0 114 56 186q61 78 172 78q94 0 154 -59q57 -56 70 -151q4 -29 4 -61q0 -110 -58 -181q-62 -76 -170 -76q-111 0 -172 79q-56 71 -56 185zM139 353q-1 -46 12 -115q44 -224 134 -233q107 -11 107 149q0 71 -24 168q-42 170 -120 176q-104 9 -109 -145zM156 578
q7 32 23 57q22 33 49 33q16 0 30 -12l33 -28l9 -5q11 -6 21.5 1t13.5 19q1 2 2 5l32 3q-19 -89 -72 -89q-16 0 -30 12l-33 28l-9 5q-11 6 -21.5 -1t-13.5 -19q0 -2 -1 -5z" />
    <glyph glyph-name="uacute" unicode="&#xfa;" horiz-adv-x="546" 
d="M22 492v12h154v-379q0 -94 81 -94q78 0 103 57q8 18 8 53v273q0 73 -48 78l1 12h152v-415q0 -77 51 -79v-10h-156v71l-16 -16q-69 -66 -158 -66q-61 0 -92.5 36t-31.5 98v291q0 73 -48 78zM247 534l59 121h106l-147 -121h-18z" />
    <glyph glyph-name="ugrave" unicode="&#xf9;" horiz-adv-x="546" 
d="M22 492v12h154v-379q0 -94 81 -94q78 0 103 57q8 18 8 53v273q0 73 -48 78l1 12h152v-415q0 -77 51 -79v-10h-156v71l-16 -16q-69 -66 -158 -66q-61 0 -92.5 36t-31.5 98v291q0 73 -48 78zM265 533l-59 121h-106l147 -121h18z" />
    <glyph glyph-name="ucircumflex" unicode="&#xfb;" horiz-adv-x="546" 
d="M22 492v12h154v-379q0 -94 81 -94q42 0 68 18t35 39q8 18 8 53v273q0 73 -48 78l1 12h152v-415q0 -43 15 -60.5t36 -18.5v-10h-156v71l-16 -16q-70 -66 -158 -66q-60 0 -92 35.5t-32 98.5v291q0 73 -48 78zM137 548l107 160h65l100 -160h-73l-62 108l-63 -108h-74z" />
    <glyph glyph-name="udieresis" unicode="&#xfc;" horiz-adv-x="543" 
d="M22 492v12h154v-379q0 -94 80 -94q68 0 97 48q12 21 12 62v273q0 73 -47 78v12h152v-415q0 -43 15 -60t36 -19v-10h-156v71q-5 -6 -15 -16q-70 -67 -154 -67q-53 0 -87.5 31t-37.5 79q-1 16 -1 25v291q0 73 -48 78zM122 604q0 21 15 36t37 16t38 -14.5t16 -37.5
t-15.5 -37.5t-38.5 -15.5q-22 0 -37 15.5t-15 37.5zM309 603q0 22 15.5 37.5t37.5 15.5q21 0 37 -16t16 -37q0 -22 -15.5 -37t-37.5 -15t-37.5 15t-15.5 37z" />
    <glyph glyph-name="degree" unicode="&#xb0;" horiz-adv-x="364" 
d="M47 599q0 56 39.5 95.5t95.5 39.5t95.5 -39.5t39.5 -95.5t-39.5 -95.5t-95.5 -39.5t-95.5 39.5t-39.5 95.5zM91 599q0 -37 26.5 -63.5t64.5 -26.5t64.5 26.5t26.5 63.5t-27 64t-64 27t-64 -26.5t-27 -64.5z" />
    <glyph glyph-name="registered" unicode="&#xae;" 
 />
    <glyph glyph-name="copyright" unicode="&#xa9;" horiz-adv-x="840" 
d="M47 361q0 156 109 264.5t264 108.5t264.5 -109t109.5 -264q0 -154 -110 -264t-264 -110t-263.5 109.5t-109.5 264.5zM97 361q0 -136 95 -232t229 -96q133 0 227.5 95.5t94.5 231.5t-94.5 232t-227.5 96q-134 0 -228 -95q-96 -98 -96 -232zM568 566l10 1l8 -137h-10
q-7 53 -44 87.5t-90 34.5q-23 0 -47 -7q-52 -15 -82 -64q-32 -52 -32 -128q0 -86 44 -138.5t114 -55.5q87 -4 142 73q3 4 10 16l8 -4q-55 -110 -178 -110q-26 0 -53 6q-75 17 -121 74.5t-46 133.5q0 32 9 65q20 72 79.5 114t138.5 42q45 0 90 -14l16 -5l7 -2q19 -6 26 14
q0 1 1 2v2z" />
    <glyph glyph-name="trademark" unicode="&#x2122;" horiz-adv-x="885" 
d="M47 626l6 94h312l6 -94h-8q0 5 -2 15q-7 33 -23.5 45t-55.5 12h-41v-297q0 -24 17 -30q2 0 5 -2h4l14 -2h5v-7h-155v7h5l8 1l6 1h5q1 1 2.5 1.5t2.5 0.5q17 6 17 30v297l-40 -1q-36 -1 -52 -11q-19 -11 -27 -44q-3 -7 -3 -16h-8zM373 360v7h5l8 1l6 1h5q2 1 5 2
q17 6 17 30v277q0 25 -17 31q-1 1 -4 1l-5 1l-6 1h-13v8h110l122 -271l123 271h109v-8h-13l-8 -1l-4 -1q-1 0 -4 -1q-17 -7 -17 -31v-277q0 -24 17 -30q1 0 2.5 -0.5t2.5 -1.5h4l14 -2h5v-7h-155v7h5l8 1l6 1h5q1 1 2.5 1.5t2.5 0.5q17 6 17 30v259l-135 -300h-17l-135 298
l1 -257q0 -24 16 -30q1 0 2.5 -0.5t2.5 -1.5h4l7 -1l8 -1h5v-7h-114z" />
    <glyph glyph-name="notequal" unicode="&#x2260;" 
 />
    <glyph glyph-name="infinity" unicode="&#x221e;" 
 />
    <glyph glyph-name="plusminus" unicode="&#xb1;" 
 />
    <glyph glyph-name="lessequal" unicode="&#x2264;" 
 />
    <glyph glyph-name="greaterequal" unicode="&#x2265;" 
 />
    <glyph glyph-name="mu" unicode="&#xb5;" 
 />
    <glyph glyph-name="mu" unicode="&#x3bc;" 
 />
    <glyph glyph-name="partialdiff" unicode="&#x2202;" 
 />
    <glyph glyph-name="summation" unicode="&#x2211;" 
 />
    <glyph glyph-name="product" unicode="&#x220f;" 
 />
    <glyph glyph-name="pi" unicode="&#x3c0;" 
 />
    <glyph glyph-name="integral" unicode="&#x222b;" 
 />
    <glyph glyph-name="Omega" unicode="&#x3a9;" 
 />
    <glyph glyph-name="Omega" unicode="&#x2126;" 
 />
    <glyph glyph-name="logicalnot" unicode="&#xac;" horiz-adv-x="580" 
d="M47 360v76h486v-220h-63v144h-423z" />
    <glyph glyph-name="radical" unicode="&#x221a;" 
 />
    <glyph glyph-name="approxequal" unicode="&#x2248;" 
 />
    <glyph glyph-name="approxequal" unicode="&#x22f2;" 
 />
    <glyph glyph-name="Delta" unicode="&#x394;" 
 />
    <glyph glyph-name="Delta" unicode="&#x2206;" 
 />
    <glyph glyph-name="nonbreakingspace" unicode="&#xa0;" 
 />
    <glyph glyph-name="Agrave" unicode="&#xc0;" horiz-adv-x="581" 
d="M165 259h182l-91 283zM-39 10q74 -2 111 99l227 625l218 -625q35 -101 103 -99v-10h-294v10h15q57 7 57 56q0 19 -7 43l-36 122h-201l-40 -122q-8 -24 -8 -45q0 -47 55 -54h15v-10h-215v10zM308 774l-59 121h-106l147 -121h18z" />
    <glyph glyph-name="Atilde" unicode="&#xc3;" horiz-adv-x="581" 
d="M165 259h182l-91 283zM-39 10q74 -2 111 99l227 625l218 -625q35 -101 103 -99v-10h-294v10h15q57 7 57 56q0 19 -7 43l-36 122h-201l-40 -122q-8 -24 -8 -45q0 -47 55 -54h15v-10h-215v10zM198 768q7 32 23 57q22 33 49 33q16 0 30 -12l33 -28l9 -5q11 -6 21.5 1
t13.5 19q1 2 2 5l32 3q-19 -89 -72 -89q-16 0 -30 12l-33 28l-9 5q-11 6 -21.5 -1t-13.5 -19q0 -2 -1 -5z" />
    <glyph glyph-name="Otilde" unicode="&#xd5;" horiz-adv-x="680" 
d="M38 364q0 39 5 77q18 135 89 211q77 85 208 85q149 0 230 -116q71 -100 72 -257q1 -142 -58 -240q-68 -114 -199 -131q-23 -3 -46 -3q-149 0 -230 116q-71 102 -71 258zM154 506q-3 -67 16 -163q47 -235 124 -293q38 -29 83 -29q43 0 78 25t51 66q22 55 22 126
q0 91 -35 227q-42 164 -106 212q-38 29 -85 29q-43 0 -77.5 -25t-49.5 -65q-18 -48 -21 -110zM228 788q7 32 23 57q22 33 49 33q16 0 30 -12l33 -28l9 -5q11 -6 21.5 1t13.5 19q1 2 2 5l32 3q-19 -89 -72 -89q-16 0 -30 12l-33 28l-9 5q-11 6 -21.5 -1t-13.5 -19q0 -2 -1 -5
z" />
    <glyph glyph-name="divide" unicode="&#xf7;" 
 />
    <glyph glyph-name="lozenge" unicode="&#x25ca;" 
 />
    <glyph glyph-name="ydieresis" unicode="&#xff;" horiz-adv-x="534" 
d="M20 492v12h155v-365q0 -108 79 -108q55 0 86 33q26 28 26 76v274q0 73 -48 78v12h154v-474q0 -236 -191 -236q-66 0 -110 26q-79 46 -89 127h10q9 -41 48.5 -66t100.5 -23q126 5 126 156v60q-37 -45 -89 -68q-41 -19 -81 -19q-53 0 -89 32.5t-38 80.5q-1 20 -1 44v270
q0 73 -49 78zM121 605q0 22 15 37t37 15q23 0 38.5 -15t15.5 -37q0 -21 -16.5 -37t-37.5 -16q-22 1 -37 16.5t-15 36.5zM308 605q0 22 15.5 37t37.5 15q21 0 37 -16t16 -37t-16 -36.5t-37 -15.5q-22 -1 -37.5 15t-15.5 38z" />
    <glyph glyph-name="Ydieresis" unicode="&#x178;" horiz-adv-x="525" 
d="M-38 710v10h266v-10h-13q-44 -6 -44 -44q0 -21 14 -55l118 -288l120 288q13 31 13 51q0 42 -56 48h-14v10h200v-10q-63 0 -106 -99l-142 -326v-176q0 -80 43 -95q11 -4 24 -4v-10h-251v10q13 0 24 4q44 15 44 95v174l-145 328q-43 97 -95 99zM116 824q0 22 15 37t37 15
q23 0 38.5 -15t15.5 -37q0 -21 -16.5 -37t-37.5 -16q-22 1 -37 16.5t-15 36.5zM303 824q0 22 15.5 37t37.5 15q21 0 37 -16t16 -37t-16 -36.5t-37 -15.5q-22 -1 -37.5 15t-15.5 38z" />
    <glyph glyph-name="Acircumflex" unicode="&#xc2;" horiz-adv-x="581" 
d="M165 259h182l-91 283zM-39 10q74 -2 111 99l227 625l218 -625q35 -101 103 -99v-10h-294v10h15q57 7 57 56q0 19 -7 43l-36 122h-201l-40 -122q-8 -24 -8 -45q0 -47 55 -54h15v-10h-215v10zM209 725l90 139l30 -10l82 -129h-65l-47 79l-54 -79h-36z" />
    <glyph glyph-name="Ecircumflex" unicode="&#xca;" horiz-adv-x="514" 
d="M15 710v10h440v-174h-10q-16 145 -195 145h-50v-304h44q111 0 138 76q7 20 7 34l11 1v-246h-11q-2 8 -2 12q-21 95 -142 95h-45v-330h74q163 0 191 134q3 14 3 26h11v-189h-463v10q8 0 12 1q57 8 57 98v502q0 99 -70 99zM158 747l91 139l30 -10l82 -129h-65l-47 79
l-55 -79h-36z" />
    <glyph glyph-name="Aacute" unicode="&#xc1;" horiz-adv-x="581" 
d="M165 259h182l-91 283zM-39 10q74 -2 111 99l227 625l218 -625q35 -101 103 -99v-10h-294v10h15q57 7 57 56q0 19 -7 43l-36 122h-201l-40 -122q-8 -24 -8 -45q0 -47 55 -54h15v-10h-215v10zM290 774l59 121h106l-147 -121h-18z" />
    <glyph glyph-name="Edieresis" unicode="&#xcb;" horiz-adv-x="514" 
d="M15 710v10h440v-174h-10q-16 145 -195 145h-50v-304h44q111 0 138 76q7 20 7 34l11 1v-246h-11q-2 8 -2 12q-21 95 -142 95h-45v-330h74q163 0 191 134q1 5 2 13.5t1 12.5h11v-189h-463v10q8 0 12 1q57 8 57 98v502q0 99 -70 99zM111 824q0 22 15 37t37 15q23 0 38.5 -15
t15.5 -37q0 -21 -16.5 -37t-37.5 -16q-22 1 -37 16.5t-15 36.5zM298 824q0 22 15.5 37t37.5 15q21 0 37 -16t16 -37t-16 -36.5t-37 -15.5q-22 -1 -37.5 15t-15.5 38z" />
    <glyph glyph-name="Egrave" unicode="&#xc8;" horiz-adv-x="514" 
d="M15 710v10h440v-174h-10q-16 145 -195 145h-50v-304h44q111 0 138 76q7 20 7 34l11 1v-246h-11q-2 8 -2 12q-21 95 -142 95h-45v-330h74q163 0 191 134q3 14 3 26h11v-189h-463v10q8 0 12 1q57 8 57 98v502q0 99 -70 99zM268 761l-59 121h-106l147 -121h18z" />
    <glyph glyph-name="Iacute" unicode="&#xcd;" horiz-adv-x="284" 
d="M15 10q8 0 12 1q57 8 57 99v501q0 90 -56 98q-4 1 -12 1v10h253v-10q-8 0 -12 -1q-58 -8 -58 -98v-502q0 -90 57 -98q4 -1 12 -1v-10h-253v10zM131 760l59 121h106l-147 -121h-18z" />
    <glyph glyph-name="Icircumflex" unicode="&#xce;" horiz-adv-x="284" 
d="M15 10q8 0 12 1q57 8 57 99v501q0 90 -56 98q-4 1 -12 1v10h253v-10q-8 0 -12 -1q-58 -8 -58 -98v-502q0 -90 57 -98q4 -1 12 -1v-10h-253v10zM6 767l107 160h65l100 -160h-73l-62 108l-63 -108h-74z" />
    <glyph glyph-name="Idieresis" unicode="&#xcf;" horiz-adv-x="284" 
d="M15 10q8 0 12 1q57 8 57 99v501q0 90 -56 98q-4 1 -12 1v10h253v-10q-8 0 -12 -1q-58 -8 -58 -98v-502q0 -90 57 -98q4 -1 12 -1v-10h-253v10zM-4 824q0 22 15 37t37 15q23 0 38.5 -15t15.5 -37q0 -21 -16.5 -37t-37.5 -16q-22 1 -37 16.5t-15 36.5zM183 824
q0 22 15.5 37t37.5 15q21 0 37 -16t16 -37t-16 -36.5t-37 -15.5q-22 -1 -37.5 15t-15.5 38z" />
    <glyph glyph-name="Igrave" unicode="&#xcc;" horiz-adv-x="284" 
d="M15 10q8 0 12 1q57 8 57 99v501q0 90 -56 98q-4 1 -12 1v10h253v-10q-8 0 -12 -1q-58 -8 -58 -98v-502q0 -90 57 -98q4 -1 12 -1v-10h-253v10zM159 760l-59 121h-106l147 -121h18z" />
    <glyph glyph-name="Oacute" unicode="&#xd3;" horiz-adv-x="680" 
d="M38 364q0 39 5 77q18 135 89 211q77 85 208 85q149 0 230 -116q71 -100 72 -257q1 -142 -58 -240q-68 -114 -199 -131q-23 -3 -46 -3q-149 0 -230 116q-71 102 -71 258zM154 506q-3 -67 16 -163q47 -235 124 -293q38 -29 83 -29q43 0 78 25t51 66q22 55 22 126
q0 91 -35 227q-42 164 -106 212q-38 29 -85 29q-43 0 -77.5 -25t-49.5 -65q-18 -48 -21 -110zM331 781l59 121h106l-147 -121h-18z" />
    <glyph glyph-name="Ocircumflex" unicode="&#xd4;" horiz-adv-x="680" 
d="M38 364q0 39 5 77q18 135 89 211q77 85 208 85q149 0 230 -116q71 -100 72 -257q1 -142 -58 -240q-68 -114 -199 -131q-23 -3 -46 -3q-149 0 -230 116q-71 102 -71 258zM154 506q-3 -67 16 -163q47 -235 124 -293q38 -29 83 -29q43 0 78 25t51 66q22 55 22 126
q0 91 -35 227q-42 164 -106 212q-38 29 -85 29q-43 0 -77.5 -25t-49.5 -65q-18 -48 -21 -110zM248 757l91 139l30 -10l82 -129h-65l-47 79l-55 -79h-36z" />
    <glyph glyph-name="apple" unicode="&#xf000;" 
 />
    <glyph glyph-name="Ograve" unicode="&#xd2;" horiz-adv-x="680" 
d="M38 364q0 39 5 77q18 135 89 211q77 85 208 85q149 0 230 -116q71 -100 72 -257q1 -142 -58 -240q-68 -114 -199 -131q-23 -3 -46 -3q-149 0 -230 116q-71 102 -71 258zM154 506q-3 -67 16 -163q47 -235 124 -293q38 -29 83 -29q43 0 78 25t51 66q22 55 22 126
q0 91 -35 227q-42 164 -106 212q-38 29 -85 29q-43 0 -77.5 -25t-49.5 -65q-18 -48 -21 -110zM358 781l-59 121h-106l147 -121h18z" />
    <glyph glyph-name="Uacute" unicode="&#xda;" horiz-adv-x="559" 
d="M11 710v10h252v-10q-66 0 -66 -99v-449q0 -60 22 -90q24 -33 81 -41q15 -2 28 -2q126 0 126 146v436q0 90 -58 98q-4 1 -12 1v10h164v-10q-8 0 -12 -1q-54 -8 -54 -98v-439q0 -161 -158 -184q-37 -5 -74 -1q-92 11 -131 54.5t-39 135.5v434q0 90 -57 98q-4 1 -12 1z
M321 751l59 121h106l-147 -121h-18z" />
    <glyph glyph-name="Ucircumflex" unicode="&#xdb;" horiz-adv-x="559" 
d="M11 710v10h252v-10q-33 0 -49.5 -24.5t-16.5 -74.5v-449q0 -63 24.5 -93.5t78.5 -37.5q14 -2 28 -2q126 0 126 146v436q0 90 -58 98q-4 1 -12 1v10h164v-10q-8 0 -12 -1q-54 -8 -54 -98v-439q0 -84 -38 -128t-120 -56q-37 -5 -74 -1q-93 11 -131.5 54.5t-38.5 135.5v434
q0 90 -57 98q-4 1 -12 1zM143 767l107 160h65l100 -160h-73l-62 108l-63 -108h-74z" />
    <glyph glyph-name="Ugrave" unicode="&#xd9;" horiz-adv-x="559" 
d="M11 710v10h252v-10q-66 0 -66 -99v-449q0 -60 22 -90q24 -33 81 -41q15 -2 28 -2q126 0 126 146v436q0 90 -58 98q-4 1 -12 1v10h164v-10q-8 0 -12 -1q-54 -8 -54 -98v-439q0 -161 -158 -184q-37 -5 -74 -1q-92 11 -131 54.5t-39 135.5v434q0 90 -57 98q-4 1 -12 1z
M338 751l-59 121h-106l147 -121h18z" />
    <glyph glyph-name="glyph258" horiz-adv-x="290" 
 />
    <glyph glyph-name="glyph259" horiz-adv-x="768" 
d="M11 361q0 156 109 264.5t264 108.5t264.5 -109t109.5 -264q0 -154 -110 -264t-264 -110t-263.5 109.5t-109.5 264.5zM61 361q0 -136 95 -232t229 -96q133 0 227.5 95.5t94.5 231.5t-94.5 232t-227.5 96q-134 0 -228 -95q-96 -98 -96 -232zM201 568v9h206q57 0 97 -25
q47 -30 47 -84q0 -37 -27 -64q-38 -39 -94 -47l99 -162q5 -6 16 -16l7 -6l6 -4l12 -6q5 -3 11 -4l4 -1h14v-9h-132l-108 193l-28 1v-144q0 -28 20 -37q2 0 5 -2h5l9 -1l10 -1h6v-9h-185v9h6l10 1l8 1h6q2 1 5 2q21 7 21 37v328q0 28 -21 37q-1 0 -3 1h-3l-4 1l-9 1h-11z
M331 374q3 0 8.5 -0.5t7.5 -1.5q101 -6 121 64q5 16 5 31q0 38 -28.5 62.5t-75.5 23.5q-21 0 -38 -5v-174z" />
    <glyph glyph-name="sfthyphen" unicode="&#xad;" horiz-adv-x="338" 
d="M8 174l33 122h246l-33 -122h-246z" />
    <glyph glyph-name="Cacute" unicode="&#x106;" horiz-adv-x="711" 
d="M534 732h12v-226h-12q0 76 -43 133q-53 70 -135 70q-74 0 -120 -59q-78 -100 -74 -291q2 -90 23 -154q10 -30 27 -58q56 -94 160 -94q81 0 133 62q41 49 48 113h11q0 -10 -1 -15q-12 -106 -74.5 -167t-161.5 -61q-31 0 -65 7q-104 21 -165 113q-65 99 -61 252
q4 179 87 278q79 94 208 94q57 0 118 -19l32 -10q11 -3 20 -3q37 0 33 35zM210 804l106 161h94l-141 -161h-59z" />
    <glyph glyph-name="cacute" unicode="&#x107;" horiz-adv-x="441" 
d="M428 363q-51 -12 -85 -31v9q1 6 1 9q1 71 -26 116q-21 35 -59 35q-62 0 -89 -99q-19 -69 -17 -146q1 -18 3 -37q6 -49 16 -73q34 -83 117 -83q40 0 74 24q43 31 53 84l3 21l11 -1q0 -13 -3 -31q-13 -78 -64 -124t-121 -46q-20 0 -40 4q-72 14 -117 77q-47 67 -47 168
q0 29 4 60q14 98 76 158q59 57 136 57q17 0 34 -3q116 -22 138 -131q2 -10 2 -17zM11 549l106 161h94l-141 -161h-59z" />
    <glyph glyph-name="Ccaron" unicode="&#x10c;" horiz-adv-x="711" 
d="M534 732h12v-226h-12q0 76 -43 133q-53 70 -135 70q-74 0 -120 -59q-78 -100 -74 -291q2 -90 23 -154q10 -30 27 -58q56 -94 160 -94q81 0 133 62q41 49 48 113h11q0 -10 -1 -15q-12 -106 -74.5 -167t-161.5 -61q-31 0 -65 7q-104 21 -165 113q-65 99 -61 252
q4 179 87 278q79 94 208 94q57 0 118 -19l32 -10q11 -3 20 -3q37 0 33 35zM174 965h73l61 -108l64 107h74l-108 -160h-65z" />
    <glyph glyph-name="ccaron" unicode="&#x10d;" horiz-adv-x="441" 
d="M428 363q-51 -12 -85 -31v9q1 6 1 9q1 71 -26 116q-21 35 -59 35q-62 0 -89 -99q-19 -69 -17 -146q1 -18 3 -37q6 -49 16 -73q34 -83 117 -83q40 0 74 24q43 31 53 84l3 21l11 -1q0 -13 -3 -31q-13 -78 -64 -124t-121 -46q-20 0 -40 4q-72 14 -117 77q-47 67 -47 168
q0 29 4 60q14 98 76 158q59 57 136 57q17 0 34 -3q116 -22 138 -131q2 -10 2 -17zM-25 710h73l61 -108l64 107h74l-108 -160h-65z" />
    <glyph glyph-name="Dslash" unicode="&#x110;" horiz-adv-x="614" 
d="M200 435l134 9v-73h-134v-342h43q114 0 168 111q40 83 40 211q0 62 -9 131q-27 207 -177 207h-65v-254zM14 371v51l70 5v184q0 90 -57 98q-4 1 -12 1v10h251q155 0 237 -106q74 -96 73 -255q-1 -164 -73 -256q-80 -103 -238 -103h-250v10q69 0 69 99v262h-70z" />
    <glyph glyph-name="dcroat" unicode="&#x111;" horiz-adv-x="516" 
d="M338 395q0 92 -69 105q-11 2 -19 2q-70 0 -91 -126q-11 -63 -8 -167q0 -17 2 -40q10 -156 96 -156q18 0 38 10q41 20 50 83q1 7 1 16v273zM249 560v43l88 4v11q0 71 -42 77q-2 1 -7 1v10q77 5 157 24v-119l46 2v-53h-46v-471q0 -37 7 -49q15 -27 42 -30v-10h-155v60
q-42 -70 -120 -70q-18 0 -37 4q-124 26 -142 202q-2 20 -2 46q0 171 105 241q47 31 97 31q53 0 89 -34q4 -4 9 -8v88h-89z" />
    <glyph glyph-name="Gbreve" unicode="&#x11e;" horiz-adv-x="767" 
d="M542 732l11 -1v-243h-10l-3 11l-5 21q-19 81 -59 127q-52 60 -120 60q-69 0 -118 -61q-54 -66 -66 -218q-3 -34 -3 -69q0 -117 24.5 -192.5t68.5 -114.5t98 -39q50 0 100 33q6 4 10 7v181q0 91 -57 99q-4 1 -12 1v10h247v-10q-69 0 -69 -100v-234h-10q0 29 -33 29
q-14 0 -32 -6l-9 -3l-30 -12q-20 -8 -53 -15q-39 -8 -79 -8q-133 0 -213 96q-84 101 -82 277q2 177 86 278q80 98 213 98q60 0 126 -22l27 -9h2q11 -4 20 -4q23 0 29 24q0 2 1 5v4zM216 965h50q-2 -9 -2 -19q0 -33 23.5 -57.5t57.5 -24.5q35 0 59 24t24 58q0 9 -2 18h50
q3 -13 3 -27q0 -48 -31 -85.5t-79 -47.5q-9 -2 -27 -2q-54 -1 -92 37.5t-38 91.5q0 17 4 34z" />
    <glyph glyph-name="gbreve" unicode="&#x11f;" horiz-adv-x="492" 
d="M363 459v45h155v-11q-28 -3 -42 -30q-8 -15 -8 -49v-400q0 -106 -50 -161.5t-144 -56.5q-76 -1 -126 34t-65 95q-3 10 -4 22h10q8 -42 49.5 -67.5t104.5 -20.5q120 10 120 153v74q-13 -44 -51.5 -70.5t-85.5 -26.5q-56 0 -103 36q-86 66 -86 206q0 35 6 72q9 50 30 92
q30 57 81 89q48 30 100 30q54 0 89 -32q9 -8 20 -23zM364 386q0 12 -1 17q-1 21 -7 37q-20 56 -81 56q-25 0 -48 -14q-71 -42 -75 -230q-3 -137 44 -198q26 -34 68 -34q45 0 73 40q19 27 25 74q2 16 2 26v226zM16 710h50q-2 -9 -2 -19q0 -33 23.5 -57.5t57.5 -24.5
q35 0 59 24t24 58q0 9 -2 18h50q3 -13 3 -27q0 -48 -31 -85.5t-79 -47.5q-9 -2 -27 -2q-54 -1 -92 37.5t-38 91.5q0 17 4 34z" />
    <glyph glyph-name="Idotaccent" unicode="&#x130;" horiz-adv-x="429" 
d="M15 10q8 0 12 1q57 8 57 99v501q0 90 -56 98q-4 1 -12 1v10h253v-10q-8 0 -12 -1q-58 -8 -58 -98v-502q0 -90 57 -98q4 -1 12 -1v-10h-253v10z" />
    <glyph glyph-name="Scedilla" unicode="&#x15e;" horiz-adv-x="656" 
d="M442 732h11v-233h-11q-2 14 -4 25q-20 88 -69 138q-46 46 -102 46q-35 0 -66 -20q-61 -38 -61 -108q0 -113 120 -153l3 -1l63 -22q9 -3 28 -10q146 -59 146 -189q0 -27 -7 -56q-17 -74 -76 -116.5t-148 -42.5q-50 0 -105 14l-24 6l-6 2q-24 8 -39 8q-28 0 -33 -25
q-1 -2 -1 -7l-11 1v249l11 -1l4 -25q18 -92 78 -148q56 -53 124 -53q53 0 92.5 30t49.5 82q4 20 4 38q0 92 -98 125l-69 23q-6 2 -34 13q-90 35 -128.5 83t-39.5 122q-1 81 46 134t135 68q48 8 116 -6q6 -1 18 -4l18 -6l11 -3q6 -2 12 -2q34 -2 42 24zM82 -183l2 8
q5 -1 14 0q23 3 41.5 18.5t18.5 37.5q0 28 -28 36q-11 3 -19 3q-8 -1 -18 -3v84h24v-44q3 1 13 1q33 1 57 -13q28 -17 28 -49q0 -29 -26 -52q-28 -26 -92 -27q-7 -2 -15 0z" />
    <glyph glyph-name="scedilla" unicode="&#x15f;" horiz-adv-x="383" 
d="M25 144q40 9 80 24v-21q4 -70 34.5 -107t77.5 -37q16 0 32 4q56 14 70 72q4 17 4 32q0 65 -92 96l-3 1l-47 16q-136 46 -136 140q0 22 8 46q27 86 141 102q32 5 63 0q107 -16 137 -104q2 -5 5 -17q-6 -2 -19 -6q-29 -9 -56 -24l-1 11l-2 14q0 4 -1.5 11t-2.5 10
q-22 92 -93 92q-32 0 -55.5 -21t-26.5 -55q-7 -72 68 -100l24 -9l22 -7l18 -7l29 -11q109 -42 109 -136q0 -17 -3 -35q-25 -129 -188 -130q-176 -1 -196 156zM-15 -183l2 8q5 -1 14 0q23 3 41.5 18.5t18.5 37.5q0 28 -28 36q-11 3 -19 3q-8 -1 -18 -3v84h24v-44q3 1 13 1
q33 1 57 -13q28 -17 28 -49q0 -29 -26 -52q-28 -26 -92 -27q-7 -2 -15 0z" />
    <glyph glyph-name="franc" unicode="&#x20a3;" horiz-adv-x="1035" 
d="M15 710v10h438v-176h-12q-4 70 -59 110q-50 36 -124 36h-57v-304h52q54 0 89.5 25.5t44.5 67.5q1 2 3 19l11 -1v-245h-12q0 9 -3 16q-22 91 -136 91h-50v-250q0 -90 57 -98q4 -1 12 -1v-10h-253v10q8 0 12 1q57 8 57 98v502q0 90 -58 98q-4 1 -12 1zM674 10q27 3 40 29
q8 15 8 50l-1 312q0 6 -1 19q-7 52 -39 59h-7v10q83 6 155 24v-118q1 13 8 30q36 91 120 87q13 -1 26 -4q-31 -46 -31 -97l-8 -1q-2 4 -3 5q-11 21 -37 21q-50 0 -69 -52q-5 -14 -5 -59v-236q0 -74 49 -79v-10h-205v10z" />
    <glyph glyph-name="u20AB" unicode="&#x20ab;" horiz-adv-x="393" 
d="M197 501q-48 0 -84 -88q-20 -49 -20 -90q0 -51 39 -51q41 0 74 71q28 60 28 107q0 51 -37 51zM200 267q-53 -62 -106 -62q-45 0 -68 28t-23 74q0 80 55 153q59 78 136 78q34 0 61 -24l20 75h-100l10 36h100l2 16q0 31 -48 32l7 33q67 2 128 14l15 3q6 0 6 -9l-3 -12
l-19 -77h65l-10 -36h-65l-69 -280q-5 -20 -5 -27q0 -15 12 -15q6 0 49 42l20 -18q-70 -86 -117 -86q-43 0 -53 62zM9 160h221v-56h-221v56z" />
    <glyph glyph-name="SF370000" unicode="&#x255f;" horiz-adv-x="718" 
d="M165 259h182l-91 283zM-39 10q74 -2 111 99l227 625l218 -625q35 -101 103 -99v-10h-294v10h15q57 7 57 56q0 18 -7 43l-36 122h-201l-40 -122q-8 -26 -8 -45q0 -47 55 -54h15v-10h-215v10z" />
    <glyph glyph-name="SF420000" unicode="&#x2560;" horiz-adv-x="681" 
d="M15 710v10h440v-174h-10q-16 145 -195 145h-50v-304h44q111 0 138 76q7 20 7 34l11 1v-246h-11q-2 8 -2 12q-21 95 -142 95h-45v-330h74q163 0 191 134q1 5 2 13.5t1 12.5h11v-189h-463v10q8 0 12 1q57 8 57 98v502q0 99 -70 99z" />
    <glyph glyph-name="SF190000" unicode="&#x2561;" horiz-adv-x="429" 
d="M15 10q8 0 12 1q57 8 57 99v501q0 90 -56 98q-4 1 -12 1v10h253v-10q-8 0 -12 -1q-58 -8 -58 -98v-502q0 -90 57 -98q4 -1 12 -1v-10h-253v10z" />
    <glyph glyph-name="SF200000" unicode="&#x2562;" horiz-adv-x="773" 
d="M38 364q0 39 5 77q19 144 97 220t200 76q133 0 215 -96q86 -101 87 -277q1 -162 -72 -261q-68 -95 -185 -110q-23 -3 -46 -3q-133 0 -215 97q-86 101 -86 277zM154 506q-3 -67 16 -163q47 -235 124 -293q38 -29 83 -29q42 0 77 24.5t52 66.5q22 55 22 126q0 92 -35 227
q-42 164 -106 212q-38 29 -85 29q-41 0 -76 -24t-51 -66q-18 -48 -21 -110z" />
    <glyph glyph-name="SF230000" unicode="&#x2563;" horiz-adv-x="811" 
d="M11 710v10h252v-10q-33 0 -49.5 -24.5t-16.5 -74.5v-449q0 -63 24.5 -93.5t78.5 -37.5q14 -2 28 -2q126 0 126 146v436q0 90 -58 98q-4 1 -12 1v10h164v-10q-8 0 -12 -1q-54 -8 -54 -98v-439q0 -84 -38 -128t-120 -56q-37 -5 -74 -1q-93 11 -131.5 54.5t-38.5 135.5v434
q0 90 -57 98q-4 1 -12 1z" />
    <glyph glyph-name="SF470000" unicode="&#x2564;" horiz-adv-x="699" 
d="M-38 710v10h266v-10h-13q-44 -6 -44 -44q0 -21 14 -55l118 -288l120 288q13 31 13 51q0 42 -56 48h-14v10h200v-10q-63 0 -106 -99l-142 -326v-176q0 -80 43 -95q11 -4 24 -4v-10h-251v10q13 0 24 4q44 15 44 95v174l-145 328q-43 97 -95 99z" />
    <glyph glyph-name="SF480000" unicode="&#x2565;" horiz-adv-x="541" 
d="M77 382h-9l9 22q51 107 180 110q13 0 32 -2q67 -8 93 -40.5t26 -108.5l-1 -284l3 -16q0 -7 3 -13q4 -19 25 -10q17 8 21 41l1 9v3h11q0 -11 -1 -16q-9 -91 -90 -86q-38 2 -59.5 25.5t-17.5 55.5q-4 -6 -12 -20q-43 -61 -121 -62q-15 0 -25 1q-106 13 -110 139t100 152
l60 15l27 7q81 22 81 64q0 85 -92 85q-12 0 -25 -1q-71 -7 -109 -70zM302 326q-16 -14 -46 -25l-17 -6l-16 -6q-46 -17 -60 -37.5t-18 -77.5q-2 -22 -1 -35q3 -57 15.5 -77.5t48.5 -26.5q18 -3 31 0q63 14 63 92v199z" />
    <glyph glyph-name="SF410000" unicode="&#x2566;" horiz-adv-x="431" 
d="M462 277h-308q-2 -15 -1 -28q7 -145 109 -177q23 -7 46 -7q56 0 96 38q37 36 48 92l10 -1q0 -11 -3 -31q-12 -78 -67 -126t-132 -48q-23 0 -47 5q-83 16 -130 86q-49 74 -45 186q4 114 65 178q69 73 161 73q61 0 111.5 -34.5t71.5 -94.5q18 -52 15 -111zM154 298h198v21
q0 109 -29 152q-22 32 -61 32q-90 0 -107 -178v-13q-1 -9 -1 -14z" />
    <glyph glyph-name="SF450000" unicode="&#x2567;" horiz-adv-x="314" 
d="M22 10q28 3 42 29q8 15 8 50l-2 312q-3 71 -41 78h-6v10q35 3 84 10q19 3 70 14v-424q0 -32 8 -50q15 -26 41 -29v-10h-204v10zM55 632q0 26 19 45t46 19q28 0 46.5 -18.5t18.5 -45.5t-19 -46t-45 -19q-28 -1 -47 18.5t-19 46.5z" />
    <glyph glyph-name="SF460000" unicode="&#x2568;" horiz-adv-x="314" 
d="M22 10q28 3 42 29q8 15 8 50l-2 312q-3 71 -41 78h-6v10q35 3 84 10q19 3 70 14v-424q0 -32 8 -50q15 -26 41 -29v-10h-204v10z" />
    <glyph glyph-name="SF400000" unicode="&#x2569;" horiz-adv-x="498" 
d="M38 251q0 123 64 195q62 69 164 69q90 0 150 -55t74 -155q4 -31 4 -61q0 -118 -64 -187.5t-164 -69.5q-102 0 -165 70.5t-63 193.5zM139 353q-1 -46 12 -115q44 -224 134 -233q48 -5 77.5 31.5t29.5 117.5q0 70 -24 168q-42 170 -120 176q-104 9 -109 -145z" />
    <glyph glyph-name="SF540000" unicode="&#x256a;" horiz-adv-x="557" 
d="M22 492v12h154v-379q0 -94 81 -94q42 0 68 18t35 39q8 18 8 53v273q0 73 -48 78l1 12h152v-415q0 -43 15 -60.5t36 -18.5v-10h-156v71l-16 -16q-70 -66 -158 -66q-60 0 -92 35.5t-32 98.5v291q0 73 -48 78z" />
    <glyph glyph-name="SF530000" unicode="&#x256b;" horiz-adv-x="497" 
d="M20 492v12h155v-365q0 -108 79 -108q55 0 86 33q26 28 26 76v274q0 73 -48 78v12h154v-474q0 -236 -191 -236q-66 0 -110 26q-79 46 -89 127h10q9 -41 48.5 -66t100.5 -23q126 5 126 156v60q-37 -45 -89 -68q-41 -19 -81 -19q-53 0 -89 32.5t-38 80.5q-1 20 -1 44v270
q0 73 -49 78z" />
    <glyph glyph-name="circle" unicode="&#x25cb;" horiz-adv-x="718" 
d="M225 780l107 160h65l100 -160h-73l-62 108l-63 -108h-74zM235 969l106 161h94l-141 -161h-59z" />
    <glyph glyph-name="H18533" unicode="&#x25cf;" horiz-adv-x="718" 
d="M225 780l107 160h65l100 -160h-73l-62 108l-63 -108h-74zM280 1131h96l105 -162h-58z" />
    <glyph glyph-name="invbullet" unicode="&#x25d8;" horiz-adv-x="718" 
d="M225 780l107 160h65l100 -160h-73l-62 108l-63 -108h-74zM614 903q9 29 11 64q1 11 8 13q3 0 8 1q67 11 67 54q0 35 -28 35q-5 0 -14 -1t-14 -1q-21 0 -21 18q0 28 32 28q46 0 76 -25.5t26 -70.5q-6 -59 -87 -81q-25 -7 -31 -34h-33z" />
    <glyph glyph-name="invcircle" unicode="&#x25d9;" horiz-adv-x="718" 
d="M225 780l107 160h65l100 -160h-73l-62 108l-63 -108h-74zM274 988q22 88 82 88q17 0 40 -5h2l55 -18q42 -14 78 -14q44 0 52 29l5 -2l-3 -10l-4 -12q-2 -7 -7 -15q-26 -55 -74 -55q-17 0 -38 5l-27 7l-18 5l-46 14l-23 6l-18 5q-27 7 -41 -10q-8 -8 -8 -18h-7z" />
    <glyph glyph-name="glyph275" horiz-adv-x="249" 
 />
    <glyph glyph-name="glyph276" horiz-adv-x="249" 
 />
    <glyph glyph-name="ch270" unicode="&#xb7;" horiz-adv-x="249" 
d="M38 348q0 34 23 57t57 23t57.5 -23t23.5 -57t-23.5 -57.5t-57.5 -23.5t-57 23.5t-23 57.5z" />
    <glyph glyph-name="ch270" unicode="&#x2219;" horiz-adv-x="249" 
d="M38 348q0 34 23 57t57 23t57.5 -23t23.5 -57t-23.5 -57.5t-57.5 -23.5t-57 23.5t-23 57.5z" />
    <glyph glyph-name="euro" horiz-adv-x="498" 
d="M522 633l-23 -156l-48 6q0 157 -94 157q-103 0 -161 -211h172l-21 -48h-164q-6 -24 -16 -73h147l-21 -47h-134q-6 -41 -6 -74q0 -56 21 -91q26 -43 78 -43q58 0 101 68q24 38 51 119l55 -10l-54 -188q-77 -53 -159 -53q-111 0 -166 84q-47 71 -47 188h-74l21 47h56
q3 25 12 73h-66l21 48h59q41 112 108 183q83 88 187 88q94 0 165 -67z" />
    <glyph glyph-name="glyph261" horiz-adv-x="500" 
d="M253 522q9 29 11 64q1 11 8 13q3 0 8 1q67 11 67 54q0 35 -28 35q-5 0 -14 -1t-14 -1q-21 0 -21 18q0 28 32 28q46 0 76 -25.5t26 -70.5q-6 -59 -87 -81q-25 -7 -31 -34h-33z" />
    <glyph glyph-name="glyph262" horiz-adv-x="541" 
d="M22 548l107 160h65l100 -160h-73l-62 108l-63 -108h-74zM31 738l106 161h94l-141 -161h-59z" />
    <glyph glyph-name="glyph263" horiz-adv-x="541" 
d="M22 548l107 160h65l100 -160h-73l-62 108l-63 -108h-74zM77 899h96l105 -162h-58z" />
    <glyph glyph-name="glyph264" horiz-adv-x="541" 
d="M22 548l107 160h65l100 -160h-73l-62 108l-63 -108h-74zM411 671q9 29 11 64q1 11 8 13q3 0 8 1q67 11 67 54q0 35 -28 35q-5 0 -14 -1t-14 -1q-21 0 -21 18q0 28 32 28q46 0 76 -25.5t26 -70.5q-6 -59 -87 -81q-25 -7 -31 -34h-33z" />
    <glyph glyph-name="glyph265" horiz-adv-x="541" 
d="M22 548l107 160h65l100 -160h-73l-62 108l-63 -108h-74zM71 756q22 88 82 88q17 0 40 -5h2l55 -18q42 -14 78 -14q44 0 52 29l5 -2l-3 -10l-4 -12q-2 -7 -7 -15q-26 -55 -74 -55q-17 0 -38 5l-27 7l-18 5l-46 14l-23 6l-18 5q-27 7 -41 -10q-8 -8 -8 -18h-7z" />
    <glyph glyph-name="glyph266" horiz-adv-x="541" 
d="M50 709h50q-2 -9 -2 -19q0 -33 23.5 -57.5t57.5 -24.5q35 0 59 24t24 58q0 9 -2 18h50q3 -13 3 -27q0 -48 -31 -85.5t-79 -47.5q-9 -2 -27 -2q-54 -1 -92 37.5t-38 91.5q0 17 4 34zM110 738l106 161h94l-141 -161h-59z" />
    <glyph glyph-name="glyph267" horiz-adv-x="541" 
d="M50 709h50q-2 -9 -2 -19q0 -33 23.5 -57.5t57.5 -24.5q35 0 59 24t24 58q0 9 -2 18h50q3 -13 3 -27q0 -48 -31 -85.5t-79 -47.5q-9 -2 -27 -2q-54 -1 -92 37.5t-38 91.5q0 17 4 34zM24 899h96l105 -162h-58z" />
    <glyph glyph-name="glyph268" horiz-adv-x="541" 
d="M50 709h50q-2 -9 -2 -19q0 -33 23.5 -57.5t57.5 -24.5q35 0 59 24t24 58q0 9 -2 18h50q3 -13 3 -27q0 -48 -31 -85.5t-79 -47.5q-9 -2 -27 -2q-54 -1 -92 37.5t-38 91.5q0 17 4 34zM306 671q9 29 11 64q1 11 8 13q3 0 8 1q67 11 67 54q0 35 -28 35q-5 0 -14 -1t-14 -1
q-21 0 -21 18q0 28 32 28q46 0 76 -25.5t26 -70.5q-6 -59 -87 -81q-25 -7 -31 -34h-33z" />
    <glyph glyph-name="glyph269" horiz-adv-x="541" 
d="M50 709h50q-2 -9 -2 -19q0 -33 23.5 -57.5t57.5 -24.5q35 0 59 24t24 58q0 9 -2 18h50q3 -13 3 -27q0 -48 -31 -85.5t-79 -47.5q-9 -2 -27 -2q-54 -1 -92 37.5t-38 91.5q0 17 4 34zM71 756q22 88 82 88q17 0 40 -5h2l55 -18q42 -14 78 -14q44 0 52 29l5 -2l-3 -10l-4 -12
q-2 -7 -7 -15q-26 -55 -74 -55q-17 0 -38 5l-27 7l-18 5l-46 14l-23 6l-18 5q-27 7 -41 -10q-8 -8 -8 -18h-7z" />
    <glyph glyph-name="glyph270" horiz-adv-x="249" 
 />
    <glyph glyph-name="glyph271" unicode="&#x102;" horiz-adv-x="581" 
d="M165 259h182l-91 283zM-39 10q74 -2 111 99l227 625l218 -625q35 -101 103 -99v-10h-294v10h15q57 7 57 56q0 19 -7 43l-36 122h-201l-40 -122q-8 -24 -8 -45q0 -47 55 -54h15v-10h-215v10zM197 846h36q-1 -22 19 -38.5t43 -16.5q30 0 44 18q7 8 17 46l55 -8
q-3 -46 -34.5 -75.5t-77.5 -27.5q-39 2 -74 33t-28 69z" />
    <glyph glyph-name="glyph272" unicode="&#x103;" horiz-adv-x="479" 
d="M77 382h-9q3 9 9 22q51 107 180 110q13 0 32 -2q69 -8 96 -44q23 -32 23 -105l-1 -284l3 -16q0 -7 3 -13q4 -19 25 -10q17 8 21 41l1 9v3h11q0 -11 -1 -16q-9 -91 -90 -86q-35 2 -58 24t-19 57q-4 -6 -12 -20q-43 -61 -121 -62q-15 0 -25 1q-106 13 -110 139t100 152
l60 15q108 27 108 71q0 85 -92 85q-14 0 -25 -1q-71 -7 -109 -70zM302 326q-17 -15 -46 -25l-17 -6l-16 -6q-47 -18 -62 -41q-12 -19 -16 -74q-2 -23 -1 -35q3 -50 11 -68q13 -29 53 -36q18 -3 31 0q63 14 63 92v199zM155 646h36q-1 -22 19 -38.5t43 -16.5q30 0 44 18
q7 8 17 46l55 -8q-3 -46 -34.5 -75.5t-77.5 -27.5q-39 2 -74 33t-28 69z" />
    <glyph glyph-name="glyph273" unicode="&#x128;" horiz-adv-x="284" 
d="M15 10q8 0 12 1q57 8 57 99v501q0 90 -56 98q-4 1 -12 1v10h253v-10q-8 0 -12 -1q-58 -8 -58 -98v-502q0 -90 57 -98q4 -1 12 -1v-10h-253v10zM38 778q7 32 23 57q22 33 49 33q16 0 30 -12l33 -28l9 -5q11 -6 21.5 1t13.5 19q1 2 2 5l32 3q-19 -89 -72 -89q-16 0 -30 12
l-33 28l-9 5q-11 6 -21.5 -1t-13.5 -19q0 -2 -1 -5z" />
    <glyph glyph-name="glyph274" unicode="&#x129;" horiz-adv-x="248" 
d="M22 10q28 3 42 29q8 15 8 50l-2 312q0 71 -41 78h-6v10q38 3 84 10q16 2 70 14v-424q0 -32 8 -50q15 -26 41 -29v-10h-204v10zM6 568q7 32 23 57q22 33 49 33q16 0 30 -12l33 -28l9 -5q11 -6 21.5 1t13.5 19q1 2 2 5l32 3q-19 -89 -72 -89q-16 0 -30 12l-33 28l-9 5
q-11 6 -21.5 -1t-13.5 -19q0 -2 -1 -5z" />
    <glyph glyph-name="ch903" unicode="&#x168;" horiz-adv-x="559" 
d="M11 710v10h252v-10q-66 0 -66 -99v-449q0 -60 22 -90q24 -33 81 -41q15 -2 28 -2q126 0 126 146v436q0 90 -58 98q-4 1 -12 1v10h164v-10q-8 0 -12 -1q-54 -8 -54 -98v-439q0 -161 -158 -184q-37 -5 -74 -1q-92 11 -131 54.5t-39 135.5v434q0 90 -57 98q-4 1 -12 1z
M218 768q7 32 23 57q22 33 49 33q16 0 30 -12l33 -28l9 -5q11 -6 21.5 1t13.5 19q1 2 2 5l32 3q-19 -89 -72 -89q-16 0 -30 12l-33 28l-9 5q-11 6 -21.5 -1t-13.5 -19q0 -2 -1 -5z" />
    <glyph glyph-name="ch904" unicode="&#x169;" horiz-adv-x="546" 
d="M22 492v12h154v-379q0 -94 81 -94q78 0 103 57q8 18 8 53v273q0 73 -48 78l1 12h152v-415q0 -77 51 -79v-10h-156v71l-16 -16q-69 -66 -158 -66q-61 0 -92.5 36t-31.5 98v291q0 73 -48 78zM166 558q7 32 23 57q22 33 49 33q16 0 30 -12l33 -28l9 -5q11 -6 21.5 1t13.5 19
q1 2 2 5l32 3q-19 -89 -72 -89q-16 0 -30 12l-33 28l-9 5q-11 6 -21.5 -1t-13.5 -19q0 -2 -1 -5z" />
    <glyph glyph-name="glyph277" unicode="&#x1a0;" horiz-adv-x="680" 
d="M154 506q-3 -67 16 -163q47 -235 124 -293q38 -29 83 -29q43 0 78 25t51 66q22 55 22 126q0 91 -35 227q-42 164 -106 212q-39 29 -85 29q-43 0 -77.5 -25t-49.5 -65q-18 -48 -21 -110zM560 797q21 -2 58 -14q27 -17 27 -48q0 -38 -35 -59q-28 -17 -69 -19
q100 -102 101 -293q1 -142 -58 -240q-68 -114 -199 -131q-23 -3 -46 -3q-149 0 -230 116q-71 102 -71 258q0 39 5 77q18 135 89 211q77 85 208 85q114 0 192 -72q22 4 39 19t17 36q0 28 -28 36l-20 4q0 7 20 37z" />
    <glyph glyph-name="glyph278" unicode="&#x1a1;" horiz-adv-x="532" 
d="M139 353q-1 -46 12 -115q44 -224 134 -233q107 -11 107 149q0 71 -24 168q-42 170 -120 176q-104 9 -109 -145zM436 595q21 -6 55 -24q18 -17 18 -42q0 -35 -30 -54q-26 -16 -62 -16q59 -56 73 -154q4 -29 4 -61q0 -110 -58 -181q-62 -76 -170 -76q-111 0 -172 79
q-56 71 -56 185t56 186q61 78 172 78q80 0 136 -44q48 11 48 50q0 23 -21 34q-10 4 -18 6q-2 0 -2 1q0 6 27 33z" />
    <glyph glyph-name="glyph279" unicode="&#x1af;" horiz-adv-x="559" 
d="M518 720q2 28 -28 36l-20 4q0 7 20 37q21 -2 58 -14q26 -17 26 -50q0 -31 -25 -50q-10 -8 -62 -25q-5 -20 -5 -47v-439q0 -161 -158 -184q-37 -5 -74 -1q-92 11 -131 54.5t-39 135.5v434q0 90 -57 98q-4 1 -12 1v10h252v-10q-66 0 -66 -99v-449q0 -60 22 -90
q24 -33 81 -41q15 -2 28 -2q126 0 126 146v436q0 90 -58 98q-4 1 -12 1v10l129 -20z" />
    <glyph glyph-name="glyph280" unicode="&#x1b0;" horiz-adv-x="546" 
d="M496 595q21 -6 55 -24q18 -17 18 -42q0 -36 -32 -55q-27 -16 -64 -15v-370q0 -77 51 -79v-10h-156v71l-16 -16q-69 -66 -158 -66q-61 0 -92.5 36t-31.5 98v291q0 73 -48 78v12h154v-379q0 -94 81 -94q78 0 103 57q8 18 8 53v273q0 73 -48 78l1 12h102l50 -29q37 14 37 46
q0 23 -21 34q-10 4 -18 6q-2 0 -2 1q0 6 27 33z" />
    <glyph glyph-name="glyph281" unicode="&#x1ea0;" horiz-adv-x="581" 
d="M165 259h182l-91 283zM-39 10q74 -2 111 99l227 625l218 -625q35 -101 103 -99v-10h-294v10h15q57 7 57 56q0 19 -7 43l-36 122h-201l-40 -122q-8 -24 -8 -45q0 -47 55 -54h15v-10h-215v10zM190 -56q0 24 18 40t43 16t43.5 -16t18.5 -40q0 -23 -18.5 -39t-42.5 -16
q-25 0 -43.5 15.5t-18.5 39.5z" />
    <glyph glyph-name="glyph282" unicode="&#x1ea1;" horiz-adv-x="479" 
d="M77 382h-9q3 9 9 22q51 107 180 110q13 0 32 -2q69 -8 96 -44q23 -32 23 -105l-1 -284l3 -16q0 -7 3 -13q4 -19 25 -10q17 8 21 41l1 9v3h11q0 -11 -1 -16q-9 -91 -90 -86q-35 2 -58 24t-19 57q-4 -6 -12 -20q-43 -61 -121 -62q-15 0 -25 1q-106 13 -110 139t100 152
l60 15q108 27 108 71q0 85 -92 85q-14 0 -25 -1q-71 -7 -109 -70zM302 326q-17 -15 -46 -25l-17 -6l-16 -6q-47 -18 -62 -41q-12 -19 -16 -74q-2 -23 -1 -35q3 -50 11 -68q13 -29 53 -36q18 -3 31 0q63 14 63 92v199zM166 -107q0 24 18 40t43 16t43.5 -16t18.5 -40
q0 -23 -18.5 -39t-42.5 -16q-25 0 -43.5 15.5t-18.5 39.5z" />
    <glyph glyph-name="glyph283" unicode="&#x1ea2;" horiz-adv-x="581" 
d="M165 259h182l-91 283zM-39 10q74 -2 111 99l227 625l218 -625q35 -101 103 -99v-10h-294v10h15q57 7 57 56q0 19 -7 43l-36 122h-201l-40 -122q-8 -24 -8 -45q0 -47 55 -54h15v-10h-215v10zM245 888q2 26 26 42q21 15 49 15q29 1 50 -14.5t21 -44.5q0 -38 -40 -62l-5 -3
l-15 -10q-25 -17 -27 -43v-4h-5v5l2 21q1 12 8 28l1 1l11 24q5 10 5 19q1 24 -11 37t-36 9q-17 -3 -26 -15q0 -2 -3 -5h-5z" />
    <glyph glyph-name="glyph284" unicode="&#x1ea3;" horiz-adv-x="479" 
d="M77 382h-9q3 9 9 22q51 107 180 110q13 0 32 -2q69 -8 96 -44q23 -32 23 -105l-1 -284l3 -16q0 -7 3 -13q4 -19 25 -10q17 8 21 41l1 9v3h11q0 -11 -1 -16q-9 -91 -90 -86q-35 2 -58 24t-19 57q-4 -6 -12 -20q-43 -61 -121 -62q-15 0 -25 1q-106 13 -110 139t100 152
l60 15q108 27 108 71q0 85 -92 85q-14 0 -25 -1q-71 -7 -109 -70zM302 326q-17 -15 -46 -25l-17 -6l-16 -6q-47 -18 -62 -41q-12 -19 -16 -74q-2 -23 -1 -35q3 -50 11 -68q13 -29 53 -36q18 -3 31 0q63 14 63 92v199zM203 678q2 26 26 42q21 15 49 15q29 1 50 -14.5
t21 -44.5q0 -38 -40 -62l-5 -3l-15 -10q-25 -17 -27 -43v-4h-5v5l2 21q1 12 8 28l1 1l11 24q5 10 5 19q1 24 -11 37t-36 9q-17 -3 -26 -15q0 -2 -3 -5h-5z" />
    <glyph glyph-name="glyph285" unicode="&#x1ea4;" horiz-adv-x="581" 
d="M165 259h182l-91 283zM-39 10q74 -2 111 99l227 625l218 -625q35 -101 103 -99v-10h-294v10h15q57 7 57 56q0 19 -7 43l-36 122h-201l-40 -122q-8 -24 -8 -45q0 -47 55 -54h15v-10h-215v10zM209 725l90 139l30 -10l82 -129h-65l-47 79l-54 -79h-36zM380 804l59 121h106
l-147 -121h-18z" />
    <glyph glyph-name="glyph286" unicode="&#x1ea5;" horiz-adv-x="479" 
d="M77 382h-9q3 9 9 22q51 107 180 110q13 0 32 -2q69 -8 96 -44q23 -32 23 -105l-1 -284l3 -16q0 -7 3 -13q4 -19 25 -10q17 8 21 41l1 9v3h11q0 -11 -1 -16q-9 -91 -90 -86q-35 2 -58 24t-19 57q-4 -6 -12 -20q-43 -61 -121 -62q-15 0 -25 1q-106 13 -110 139t100 152
l60 15q108 27 108 71q0 85 -92 85q-14 0 -25 -1q-71 -7 -109 -70zM302 326q-17 -15 -46 -25l-17 -6l-16 -6q-47 -18 -62 -41q-12 -19 -16 -74q-2 -23 -1 -35q3 -50 11 -68q13 -29 53 -36q18 -3 31 0q63 14 63 92v199zM167 535l90 139l30 -10l82 -129h-65l-47 79l-54 -79h-36
zM338 614l59 121h106l-147 -121h-18z" />
    <glyph glyph-name="glyph287" unicode="&#x1ea6;" horiz-adv-x="581" 
d="M165 259h182l-91 283zM-39 10q74 -2 111 99l227 625l218 -625q35 -101 103 -99v-10h-294v10h15q57 7 57 56q0 19 -7 43l-36 122h-201l-40 -122q-8 -24 -8 -45q0 -47 55 -54h15v-10h-215v10zM209 725l90 139l30 -10l82 -129h-65l-47 79l-54 -79h-36zM239 804l-59 121h-106
l147 -121h18z" />
    <glyph glyph-name="glyph288" unicode="&#x1ea7;" horiz-adv-x="479" 
d="M77 382h-9q3 9 9 22q51 107 180 110q13 0 32 -2q69 -8 96 -44q23 -32 23 -105l-1 -284l3 -16q0 -7 3 -13q4 -19 25 -10q17 8 21 41l1 9v3h11q0 -11 -1 -16q-9 -91 -90 -86q-35 2 -58 24t-19 57q-4 -6 -12 -20q-43 -61 -121 -62q-15 0 -25 1q-106 13 -110 139t100 152
l60 15q108 27 108 71q0 85 -92 85q-14 0 -25 -1q-71 -7 -109 -70zM302 326q-17 -15 -46 -25l-17 -6l-16 -6q-47 -18 -62 -41q-12 -19 -16 -74q-2 -23 -1 -35q3 -50 11 -68q13 -29 53 -36q18 -3 31 0q63 14 63 92v199zM167 535l90 139l30 -10l82 -129h-65l-47 79l-54 -79h-36
zM197 614l-59 121h-106l147 -121h18z" />
    <glyph glyph-name="glyph289" unicode="&#x1ea8;" horiz-adv-x="581" 
d="M165 259h182l-91 283zM-39 10q74 -2 111 99l227 625l218 -625q35 -101 103 -99v-10h-294v10h15q57 7 57 56q0 19 -7 43l-36 122h-201l-40 -122q-8 -24 -8 -45q0 -47 55 -54h15v-10h-215v10zM209 725l90 139l30 -10l82 -129h-65l-47 79l-54 -79h-36zM325 928q2 26 26 42
q21 15 49 15q29 1 50 -14.5t21 -44.5q0 -38 -40 -62l-5 -3l-15 -10q-25 -17 -27 -43v-4h-5v5l2 21q1 12 8 28l1 1l11 24q5 10 5 19q1 24 -11 37t-36 9q-17 -3 -26 -15q0 -2 -3 -5h-5z" />
    <glyph glyph-name="glyph290" unicode="&#x1ea9;" horiz-adv-x="479" 
d="M77 382h-9q3 9 9 22q51 107 180 110q13 0 32 -2q69 -8 96 -44q23 -32 23 -105l-1 -284l3 -16q0 -7 3 -13q4 -19 25 -10q17 8 21 41l1 9v3h11q0 -11 -1 -16q-9 -91 -90 -86q-35 2 -58 24t-19 57q-4 -6 -12 -20q-43 -61 -121 -62q-15 0 -25 1q-106 13 -110 139t100 152
l60 15q108 27 108 71q0 85 -92 85q-14 0 -25 -1q-71 -7 -109 -70zM302 326q-17 -15 -46 -25l-17 -6l-16 -6q-47 -18 -62 -41q-12 -19 -16 -74q-2 -23 -1 -35q3 -50 11 -68q13 -29 53 -36q18 -3 31 0q63 14 63 92v199zM167 535l90 139l30 -10l82 -129h-65l-47 79l-54 -79h-36
zM283 738q2 26 26 42q21 15 49 15q29 1 50 -14.5t21 -44.5q0 -38 -40 -62l-5 -3l-15 -10q-25 -17 -27 -43v-4h-5v5l2 21q1 12 8 28l1 1l11 24q5 10 5 19q1 24 -11 37t-36 9q-17 -3 -26 -15q0 -2 -3 -5h-5z" />
    <glyph glyph-name="glyph291" unicode="&#x1eaa;" horiz-adv-x="581" 
d="M165 259h182l-91 283zM-39 10q74 -2 111 99l227 625l218 -625q35 -101 103 -99v-10h-294v10h15q57 7 57 56q0 19 -7 43l-36 122h-201l-40 -122q-8 -24 -8 -45q0 -47 55 -54h15v-10h-215v10zM209 725l90 139l30 -10l82 -129h-65l-47 79l-54 -79h-36zM208 888q7 32 23 57
q22 33 49 33q16 0 30 -12l33 -28l9 -5q11 -6 21.5 1t13.5 19q1 2 2 5l32 3q-19 -89 -72 -89q-16 0 -30 12l-33 28l-9 5q-11 6 -21.5 -1t-13.5 -19q0 -2 -1 -5z" />
    <glyph glyph-name="glyph292" unicode="&#x1eab;" horiz-adv-x="479" 
d="M77 382h-9q3 9 9 22q51 107 180 110q13 0 32 -2q69 -8 96 -44q23 -32 23 -105l-1 -284l3 -16q0 -7 3 -13q4 -19 25 -10q17 8 21 41l1 9v3h11q0 -11 -1 -16q-9 -91 -90 -86q-35 2 -58 24t-19 57q-4 -6 -12 -20q-43 -61 -121 -62q-15 0 -25 1q-106 13 -110 139t100 152
l60 15q108 27 108 71q0 85 -92 85q-14 0 -25 -1q-71 -7 -109 -70zM302 326q-17 -15 -46 -25l-17 -6l-16 -6q-47 -18 -62 -41q-12 -19 -16 -74q-2 -23 -1 -35q3 -50 11 -68q13 -29 53 -36q18 -3 31 0q63 14 63 92v199zM167 535l90 139l30 -10l82 -129h-65l-47 79l-54 -79h-36
zM166 698q7 32 23 57q22 33 49 33q16 0 30 -12l33 -28l9 -5q11 -6 21.5 1t13.5 19q1 2 2 5l32 3q-19 -89 -72 -89q-16 0 -30 12l-33 28l-9 5q-11 6 -21.5 -1t-13.5 -19q0 -2 -1 -5z" />
    <glyph glyph-name="glyph293" unicode="&#x1eac;" horiz-adv-x="581" 
d="M165 259h182l-91 283zM-39 10q74 -2 111 99l227 625l218 -625q35 -101 103 -99v-10h-294v10h15q57 7 57 56q0 19 -7 43l-36 122h-201l-40 -122q-8 -24 -8 -45q0 -47 55 -54h15v-10h-215v10zM209 725l90 139l30 -10l82 -129h-65l-47 79l-54 -79h-36zM190 -56q0 24 18 40
t43 16t43.5 -16t18.5 -40q0 -23 -18.5 -39t-42.5 -16q-25 0 -43.5 15.5t-18.5 39.5z" />
    <glyph glyph-name="glyph294" unicode="&#x1ead;" horiz-adv-x="479" 
d="M77 382h-9q3 9 9 22q51 107 180 110q13 0 32 -2q69 -8 96 -44q23 -32 23 -105l-1 -284l3 -16q0 -7 3 -13q4 -19 25 -10q17 8 21 41l1 9v3h11q0 -11 -1 -16q-9 -91 -90 -86q-35 2 -58 24t-19 57q-4 -6 -12 -20q-43 -61 -121 -62q-15 0 -25 1q-106 13 -110 139t100 152
l60 15q108 27 108 71q0 85 -92 85q-14 0 -25 -1q-71 -7 -109 -70zM302 326q-17 -15 -46 -25l-17 -6l-16 -6q-47 -18 -62 -41q-12 -19 -16 -74q-2 -23 -1 -35q3 -50 11 -68q13 -29 53 -36q18 -3 31 0q63 14 63 92v199zM166 -107q0 24 18 40t43 16t43.5 -16t18.5 -40
q0 -23 -18.5 -39t-42.5 -16q-25 0 -43.5 15.5t-18.5 39.5zM167 535l90 139l30 -10l82 -129h-65l-47 79l-54 -79h-36z" />
    <glyph glyph-name="glyph295" unicode="&#x1eae;" horiz-adv-x="581" 
d="M165 259h182l-91 283zM-39 10q74 -2 111 99l227 625l218 -625q35 -101 103 -99v-10h-294v10h15q57 7 57 56q0 19 -7 43l-36 122h-201l-40 -122q-8 -24 -8 -45q0 -47 55 -54h15v-10h-215v10zM197 846h36q-1 -22 19 -38.5t43 -16.5q30 0 44 18q7 8 17 46l55 -8
q-3 -46 -34.5 -75.5t-77.5 -27.5q-39 2 -74 33t-28 69zM290 864l59 121h106l-147 -121h-18z" />
    <glyph glyph-name="glyph296" unicode="&#x1eaf;" horiz-adv-x="479" 
d="M77 382h-9q3 9 9 22q51 107 180 110q13 0 32 -2q69 -8 96 -44q23 -32 23 -105l-1 -284l3 -16q0 -7 3 -13q4 -19 25 -10q17 8 21 41l1 9v3h11q0 -11 -1 -16q-9 -91 -90 -86q-35 2 -58 24t-19 57q-4 -6 -12 -20q-43 -61 -121 -62q-15 0 -25 1q-106 13 -110 139t100 152
l60 15q108 27 108 71q0 85 -92 85q-14 0 -25 -1q-71 -7 -109 -70zM302 326q-17 -15 -46 -25l-17 -6l-16 -6q-47 -18 -62 -41q-12 -19 -16 -74q-2 -23 -1 -35q3 -50 11 -68q13 -29 53 -36q18 -3 31 0q63 14 63 92v199zM155 646h36q-1 -22 19 -38.5t43 -16.5q30 0 44 18
q7 8 17 46l55 -8q-3 -46 -34.5 -75.5t-77.5 -27.5q-39 2 -74 33t-28 69zM248 664l59 121h106l-147 -121h-18z" />
    <glyph glyph-name="glyph297" unicode="&#x1eb0;" horiz-adv-x="581" 
d="M165 259h182l-91 283zM-39 10q74 -2 111 99l227 625l218 -625q35 -101 103 -99v-10h-294v10h15q57 7 57 56q0 19 -7 43l-36 122h-201l-40 -122q-8 -24 -8 -45q0 -47 55 -54h15v-10h-215v10zM197 846h36q-1 -22 19 -38.5t43 -16.5q30 0 44 18q7 8 17 46l55 -8
q-3 -46 -34.5 -75.5t-77.5 -27.5q-39 2 -74 33t-28 69zM308 854l-59 121h-106l147 -121h18z" />
    <glyph glyph-name="glyph298" unicode="&#x1eb1;" horiz-adv-x="479" 
d="M77 382h-9q3 9 9 22q51 107 180 110q13 0 32 -2q69 -8 96 -44q23 -32 23 -105l-1 -284l3 -16q0 -7 3 -13q4 -19 25 -10q17 8 21 41l1 9v3h11q0 -11 -1 -16q-9 -91 -90 -86q-35 2 -58 24t-19 57q-4 -6 -12 -20q-43 -61 -121 -62q-15 0 -25 1q-106 13 -110 139t100 152
l60 15q108 27 108 71q0 85 -92 85q-14 0 -25 -1q-71 -7 -109 -70zM302 326q-17 -15 -46 -25l-17 -6l-16 -6q-47 -18 -62 -41q-12 -19 -16 -74q-2 -23 -1 -35q3 -50 11 -68q13 -29 53 -36q18 -3 31 0q63 14 63 92v199zM155 646h36q-1 -22 19 -38.5t43 -16.5q30 0 44 18
q7 8 17 46l55 -8q-3 -46 -34.5 -75.5t-77.5 -27.5q-39 2 -74 33t-28 69zM266 654l-59 121h-106l147 -121h18z" />
    <glyph glyph-name="glyph299" unicode="&#x1eb2;" horiz-adv-x="581" 
d="M165 259h182l-91 283zM-39 10q74 -2 111 99l227 625l218 -625q35 -101 103 -99v-10h-294v10h15q57 7 57 56q0 19 -7 43l-36 122h-201l-40 -122q-8 -24 -8 -45q0 -47 55 -54h15v-10h-215v10zM197 846h36q-1 -22 19 -38.5t43 -16.5q30 0 44 18q7 8 17 46l55 -8
q-3 -46 -34.5 -75.5t-77.5 -27.5q-39 2 -74 33t-28 69zM245 978q2 26 26 42q21 15 49 15q29 1 50 -14.5t21 -44.5q0 -38 -40 -62l-5 -3l-15 -10q-25 -17 -27 -43v-4h-5v5l2 21q1 12 8 28l1 1l11 24q5 10 5 19q1 24 -11 37t-36 9q-17 -3 -26 -15q0 -2 -3 -5h-5z" />
    <glyph glyph-name="glyph300" unicode="&#x1eb3;" horiz-adv-x="479" 
d="M77 382h-9q3 9 9 22q51 107 180 110q13 0 32 -2q69 -8 96 -44q23 -32 23 -105l-1 -284l3 -16q0 -7 3 -13q4 -19 25 -10q17 8 21 41l1 9v3h11q0 -11 -1 -16q-9 -91 -90 -86q-35 2 -58 24t-19 57q-4 -6 -12 -20q-43 -61 -121 -62q-15 0 -25 1q-106 13 -110 139t100 152
l60 15q108 27 108 71q0 85 -92 85q-14 0 -25 -1q-71 -7 -109 -70zM302 326q-17 -15 -46 -25l-17 -6l-16 -6q-47 -18 -62 -41q-12 -19 -16 -74q-2 -23 -1 -35q3 -50 11 -68q13 -29 53 -36q18 -3 31 0q63 14 63 92v199zM155 646h36q-1 -22 19 -38.5t43 -16.5q30 0 44 18
q7 8 17 46l55 -8q-3 -46 -34.5 -75.5t-77.5 -27.5q-39 2 -74 33t-28 69zM203 778q2 26 26 42q21 15 49 15q29 1 50 -14.5t21 -44.5q0 -38 -40 -62l-5 -3l-15 -10q-25 -17 -27 -43v-4h-5v5l2 21q1 12 8 28l1 1l11 24q5 10 5 19q1 24 -11 37t-36 9q-17 -3 -26 -15q0 -2 -3 -5
h-5z" />
    <glyph glyph-name="glyph301" unicode="&#x1eb4;" horiz-adv-x="581" 
d="M165 259h182l-91 283zM-39 10q74 -2 111 99l227 625l218 -625q35 -101 103 -99v-10h-294v10h15q57 7 57 56q0 19 -7 43l-36 122h-201l-40 -122q-8 -24 -8 -45q0 -47 55 -54h15v-10h-215v10zM197 846h36q-1 -22 19 -38.5t43 -16.5q30 0 44 18q7 8 17 46l55 -8
q-3 -46 -34.5 -75.5t-77.5 -27.5q-39 2 -74 33t-28 69zM299 884q7 31 24 57q22 33 48 33q16 0 30 -12l33 -28l9 -5q11 -6 21.5 0.5t13.5 19.5q1 2 1 5l33 3q-7 -32 -24 -57q-21 -32 -48 -32q-16 0 -30 12l-33 28l-9 5q-11 6 -21.5 -1t-13.5 -19q-1 -2 -1 -6z" />
    <glyph glyph-name="glyph302" unicode="&#x1eb5;" horiz-adv-x="479" 
d="M77 382h-9q3 9 9 22q51 107 180 110q13 0 32 -2q69 -8 96 -44q23 -32 23 -105l-1 -284l3 -16q0 -7 3 -13q4 -19 25 -10q17 8 21 41l1 9v3h11q0 -11 -1 -16q-9 -91 -90 -86q-35 2 -58 24t-19 57q-4 -6 -12 -20q-43 -61 -121 -62q-15 0 -25 1q-106 13 -110 139t100 152
l60 15q108 27 108 71q0 85 -92 85q-14 0 -25 -1q-71 -7 -109 -70zM302 326q-17 -15 -46 -25l-17 -6l-16 -6q-47 -18 -62 -41q-12 -19 -16 -74q-2 -23 -1 -35q3 -50 11 -68q13 -29 53 -36q18 -3 31 0q63 14 63 92v199zM155 646h36q-1 -22 19 -38.5t43 -16.5q30 0 44 18
q7 8 17 46l55 -8q-3 -46 -34.5 -75.5t-77.5 -27.5q-39 2 -74 33t-28 69zM257 684q7 31 24 57q22 33 48 33q16 0 30 -12l33 -28l9 -5q11 -6 21.5 0.5t13.5 19.5q1 2 1 5l33 3q-7 -32 -24 -57q-21 -32 -48 -32q-16 0 -30 12l-33 28l-9 5q-11 6 -21.5 -1t-13.5 -19q-1 -2 -1 -6
z" />
    <glyph glyph-name="glyph303" unicode="&#x1eb6;" horiz-adv-x="581" 
d="M165 259h182l-91 283zM-39 10q74 -2 111 99l227 625l218 -625q35 -101 103 -99v-10h-294v10h15q57 7 57 56q0 19 -7 43l-36 122h-201l-40 -122q-8 -24 -8 -45q0 -47 55 -54h15v-10h-215v10zM197 846h36q-1 -22 19 -38.5t43 -16.5q30 0 44 18q7 8 17 46l55 -8
q-3 -46 -34.5 -75.5t-77.5 -27.5q-39 2 -74 33t-28 69zM190 -56q0 24 18 40t43 16t43.5 -16t18.5 -40q0 -23 -18.5 -39t-42.5 -16q-25 0 -43.5 15.5t-18.5 39.5z" />
    <glyph glyph-name="glyph304" unicode="&#x1eb7;" horiz-adv-x="479" 
d="M77 382h-9q3 9 9 22q51 107 180 110q13 0 32 -2q69 -8 96 -44q23 -32 23 -105l-1 -284l3 -16q0 -7 3 -13q4 -19 25 -10q17 8 21 41l1 9v3h11q0 -11 -1 -16q-9 -91 -90 -86q-35 2 -58 24t-19 57q-4 -6 -12 -20q-43 -61 -121 -62q-15 0 -25 1q-106 13 -110 139t100 152
l60 15q108 27 108 71q0 85 -92 85q-14 0 -25 -1q-71 -7 -109 -70zM302 326q-17 -15 -46 -25l-17 -6l-16 -6q-47 -18 -62 -41q-12 -19 -16 -74q-2 -23 -1 -35q3 -50 11 -68q13 -29 53 -36q18 -3 31 0q63 14 63 92v199zM155 646h36q-1 -22 19 -38.5t43 -16.5q30 0 44 18
q7 8 17 46l55 -8q-3 -46 -34.5 -75.5t-77.5 -27.5q-39 2 -74 33t-28 69zM166 -107q0 24 18 40t43 16t43.5 -16t18.5 -40q0 -23 -18.5 -39t-42.5 -16q-25 0 -43.5 15.5t-18.5 39.5z" />
    <glyph glyph-name="glyph305" unicode="&#x1eb8;" horiz-adv-x="514" 
d="M15 710v10h440v-174h-10q-16 145 -195 145h-50v-304h44q111 0 138 76q7 20 7 34l11 1v-246h-11q-2 8 -2 12q-21 95 -142 95h-45v-330h74q163 0 191 134q3 14 3 26h11v-189h-463v10q8 0 12 1q57 8 57 98v502q0 99 -70 99zM190 -96q0 24 18 40t43 16t43.5 -16t18.5 -40
q0 -23 -18.5 -39t-42.5 -16q-25 0 -43.5 15.5t-18.5 39.5z" />
    <glyph glyph-name="glyph306" unicode="&#x1eb9;" horiz-adv-x="497" 
d="M462 277h-308q-2 -13 -1 -28q7 -145 109 -177q22 -7 46 -7q56 0 96 38q37 35 48 92l10 -1q0 -11 -3 -31q-12 -78 -66.5 -126t-132.5 -48q-22 0 -47 5q-93 18 -139 100q-40 71 -36 172q4 104 62 174q63 77 164 77q63 0 112.5 -35t70.5 -94q18 -52 15 -111zM154 298h198v21
q0 184 -90 184t-107 -178v-13q-1 -9 -1 -14zM196 -117q0 24 18 40t43 16t43.5 -16t18.5 -40q0 -23 -18.5 -39t-42.5 -16q-25 0 -43.5 15.5t-18.5 39.5z" />
    <glyph glyph-name="glyph307" unicode="&#x1eba;" horiz-adv-x="514" 
d="M15 710v10h440v-174h-10q-16 145 -195 145h-50v-304h44q111 0 138 76q7 20 7 34l11 1v-246h-11q-2 8 -2 12q-21 95 -142 95h-45v-330h74q163 0 191 134q3 14 3 26h11v-189h-463v10q8 0 12 1q57 8 57 98v502q0 99 -70 99zM195 878q2 26 26 42q21 15 49 15q29 1 50 -14.5
t21 -44.5q0 -38 -40 -62l-5 -3l-15 -10q-25 -17 -27 -43v-4h-5v5l2 21q1 12 8 28l1 1l11 24q5 10 5 19q1 24 -11 37t-36 9q-17 -3 -26 -15q0 -2 -3 -5h-5z" />
    <glyph glyph-name="glyph308" unicode="&#x1ebb;" horiz-adv-x="497" 
d="M462 277h-308q-2 -13 -1 -28q7 -145 109 -177q22 -7 46 -7q56 0 96 38q37 35 48 92l10 -1q0 -11 -3 -31q-12 -78 -66.5 -126t-132.5 -48q-22 0 -47 5q-93 18 -139 100q-40 71 -36 172q4 104 62 174q63 77 164 77q63 0 112.5 -35t70.5 -94q18 -52 15 -111zM154 298h198v21
q0 184 -90 184t-107 -178v-13q-1 -9 -1 -14zM213 678q2 26 26 42q21 15 49 15q29 1 50 -14.5t21 -44.5q0 -38 -40 -62l-5 -3l-15 -10q-25 -17 -27 -43v-4h-5v5l2 21q1 12 8 28l1 1l11 24q5 10 5 19q1 24 -11 37t-36 9q-17 -3 -26 -15q0 -2 -3 -5h-5z" />
    <glyph glyph-name="glyph309" unicode="&#x1ebc;" horiz-adv-x="514" 
d="M15 710v10h440v-174h-10q-16 145 -195 145h-50v-304h44q111 0 138 76q7 20 7 34l11 1v-246h-11q-2 8 -2 12q-21 95 -142 95h-45v-330h74q163 0 191 134q3 14 3 26h11v-189h-463v10q8 0 12 1q57 8 57 98v502q0 99 -70 99zM158 778q7 32 23 57q22 33 49 33q16 0 30 -12
l33 -28l9 -5q11 -6 21.5 1t13.5 19q1 2 2 5l32 3q-19 -89 -72 -89q-16 0 -30 12l-33 28l-9 5q-11 6 -21.5 -1t-13.5 -19q0 -2 -1 -5z" />
    <glyph glyph-name="glyph310" unicode="&#x1ebd;" horiz-adv-x="497" 
d="M462 277h-308q-2 -13 -1 -28q7 -145 109 -177q22 -7 46 -7q56 0 96 38q37 35 48 92l10 -1q0 -11 -3 -31q-12 -78 -66.5 -126t-132.5 -48q-22 0 -47 5q-93 18 -139 100q-40 71 -36 172q4 104 62 174q63 77 164 77q63 0 112.5 -35t70.5 -94q18 -52 15 -111zM154 298h198v21
q0 184 -90 184t-107 -178v-13q-1 -9 -1 -14zM156 578q7 32 23 57q22 33 49 33q16 0 30 -12l33 -28l9 -5q11 -6 21.5 1t13.5 19q1 2 2 5l32 3q-19 -89 -72 -89q-16 0 -30 12l-33 28l-9 5q-11 6 -21.5 -1t-13.5 -19q0 -2 -1 -5z" />
    <glyph glyph-name="glyph311" unicode="&#x1ebe;" horiz-adv-x="514" 
d="M15 710v10h440v-174h-10q-16 145 -195 145h-50v-304h44q111 0 138 76q7 20 7 34l11 1v-246h-11q-2 8 -2 12q-21 95 -142 95h-45v-330h74q163 0 191 134q3 14 3 26h11v-189h-463v10q8 0 12 1q57 8 57 98v502q0 99 -70 99zM158 747l91 139l30 -10l82 -129h-65l-47 79
l-55 -79h-36zM330 826l58 121h107l-147 -121h-18z" />
    <glyph glyph-name="glyph312" unicode="&#x1ebf;" horiz-adv-x="497" 
d="M462 277h-308q-2 -13 -1 -28q7 -145 109 -177q22 -7 46 -7q56 0 96 38q37 35 48 92l10 -1q0 -11 -3 -31q-12 -78 -66.5 -126t-132.5 -48q-22 0 -47 5q-93 18 -139 100q-40 71 -36 172q4 104 62 174q63 77 164 77q63 0 112.5 -35t70.5 -94q18 -52 15 -111zM154 298h198v21
q0 184 -90 184t-107 -178v-13q-1 -9 -1 -14zM177 535l90 139l30 -10l82 -129h-65l-47 79l-54 -79h-36zM348 614l59 121h106l-147 -121h-18z" />
    <glyph glyph-name="glyph313" unicode="&#x1ec0;" horiz-adv-x="514" 
d="M15 710v10h440v-174h-10q-16 145 -195 145h-50v-304h44q111 0 138 76q7 20 7 34l11 1v-246h-11q-2 8 -2 12q-21 95 -142 95h-45v-330h74q163 0 191 134q3 14 3 26h11v-189h-463v10q8 0 12 1q57 8 57 98v502q0 99 -70 99zM158 747l91 139l30 -10l82 -129h-65l-47 79
l-55 -79h-36zM189 826l-59 121h-106l147 -121h18z" />
    <glyph glyph-name="glyph314" unicode="&#x1ec1;" horiz-adv-x="497" 
d="M462 277h-308q-2 -13 -1 -28q7 -145 109 -177q22 -7 46 -7q56 0 96 38q37 35 48 92l10 -1q0 -11 -3 -31q-12 -78 -66.5 -126t-132.5 -48q-22 0 -47 5q-93 18 -139 100q-40 71 -36 172q4 104 62 174q63 77 164 77q63 0 112.5 -35t70.5 -94q18 -52 15 -111zM154 298h198v21
q0 184 -90 184t-107 -178v-13q-1 -9 -1 -14zM177 535l90 139l30 -10l82 -129h-65l-47 79l-54 -79h-36zM207 614l-59 121h-106l147 -121h18z" />
    <glyph glyph-name="glyph315" unicode="&#x1ec2;" horiz-adv-x="514" 
d="M15 710v10h440v-174h-10q-16 145 -195 145h-50v-304h44q111 0 138 76q7 20 7 34l11 1v-246h-11q-2 8 -2 12q-21 95 -142 95h-45v-330h74q163 0 191 134q3 14 3 26h11v-189h-463v10q8 0 12 1q57 8 57 98v502q0 99 -70 99zM158 747l91 139l30 -10l82 -129h-65l-47 79
l-55 -79h-36zM275 950q1 25 26 42q22 15 48 15q30 0 51 -15t21 -44q0 -31 -41 -62l-4 -3l-15 -10q-25 -17 -27 -43q-1 -1 -1 -4h-4v15l2 11q1 14 8 27v2l7 13l4 11q6 11 6 19q0 55 -48 46q-16 -3 -25 -15q-1 -1 -4 -5h-4z" />
    <glyph glyph-name="glyph316" unicode="&#x1ec3;" horiz-adv-x="497" 
d="M462 277h-308q-2 -13 -1 -28q7 -145 109 -177q22 -7 46 -7q56 0 96 38q37 35 48 92l10 -1q0 -11 -3 -31q-12 -78 -66.5 -126t-132.5 -48q-22 0 -47 5q-93 18 -139 100q-40 71 -36 172q4 104 62 174q63 77 164 77q63 0 112.5 -35t70.5 -94q18 -52 15 -111zM154 298h198v21
q0 184 -90 184t-107 -178v-13q-1 -9 -1 -14zM177 535l90 139l30 -10l82 -129h-65l-47 79l-54 -79h-36zM293 738q2 26 26 42q21 15 49 15q29 1 50 -14.5t21 -44.5q0 -38 -40 -62l-5 -3l-15 -10q-25 -17 -27 -43v-4h-5v5l2 21q1 12 8 28l1 1l11 24q5 10 5 19q1 24 -11 37
t-36 9q-17 -3 -26 -15q0 -2 -3 -5h-5z" />
    <glyph glyph-name="glyph317" unicode="&#x1ec4;" horiz-adv-x="514" 
d="M15 710v10h440v-174h-10q-16 145 -195 145h-50v-304h44q111 0 138 76q7 20 7 34l11 1v-246h-11q-2 8 -2 12q-21 95 -142 95h-45v-330h74q163 0 191 134q3 14 3 26h11v-189h-463v10q8 0 12 1q57 8 57 98v502q0 99 -70 99zM158 747l91 139l30 -10l82 -129h-65l-47 79
l-55 -79h-36zM158 910q7 31 24 57q22 33 48 33q16 0 30 -12l33 -28l9 -6q5 -3 10 -3q19 0 25 24q0 2 1 5l33 3q-22 -89 -72 -89q-15 0 -30 12l-33 27l-9 6q-5 3 -10 3q-19 0 -25 -24q-1 -1 -2 -5z" />
    <glyph glyph-name="glyph318" unicode="&#x1ec5;" horiz-adv-x="497" 
d="M462 277h-308q-2 -13 -1 -28q7 -145 109 -177q22 -7 46 -7q56 0 96 38q37 35 48 92l10 -1q0 -11 -3 -31q-12 -78 -66.5 -126t-132.5 -48q-22 0 -47 5q-93 18 -139 100q-40 71 -36 172q4 104 62 174q63 77 164 77q63 0 112.5 -35t70.5 -94q18 -52 15 -111zM154 298h198v21
q0 184 -90 184t-107 -178v-13q-1 -9 -1 -14zM177 535l90 139l30 -10l82 -129h-65l-47 79l-54 -79h-36zM176 698q7 32 23 57q22 33 49 33q16 0 30 -12l33 -28l9 -5q11 -6 21.5 1t13.5 19q1 2 2 5l32 3q-19 -89 -72 -89q-16 0 -30 12l-33 28l-9 5q-11 6 -21.5 -1t-13.5 -19
q0 -2 -1 -5z" />
    <glyph glyph-name="glyph319" unicode="&#x1ec6;" horiz-adv-x="514" 
d="M15 710v10h440v-174h-10q-16 145 -195 145h-50v-304h44q111 0 138 76q7 20 7 34l11 1v-246h-11q-2 8 -2 12q-21 95 -142 95h-45v-330h74q163 0 191 134q3 14 3 26h11v-189h-463v10q8 0 12 1q57 8 57 98v502q0 99 -70 99zM158 747l91 139l30 -10l82 -129h-65l-47 79
l-55 -79h-36zM190 -96q0 24 18 40t43 16t43.5 -16t18.5 -40q0 -23 -18.5 -39t-42.5 -16q-25 0 -43.5 15.5t-18.5 39.5z" />
    <glyph glyph-name="glyph320" unicode="&#x1ec7;" horiz-adv-x="497" 
d="M462 277h-308q-2 -13 -1 -28q7 -145 109 -177q22 -7 46 -7q56 0 96 38q37 35 48 92l10 -1q0 -11 -3 -31q-12 -78 -66.5 -126t-132.5 -48q-22 0 -47 5q-93 18 -139 100q-40 71 -36 172q4 104 62 174q63 77 164 77q63 0 112.5 -35t70.5 -94q18 -52 15 -111zM154 298h198v21
q0 184 -90 184t-107 -178v-13q-1 -9 -1 -14zM196 -117q0 24 18 40t43 16t43.5 -16t18.5 -40q0 -23 -18.5 -39t-42.5 -16q-25 0 -43.5 15.5t-18.5 39.5zM177 535l90 139l30 -10l82 -129h-65l-47 79l-54 -79h-36z" />
    <glyph glyph-name="glyph321" unicode="&#x1ec8;" horiz-adv-x="284" 
d="M15 10q8 0 12 1q57 8 57 99v501q0 90 -56 98q-4 1 -12 1v10h253v-10q-8 0 -12 -1q-58 -8 -58 -98v-502q0 -90 57 -98q4 -1 12 -1v-10h-253v10zM85 878q2 26 26 42q21 15 49 15q29 1 50 -14.5t21 -44.5q0 -38 -40 -62l-5 -3l-15 -10q-25 -17 -27 -43v-4h-5v5l2 21
q1 12 8 28l1 1l11 24q5 10 5 19q1 24 -11 37t-36 9q-17 -3 -26 -15q0 -2 -3 -5h-5z" />
    <glyph glyph-name="glyph322" unicode="&#x1ec9;" horiz-adv-x="248" 
d="M22 10q28 3 42 29q8 15 8 50l-2 312q0 71 -41 78h-6v10q38 3 84 10q16 2 70 14v-424q0 -32 8 -50q15 -26 41 -29v-10h-204v10zM53 663q2 26 26 42q21 15 49 15q29 1 50 -14.5t21 -44.5q0 -38 -40 -62l-5 -3l-15 -10q-25 -17 -27 -43v-4h-5v5l2 21q1 12 8 28l1 1l11 24
q5 10 5 19q1 24 -11 37t-36 9q-17 -3 -26 -15q0 -2 -3 -5h-5z" />
    <glyph glyph-name="glyph323" unicode="&#x1eca;" horiz-adv-x="284" 
d="M15 10q8 0 12 1q57 8 57 99v501q0 90 -56 98q-4 1 -12 1v10h253v-10q-8 0 -12 -1q-58 -8 -58 -98v-502q0 -90 57 -98q4 -1 12 -1v-10h-253v10zM82 -93q0 24 18.5 40t42.5 16q25 0 43.5 -16t18.5 -40q0 -23 -18.5 -39t-42.5 -16t-43 15.5t-19 39.5z" />
    <glyph glyph-name="glyph324" unicode="&#x1ecb;" horiz-adv-x="248" 
d="M22 10q28 3 42 29q8 15 8 50l-2 312q0 71 -41 78h-6v10q38 3 84 10q16 2 70 14v-424q0 -32 8 -50q15 -26 41 -29v-10h-204v10zM61 612q0 24 17 41t41 17q25 0 42 -16.5t17 -41.5q0 -24 -17 -41.5t-41 -17.5q-25 -1 -42 16.5t-17 42.5zM63 -101q0 24 18 39.5t43 15.5
q24 0 42.5 -16t18.5 -39q0 -24 -18 -40t-43 -16q-24 0 -42.5 16t-18.5 40z" />
    <glyph glyph-name="glyph325" unicode="&#x1ecc;" horiz-adv-x="680" 
d="M38 364q0 39 5 77q18 135 89 211q77 85 208 85q149 0 230 -116q71 -100 72 -257q1 -142 -58 -240q-68 -114 -199 -131q-23 -3 -46 -3q-149 0 -230 116q-71 102 -71 258zM154 506q-3 -67 16 -163q47 -235 124 -293q38 -29 83 -29q43 0 78 25t51 66q22 55 22 126
q0 91 -35 227q-42 164 -106 212q-38 29 -85 29q-43 0 -77.5 -25t-49.5 -65q-18 -48 -21 -110zM323 -105q0 24 18 40t43 16t43.5 -16t18.5 -40q0 -23 -18.5 -39t-42.5 -16q-25 0 -43.5 15.5t-18.5 39.5z" />
    <glyph glyph-name="glyph326" unicode="&#x1ecd;" horiz-adv-x="532" 
d="M38 251q0 114 56 186q61 78 172 78q94 0 154 -59q57 -56 70 -151q4 -29 4 -61q0 -110 -58 -181q-62 -76 -170 -76q-111 0 -172 79q-56 71 -56 185zM139 353q-1 -46 12 -115q44 -224 134 -233q107 -11 107 149q0 71 -24 168q-42 170 -120 176q-104 9 -109 -145zM206 -117
q0 24 18 40t43 16t43.5 -16t18.5 -40q0 -23 -18.5 -39t-42.5 -16q-25 0 -43.5 15.5t-18.5 39.5z" />
    <glyph glyph-name="glyph327" unicode="&#x1ece;" horiz-adv-x="680" 
d="M38 364q0 39 5 77q18 135 89 211q77 85 208 85q149 0 230 -116q71 -100 72 -257q1 -142 -58 -240q-68 -114 -199 -131q-23 -3 -46 -3q-149 0 -230 116q-71 102 -71 258zM154 506q-3 -67 16 -163q47 -235 124 -293q38 -29 83 -29q43 0 78 25t51 66q22 55 22 126
q0 91 -35 227q-42 164 -106 212q-38 29 -85 29q-43 0 -77.5 -25t-49.5 -65q-18 -48 -21 -110zM285 898q2 26 26 42q21 15 49 15q29 1 50 -14.5t21 -44.5q0 -38 -40 -62l-5 -3l-15 -10q-25 -17 -27 -43v-4h-5v5l2 21q1 12 8 28l1 1l11 24q5 10 5 19q1 24 -11 37t-36 9
q-17 -3 -26 -15q0 -2 -3 -5h-5z" />
    <glyph glyph-name="glyph328" unicode="&#x1ecf;" horiz-adv-x="532" 
d="M38 251q0 114 56 186q61 78 172 78q94 0 154 -59q57 -56 70 -151q4 -29 4 -61q0 -110 -58 -181q-62 -76 -170 -76q-111 0 -172 79q-56 71 -56 185zM139 353q-1 -46 12 -115q44 -224 134 -233q107 -11 107 149q0 71 -24 168q-42 170 -120 176q-104 9 -109 -145zM213 678
q2 26 26 42q21 15 49 15q29 1 50 -14.5t21 -44.5q0 -38 -40 -62l-5 -3l-15 -10q-25 -17 -27 -43v-4h-5v5l2 21q1 12 8 28l1 1l11 24q5 10 5 19q1 24 -11 37t-36 9q-17 -3 -26 -15q0 -2 -3 -5h-5z" />
    <glyph glyph-name="glyph329" unicode="&#x1ed0;" horiz-adv-x="680" 
d="M38 364q0 39 5 77q18 135 89 211q77 85 208 85q149 0 230 -116q71 -100 72 -257q1 -142 -58 -240q-68 -114 -199 -131q-23 -3 -46 -3q-149 0 -230 116q-71 102 -71 258zM154 506q-3 -67 16 -163q47 -235 124 -293q38 -29 83 -29q43 0 78 25t51 66q22 55 22 126
q0 91 -35 227q-42 164 -106 212q-38 29 -85 29q-43 0 -77.5 -25t-49.5 -65q-18 -48 -21 -110zM248 757l91 139l30 -10l82 -129h-65l-47 79l-55 -79h-36zM420 836l58 121h107l-147 -121h-18z" />
    <glyph glyph-name="glyph330" unicode="&#x1ed1;" horiz-adv-x="532" 
d="M38 251q0 114 56 186q61 78 172 78q94 0 154 -59q57 -56 70 -151q4 -29 4 -61q0 -110 -58 -181q-62 -76 -170 -76q-111 0 -172 79q-56 71 -56 185zM139 353q-1 -46 12 -115q44 -224 134 -233q107 -11 107 149q0 71 -24 168q-42 170 -120 176q-104 9 -109 -145zM177 535
l90 139l30 -10l82 -129h-65l-47 79l-54 -79h-36zM348 614l59 121h106l-147 -121h-18z" />
    <glyph glyph-name="glyph331" unicode="&#x1ed2;" horiz-adv-x="680" 
d="M38 364q0 39 5 77q18 135 89 211q77 85 208 85q149 0 230 -116q71 -100 72 -257q1 -142 -58 -240q-68 -114 -199 -131q-23 -3 -46 -3q-149 0 -230 116q-71 102 -71 258zM154 506q-3 -67 16 -163q47 -235 124 -293q38 -29 83 -29q43 0 78 25t51 66q22 55 22 126
q0 91 -35 227q-42 164 -106 212q-38 29 -85 29q-43 0 -77.5 -25t-49.5 -65q-18 -48 -21 -110zM248 757l91 139l30 -10l82 -129h-65l-47 79l-55 -79h-36zM279 836l-59 121h-106l147 -121h18z" />
    <glyph glyph-name="glyph332" unicode="&#x1ed3;" horiz-adv-x="532" 
d="M38 251q0 114 56 186q61 78 172 78q94 0 154 -59q57 -56 70 -151q4 -29 4 -61q0 -110 -58 -181q-62 -76 -170 -76q-111 0 -172 79q-56 71 -56 185zM139 353q-1 -46 12 -115q44 -224 134 -233q107 -11 107 149q0 71 -24 168q-42 170 -120 176q-104 9 -109 -145zM177 535
l90 139l30 -10l82 -129h-65l-47 79l-54 -79h-36zM207 614l-59 121h-106l147 -121h18z" />
    <glyph glyph-name="glyph333" unicode="&#x1ed4;" horiz-adv-x="680" 
d="M38 364q0 39 5 77q18 135 89 211q77 85 208 85q149 0 230 -116q71 -100 72 -257q1 -142 -58 -240q-68 -114 -199 -131q-23 -3 -46 -3q-149 0 -230 116q-71 102 -71 258zM154 506q-3 -67 16 -163q47 -235 124 -293q38 -29 83 -29q43 0 78 25t51 66q22 55 22 126
q0 91 -35 227q-42 164 -106 212q-38 29 -85 29q-43 0 -77.5 -25t-49.5 -65q-18 -48 -21 -110zM248 757l91 139l30 -10l82 -129h-65l-47 79l-55 -79h-36zM365 960q1 25 26 42q22 15 48 15q30 0 51 -15t21 -44q0 -31 -41 -62l-4 -3l-15 -10q-25 -17 -27 -43q-1 -1 -1 -4h-4v15
l2 11q1 14 8 27v2l7 13l4 11q6 11 6 19q0 55 -48 46q-16 -3 -25 -15q-1 -1 -4 -5h-4z" />
    <glyph glyph-name="glyph334" unicode="&#x1ed5;" horiz-adv-x="532" 
d="M38 251q0 114 56 186q61 78 172 78q94 0 154 -59q57 -56 70 -151q4 -29 4 -61q0 -110 -58 -181q-62 -76 -170 -76q-111 0 -172 79q-56 71 -56 185zM139 353q-1 -46 12 -115q44 -224 134 -233q107 -11 107 149q0 71 -24 168q-42 170 -120 176q-104 9 -109 -145zM177 535
l90 139l30 -10l82 -129h-65l-47 79l-54 -79h-36zM293 738q2 26 26 42q21 15 49 15q29 1 50 -14.5t21 -44.5q0 -38 -40 -62l-5 -3l-15 -10q-25 -17 -27 -43v-4h-5v5l2 21q1 12 8 28l1 1l11 24q5 10 5 19q1 24 -11 37t-36 9q-17 -3 -26 -15q0 -2 -3 -5h-5z" />
    <glyph glyph-name="glyph335" unicode="&#x1ed6;" horiz-adv-x="680" 
d="M38 364q0 39 5 77q18 135 89 211q77 85 208 85q149 0 230 -116q71 -100 72 -257q1 -142 -58 -240q-68 -114 -199 -131q-23 -3 -46 -3q-149 0 -230 116q-71 102 -71 258zM154 506q-3 -67 16 -163q47 -235 124 -293q38 -29 83 -29q43 0 78 25t51 66q22 55 22 126
q0 91 -35 227q-42 164 -106 212q-38 29 -85 29q-43 0 -77.5 -25t-49.5 -65q-18 -48 -21 -110zM248 757l91 139l30 -10l82 -129h-65l-47 79l-55 -79h-36zM248 920q7 31 24 57q22 33 48 33q16 0 30 -12l33 -28l9 -6q5 -3 10 -3q19 0 25 24q0 2 1 5l33 3q-22 -89 -72 -89
q-15 0 -30 12l-33 27l-9 6q-5 3 -10 3q-19 0 -25 -24q-1 -1 -2 -5z" />
    <glyph glyph-name="glyph336" unicode="&#x1ed7;" horiz-adv-x="532" 
d="M38 251q0 114 56 186q61 78 172 78q94 0 154 -59q57 -56 70 -151q4 -29 4 -61q0 -110 -58 -181q-62 -76 -170 -76q-111 0 -172 79q-56 71 -56 185zM139 353q-1 -46 12 -115q44 -224 134 -233q107 -11 107 149q0 71 -24 168q-42 170 -120 176q-104 9 -109 -145zM177 535
l90 139l30 -10l82 -129h-65l-47 79l-54 -79h-36zM176 698q7 32 23 57q22 33 49 33q16 0 30 -12l33 -28l9 -5q11 -6 21.5 1t13.5 19q1 2 2 5l32 3q-19 -89 -72 -89q-16 0 -30 12l-33 28l-9 5q-11 6 -21.5 -1t-13.5 -19q0 -2 -1 -5z" />
    <glyph glyph-name="glyph337" unicode="&#x1ed8;" horiz-adv-x="680" 
d="M38 364q0 39 5 77q18 135 89 211q77 85 208 85q149 0 230 -116q71 -100 72 -257q1 -142 -58 -240q-68 -114 -199 -131q-23 -3 -46 -3q-149 0 -230 116q-71 102 -71 258zM154 506q-3 -67 16 -163q47 -235 124 -293q38 -29 83 -29q43 0 78 25t51 66q22 55 22 126
q0 91 -35 227q-42 164 -106 212q-38 29 -85 29q-43 0 -77.5 -25t-49.5 -65q-18 -48 -21 -110zM248 757l91 139l30 -10l82 -129h-65l-47 79l-55 -79h-36zM323 -105q0 24 18 40t43 16t43.5 -16t18.5 -40q0 -23 -18.5 -39t-42.5 -16q-25 0 -43.5 15.5t-18.5 39.5z" />
    <glyph glyph-name="glyph338" unicode="&#x1ed9;" horiz-adv-x="532" 
d="M38 251q0 114 56 186q61 78 172 78q94 0 154 -59q57 -56 70 -151q4 -29 4 -61q0 -110 -58 -181q-62 -76 -170 -76q-111 0 -172 79q-56 71 -56 185zM139 353q-1 -46 12 -115q44 -224 134 -233q107 -11 107 149q0 71 -24 168q-42 170 -120 176q-104 9 -109 -145zM177 535
l90 139l30 -10l82 -129h-65l-47 79l-54 -79h-36zM206 -117q0 24 18 40t43 16t43.5 -16t18.5 -40q0 -23 -18.5 -39t-42.5 -16q-25 0 -43.5 15.5t-18.5 39.5z" />
    <glyph glyph-name="glyph339" unicode="&#x1eda;" horiz-adv-x="680" 
d="M154 506q-3 -67 16 -163q47 -235 124 -293q38 -29 83 -29q43 0 78 25t51 66q22 55 22 126q0 91 -35 227q-42 164 -106 212q-39 29 -85 29q-43 0 -77.5 -25t-49.5 -65q-18 -48 -21 -110zM560 797q21 -2 58 -14q27 -17 27 -48q0 -38 -35 -59q-28 -17 -69 -19
q100 -102 101 -293q1 -142 -58 -240q-68 -114 -199 -131q-23 -3 -46 -3q-149 0 -230 116q-71 102 -71 258q0 39 5 77q18 135 89 211q77 85 208 85q114 0 192 -72q22 4 39 19t17 36q0 28 -28 36l-20 4q0 7 20 37zM331 781l59 121h106l-147 -121h-18z" />
    <glyph glyph-name="glyph340" unicode="&#x1edb;" horiz-adv-x="532" 
d="M139 353q-1 -46 12 -115q44 -224 134 -233q107 -11 107 149q0 71 -24 168q-42 170 -120 176q-104 9 -109 -145zM436 595q21 -6 55 -24q18 -17 18 -42q0 -35 -30 -54q-26 -16 -62 -16q59 -56 73 -154q4 -29 4 -61q0 -110 -58 -181q-62 -76 -170 -76q-111 0 -172 79
q-56 71 -56 185t56 186q61 78 172 78q80 0 136 -44q48 11 48 50q0 23 -21 34q-10 4 -18 6q-2 0 -2 1q0 6 27 33zM257 564l59 121h106l-147 -121h-18z" />
    <glyph glyph-name="glyph341" unicode="&#x1edc;" horiz-adv-x="680" 
d="M154 506q-3 -67 16 -163q47 -235 124 -293q38 -29 83 -29q43 0 78 25t51 66q22 55 22 126q0 91 -35 227q-42 164 -106 212q-39 29 -85 29q-43 0 -77.5 -25t-49.5 -65q-18 -48 -21 -110zM560 797q21 -2 58 -14q27 -17 27 -48q0 -38 -35 -59q-28 -17 -69 -19
q100 -102 101 -293q1 -142 -58 -240q-68 -114 -199 -131q-23 -3 -46 -3q-149 0 -230 116q-71 102 -71 258q0 39 5 77q18 135 89 211q77 85 208 85q114 0 192 -72q22 4 39 19t17 36q0 28 -28 36l-20 4q0 7 20 37zM358 781l-59 121h-106l147 -121h18z" />
    <glyph glyph-name="glyph342" unicode="&#x1edd;" horiz-adv-x="532" 
d="M139 353q-1 -46 12 -115q44 -224 134 -233q107 -11 107 149q0 71 -24 168q-42 170 -120 176q-104 9 -109 -145zM436 595q21 -6 55 -24q18 -17 18 -42q0 -35 -30 -54q-26 -16 -62 -16q59 -56 73 -154q4 -29 4 -61q0 -110 -58 -181q-62 -76 -170 -76q-111 0 -172 79
q-56 71 -56 185t56 186q61 78 172 78q80 0 136 -44q48 11 48 50q0 23 -21 34q-10 4 -18 6q-2 0 -2 1q0 6 27 33zM265 563l-59 121h-106l147 -121h18z" />
    <glyph glyph-name="glyph343" unicode="&#x1ede;" horiz-adv-x="680" 
d="M154 506q-3 -67 16 -163q47 -235 124 -293q38 -29 83 -29q43 0 78 25t51 66q22 55 22 126q0 91 -35 227q-42 164 -106 212q-39 29 -85 29q-43 0 -77.5 -25t-49.5 -65q-18 -48 -21 -110zM560 797q21 -2 58 -14q27 -17 27 -48q0 -38 -35 -59q-28 -17 -69 -19
q100 -102 101 -293q1 -142 -58 -240q-68 -114 -199 -131q-23 -3 -46 -3q-149 0 -230 116q-71 102 -71 258q0 39 5 77q18 135 89 211q77 85 208 85q114 0 192 -72q22 4 39 19t17 36q0 28 -28 36l-20 4q0 7 20 37zM285 898q2 26 26 42q21 15 49 15q29 1 50 -14.5t21 -44.5
q0 -38 -40 -62l-5 -3l-15 -10q-25 -17 -27 -43v-4h-5v5l2 21q1 12 8 28l1 1l11 24q5 10 5 19q1 24 -11 37t-36 9q-17 -3 -26 -15q0 -2 -3 -5h-5z" />
    <glyph glyph-name="glyph344" unicode="&#x1edf;" horiz-adv-x="532" 
d="M139 353q-1 -46 12 -115q44 -224 134 -233q107 -11 107 149q0 71 -24 168q-42 170 -120 176q-104 9 -109 -145zM436 595q21 -6 55 -24q18 -17 18 -42q0 -35 -30 -54q-26 -16 -62 -16q59 -56 73 -154q4 -29 4 -61q0 -110 -58 -181q-62 -76 -170 -76q-111 0 -172 79
q-56 71 -56 185t56 186q61 78 172 78q80 0 136 -44q48 11 48 50q0 23 -21 34q-10 4 -18 6q-2 0 -2 1q0 6 27 33zM213 678q2 26 26 42q21 15 49 15q29 1 50 -14.5t21 -44.5q0 -38 -40 -62l-5 -3l-15 -10q-25 -17 -27 -43v-4h-5v5l2 21q1 12 8 28l1 1l11 24q5 10 5 19
q1 24 -11 37t-36 9q-17 -3 -26 -15q0 -2 -3 -5h-5z" />
    <glyph glyph-name="glyph345" unicode="&#x1ee0;" horiz-adv-x="680" 
d="M154 506q-3 -67 16 -163q47 -235 124 -293q38 -29 83 -29q43 0 78 25t51 66q22 55 22 126q0 91 -35 227q-42 164 -106 212q-39 29 -85 29q-43 0 -77.5 -25t-49.5 -65q-18 -48 -21 -110zM560 797q21 -2 58 -14q27 -17 27 -48q0 -38 -35 -59q-28 -17 -69 -19
q100 -102 101 -293q1 -142 -58 -240q-68 -114 -199 -131q-23 -3 -46 -3q-149 0 -230 116q-71 102 -71 258q0 39 5 77q18 135 89 211q77 85 208 85q114 0 192 -72q22 4 39 19t17 36q0 28 -28 36l-20 4q0 7 20 37zM228 788q7 32 23 57q22 33 49 33q16 0 30 -12l33 -28l9 -5
q11 -6 21.5 1t13.5 19q1 2 2 5l32 3q-19 -89 -72 -89q-16 0 -30 12l-33 28l-9 5q-11 6 -21.5 -1t-13.5 -19q0 -2 -1 -5z" />
    <glyph glyph-name="glyph346" unicode="&#x1ee1;" horiz-adv-x="532" 
d="M139 353q-1 -46 12 -115q44 -224 134 -233q107 -11 107 149q0 71 -24 168q-42 170 -120 176q-104 9 -109 -145zM436 595q21 -6 55 -24q18 -17 18 -42q0 -35 -30 -54q-26 -16 -62 -16q59 -56 73 -154q4 -29 4 -61q0 -110 -58 -181q-62 -76 -170 -76q-111 0 -172 79
q-56 71 -56 185t56 186q61 78 172 78q80 0 136 -44q48 11 48 50q0 23 -21 34q-10 4 -18 6q-2 0 -2 1q0 6 27 33zM156 578q7 32 23 57q22 33 49 33q16 0 30 -12l33 -28l9 -5q11 -6 21.5 1t13.5 19q1 2 2 5l32 3q-19 -89 -72 -89q-16 0 -30 12l-33 28l-9 5q-11 6 -21.5 -1
t-13.5 -19q0 -2 -1 -5z" />
    <glyph glyph-name="glyph347" unicode="&#x1ee2;" horiz-adv-x="680" 
d="M154 506q-3 -67 16 -163q47 -235 124 -293q38 -29 83 -29q43 0 78 25t51 66q22 55 22 126q0 91 -35 227q-42 164 -106 212q-39 29 -85 29q-43 0 -77.5 -25t-49.5 -65q-18 -48 -21 -110zM560 797q21 -2 58 -14q27 -17 27 -48q0 -38 -35 -59q-28 -17 -69 -19
q100 -102 101 -293q1 -142 -58 -240q-68 -114 -199 -131q-23 -3 -46 -3q-149 0 -230 116q-71 102 -71 258q0 39 5 77q18 135 89 211q77 85 208 85q114 0 192 -72q22 4 39 19t17 36q0 28 -28 36l-20 4q0 7 20 37zM323 -105q0 24 18 40t43 16t43.5 -16t18.5 -40
q0 -23 -18.5 -39t-42.5 -16q-25 0 -43.5 15.5t-18.5 39.5z" />
    <glyph glyph-name="glyph348" unicode="&#x1ee3;" horiz-adv-x="532" 
d="M139 353q-1 -46 12 -115q44 -224 134 -233q107 -11 107 149q0 71 -24 168q-42 170 -120 176q-104 9 -109 -145zM436 595q21 -6 55 -24q18 -17 18 -42q0 -35 -30 -54q-26 -16 -62 -16q59 -56 73 -154q4 -29 4 -61q0 -110 -58 -181q-62 -76 -170 -76q-111 0 -172 79
q-56 71 -56 185t56 186q61 78 172 78q80 0 136 -44q48 11 48 50q0 23 -21 34q-10 4 -18 6q-2 0 -2 1q0 6 27 33zM206 -117q0 24 18 40t43 16t43.5 -16t18.5 -40q0 -23 -18.5 -39t-42.5 -16q-25 0 -43.5 15.5t-18.5 39.5z" />
    <glyph glyph-name="glyph349" unicode="&#x1ee4;" horiz-adv-x="559" 
d="M11 710v10h252v-10q-66 0 -66 -99v-449q0 -60 22 -90q24 -33 81 -41q15 -2 28 -2q126 0 126 146v436q0 90 -58 98q-4 1 -12 1v10h164v-10q-8 0 -12 -1q-54 -8 -54 -98v-439q0 -161 -158 -184q-37 -5 -74 -1q-92 11 -131 54.5t-39 135.5v434q0 90 -57 98q-4 1 -12 1z
M232 -113q0 24 18.5 40t42.5 16q25 0 43.5 -16t18.5 -40q0 -23 -18.5 -39t-42.5 -16t-43 15.5t-19 39.5z" />
    <glyph glyph-name="glyph350" unicode="&#x1ee5;" horiz-adv-x="546" 
d="M22 492v12h154v-379q0 -94 81 -94q78 0 103 57q8 18 8 53v273q0 73 -48 78l1 12h152v-415q0 -77 51 -79v-10h-156v71l-16 -16q-69 -66 -158 -66q-61 0 -92.5 36t-31.5 98v291q0 73 -48 78zM216 -97q0 24 18 40t43 16t43.5 -16t18.5 -40q0 -23 -18.5 -39t-42.5 -16
q-25 0 -43.5 15.5t-18.5 39.5z" />
    <glyph glyph-name="glyph351" unicode="&#x1ee6;" horiz-adv-x="559" 
d="M11 710v10h252v-10q-66 0 -66 -99v-449q0 -60 22 -90q24 -33 81 -41q15 -2 28 -2q126 0 126 146v436q0 90 -58 98q-4 1 -12 1v10h164v-10q-8 0 -12 -1q-54 -8 -54 -98v-439q0 -161 -158 -184q-37 -5 -74 -1q-92 11 -131 54.5t-39 135.5v434q0 90 -57 98q-4 1 -12 1z
M275 858q2 26 26 42q21 15 49 15q29 1 50 -14.5t21 -44.5q0 -38 -40 -62l-5 -3l-15 -10q-25 -17 -27 -43v-4h-5v5l2 21q1 12 8 28l1 1l11 24q5 10 5 19q1 24 -11 37t-36 9q-17 -3 -26 -15q0 -2 -3 -5h-5z" />
    <glyph glyph-name="glyph352" unicode="&#x1ee7;" horiz-adv-x="546" 
d="M22 492v12h154v-379q0 -94 81 -94q78 0 103 57q8 18 8 53v273q0 73 -48 78l1 12h152v-415q0 -77 51 -79v-10h-156v71l-16 -16q-69 -66 -158 -66q-61 0 -92.5 36t-31.5 98v291q0 73 -48 78zM203 648q2 26 26 42q21 15 49 15q29 1 50 -14.5t21 -44.5q0 -38 -40 -62l-5 -3
l-15 -10q-25 -17 -27 -43v-4h-5v5l2 21q1 12 8 28l1 1l11 24q5 10 5 19q1 24 -11 37t-36 9q-17 -3 -26 -15q0 -2 -3 -5h-5z" />
    <glyph glyph-name="glyph353" unicode="&#x1ee8;" horiz-adv-x="559" 
d="M518 720q2 28 -28 36l-20 4q0 7 20 37q21 -2 58 -14q26 -17 26 -50q0 -31 -25 -50q-10 -8 -62 -25q-5 -20 -5 -47v-439q0 -161 -158 -184q-37 -5 -74 -1q-92 11 -131 54.5t-39 135.5v434q0 90 -57 98q-4 1 -12 1v10h252v-10q-66 0 -66 -99v-449q0 -60 22 -90
q24 -33 81 -41q15 -2 28 -2q126 0 126 146v436q0 90 -58 98q-4 1 -12 1v10l129 -20zM321 751l59 121h106l-147 -121h-18z" />
    <glyph glyph-name="glyph354" unicode="&#x1ee9;" horiz-adv-x="546" 
d="M496 595q21 -6 55 -24q18 -17 18 -42q0 -36 -32 -55q-27 -16 -64 -15v-370q0 -77 51 -79v-10h-156v71l-16 -16q-69 -66 -158 -66q-61 0 -92.5 36t-31.5 98v291q0 73 -48 78v12h154v-379q0 -94 81 -94q78 0 103 57q8 18 8 53v273q0 73 -48 78l1 12h102l50 -29q37 14 37 46
q0 23 -21 34q-10 4 -18 6q-2 0 -2 1q0 6 27 33zM247 534l59 121h106l-147 -121h-18z" />
    <glyph glyph-name="glyph355" unicode="&#x1eea;" horiz-adv-x="559" 
d="M518 720q2 28 -28 36l-20 4q0 7 20 37q21 -2 58 -14q26 -17 26 -50q0 -31 -25 -50q-10 -8 -62 -25q-5 -20 -5 -47v-439q0 -161 -158 -184q-37 -5 -74 -1q-92 11 -131 54.5t-39 135.5v434q0 90 -57 98q-4 1 -12 1v10h252v-10q-66 0 -66 -99v-449q0 -60 22 -90
q24 -33 81 -41q15 -2 28 -2q126 0 126 146v436q0 90 -58 98q-4 1 -12 1v10l129 -20zM338 751l-59 121h-106l147 -121h18z" />
    <glyph glyph-name="glyph356" unicode="&#x1eeb;" horiz-adv-x="546" 
d="M496 595q21 -6 55 -24q18 -17 18 -42q0 -36 -32 -55q-27 -16 -64 -15v-370q0 -77 51 -79v-10h-156v71l-16 -16q-69 -66 -158 -66q-61 0 -92.5 36t-31.5 98v291q0 73 -48 78v12h154v-379q0 -94 81 -94q78 0 103 57q8 18 8 53v273q0 73 -48 78l1 12h102l50 -29q37 14 37 46
q0 23 -21 34q-10 4 -18 6q-2 0 -2 1q0 6 27 33zM265 533l-59 121h-106l147 -121h18z" />
    <glyph glyph-name="glyph357" unicode="&#x1eec;" horiz-adv-x="559" 
d="M518 720q2 28 -28 36l-20 4q0 7 20 37q21 -2 58 -14q26 -17 26 -50q0 -31 -25 -50q-10 -8 -62 -25q-5 -20 -5 -47v-439q0 -161 -158 -184q-37 -5 -74 -1q-92 11 -131 54.5t-39 135.5v434q0 90 -57 98q-4 1 -12 1v10h252v-10q-66 0 -66 -99v-449q0 -60 22 -90
q24 -33 81 -41q15 -2 28 -2q126 0 126 146v436q0 90 -58 98q-4 1 -12 1v10l129 -20zM275 858q2 26 26 42q21 15 49 15q29 1 50 -14.5t21 -44.5q0 -38 -40 -62l-5 -3l-15 -10q-25 -17 -27 -43v-4h-5v5l2 21q1 12 8 28l1 1l11 24q5 10 5 19q1 24 -11 37t-36 9q-17 -3 -26 -15
q0 -2 -3 -5h-5z" />
    <glyph glyph-name="glyph358" unicode="&#x1eed;" horiz-adv-x="546" 
d="M496 595q21 -6 55 -24q18 -17 18 -42q0 -36 -32 -55q-27 -16 -64 -15v-370q0 -77 51 -79v-10h-156v71l-16 -16q-69 -66 -158 -66q-61 0 -92.5 36t-31.5 98v291q0 73 -48 78v12h154v-379q0 -94 81 -94q78 0 103 57q8 18 8 53v273q0 73 -48 78l1 12h102l50 -29q37 14 37 46
q0 23 -21 34q-10 4 -18 6q-2 0 -2 1q0 6 27 33zM203 648q2 26 26 42q21 15 49 15q29 1 50 -14.5t21 -44.5q0 -38 -40 -62l-5 -3l-15 -10q-25 -17 -27 -43v-4h-5v5l2 21q1 12 8 28l1 1l11 24q5 10 5 19q1 24 -11 37t-36 9q-17 -3 -26 -15q0 -2 -3 -5h-5z" />
    <glyph glyph-name="glyph359" unicode="&#x1eee;" horiz-adv-x="559" 
d="M518 720q2 28 -28 36l-20 4q0 7 20 37q21 -2 58 -14q26 -17 26 -50q0 -31 -25 -50q-10 -8 -62 -25q-5 -20 -5 -47v-439q0 -161 -158 -184q-37 -5 -74 -1q-92 11 -131 54.5t-39 135.5v434q0 90 -57 98q-4 1 -12 1v10h252v-10q-66 0 -66 -99v-449q0 -60 22 -90
q24 -33 81 -41q15 -2 28 -2q126 0 126 146v436q0 90 -58 98q-4 1 -12 1v10l129 -20zM218 768q7 32 23 57q22 33 49 33q16 0 30 -12l33 -28l9 -5q11 -6 21.5 1t13.5 19q1 2 2 5l32 3q-19 -89 -72 -89q-16 0 -30 12l-33 28l-9 5q-11 6 -21.5 -1t-13.5 -19q0 -2 -1 -5z" />
    <glyph glyph-name="glyph360" unicode="&#x1eef;" horiz-adv-x="546" 
d="M496 595q21 -6 55 -24q18 -17 18 -42q0 -36 -32 -55q-27 -16 -64 -15v-370q0 -77 51 -79v-10h-156v71l-16 -16q-69 -66 -158 -66q-61 0 -92.5 36t-31.5 98v291q0 73 -48 78v12h154v-379q0 -94 81 -94q78 0 103 57q8 18 8 53v273q0 73 -48 78l1 12h102l50 -29q37 14 37 46
q0 23 -21 34q-10 4 -18 6q-2 0 -2 1q0 6 27 33zM166 558q7 32 23 57q22 33 49 33q16 0 30 -12l33 -28l9 -5q11 -6 21.5 1t13.5 19q1 2 2 5l32 3q-19 -89 -72 -89q-16 0 -30 12l-33 28l-9 5q-11 6 -21.5 -1t-13.5 -19q0 -2 -1 -5z" />
    <glyph glyph-name="glyph361" unicode="&#x1ef0;" horiz-adv-x="559" 
d="M518 720q2 28 -28 36l-20 4q0 7 20 37q21 -2 58 -14q26 -17 26 -50q0 -31 -25 -50q-10 -8 -62 -25q-5 -20 -5 -47v-439q0 -161 -158 -184q-37 -5 -74 -1q-92 11 -131 54.5t-39 135.5v434q0 90 -57 98q-4 1 -12 1v10h252v-10q-66 0 -66 -99v-449q0 -60 22 -90
q24 -33 81 -41q15 -2 28 -2q126 0 126 146v436q0 90 -58 98q-4 1 -12 1v10l129 -20zM232 -113q0 24 18.5 40t42.5 16q25 0 43.5 -16t18.5 -40q0 -23 -18.5 -39t-42.5 -16t-43 15.5t-19 39.5z" />
    <glyph glyph-name="glyph362" unicode="&#x1ef1;" horiz-adv-x="546" 
d="M496 595q21 -6 55 -24q18 -17 18 -42q0 -36 -32 -55q-27 -16 -64 -15v-370q0 -77 51 -79v-10h-156v71l-16 -16q-69 -66 -158 -66q-61 0 -92.5 36t-31.5 98v291q0 73 -48 78v12h154v-379q0 -94 81 -94q78 0 103 57q8 18 8 53v273q0 73 -48 78l1 12h102l50 -29q37 14 37 46
q0 23 -21 34q-10 4 -18 6q-2 0 -2 1q0 6 27 33zM216 -97q0 24 18 40t43 16t43.5 -16t18.5 -40q0 -23 -18.5 -39t-42.5 -16q-25 0 -43.5 15.5t-18.5 39.5z" />
    <glyph glyph-name="glyph363" unicode="&#x1ef2;" horiz-adv-x="525" 
d="M-38 710v10h266v-10h-13q-44 -6 -44 -44q0 -21 14 -55l118 -288l120 288q13 31 13 51q0 42 -56 48h-14v10h200v-10q-63 0 -106 -99l-142 -326v-176q0 -99 67 -99v-10h-251v10q68 0 68 99v174l-145 328q-43 97 -95 99zM308 741l-59 121h-106l147 -121h18z" />
    <glyph glyph-name="glyph364" unicode="&#x1ef3;" horiz-adv-x="534" 
d="M20 492v12h155v-365q0 -108 79 -108q52 0 82 29t30 80v274q0 73 -48 78v12h154v-474q0 -236 -191 -236q-66 0 -110 26q-79 46 -89 127h10q10 -47 57 -71q40 -20 92 -18q126 5 126 156v60q-31 -38 -77 -62.5t-93 -24.5q-51 0 -88 31.5t-39 81.5q-1 23 -1 44v270
q0 73 -49 78zM255 533l-59 121h-106l147 -121h18z" />
    <glyph glyph-name="glyph365" unicode="&#x1ef4;" horiz-adv-x="525" 
d="M-38 710v10h266v-10h-13q-44 -6 -44 -44q0 -21 14 -55l118 -288l120 288q13 31 13 51q0 42 -56 48h-14v10h200v-10q-63 0 -106 -99l-142 -326v-176q0 -99 67 -99v-10h-251v10q68 0 68 99v174l-145 328q-43 97 -95 99zM202 -93q0 24 18.5 40t42.5 16q25 0 43.5 -16
t18.5 -40q0 -23 -18.5 -39t-42.5 -16t-43 15.5t-19 39.5z" />
    <glyph glyph-name="glyph366" unicode="&#x1ef5;" horiz-adv-x="534" 
d="M20 492v12h155v-365q0 -108 79 -108q52 0 82 29t30 80v274q0 73 -48 78v12h154v-474q0 -236 -191 -236q-66 0 -110 26q-79 46 -89 127h10q10 -47 57 -71q40 -20 92 -18q126 5 126 156v60q-31 -38 -77 -62.5t-93 -24.5q-51 0 -88 31.5t-39 81.5q-1 23 -1 44v270
q0 73 -49 78zM496 -107q0 24 18 40t43 16t43.5 -16t18.5 -40q0 -23 -18.5 -39t-42.5 -16q-25 0 -43.5 15.5t-18.5 39.5z" />
    <glyph glyph-name="glyph367" unicode="&#x1ef6;" horiz-adv-x="525" 
d="M-38 710v10h266v-10h-13q-44 -6 -44 -44q0 -21 14 -55l118 -288l120 288q13 31 13 51q0 42 -56 48h-14v10h200v-10q-63 0 -106 -99l-142 -326v-176q0 -99 67 -99v-10h-251v10q68 0 68 99v174l-145 328q-43 97 -95 99zM245 848q2 26 26 42q21 15 49 15q29 1 50 -14.5
t21 -44.5q0 -38 -40 -62l-5 -3l-15 -10q-25 -17 -27 -43v-4h-5v5l2 21q1 12 8 28l1 1l11 24q5 10 5 19q1 24 -11 37t-36 9q-17 -3 -26 -15q0 -2 -3 -5h-5z" />
    <glyph glyph-name="glyph368" unicode="&#x1ef7;" horiz-adv-x="534" 
d="M20 492v12h155v-365q0 -108 79 -108q52 0 82 29t30 80v274q0 73 -48 78v12h154v-474q0 -236 -191 -236q-66 0 -110 26q-79 46 -89 127h10q10 -47 57 -71q40 -20 92 -18q126 5 126 156v60q-31 -38 -77 -62.5t-93 -24.5q-51 0 -88 31.5t-39 81.5q-1 23 -1 44v270
q0 73 -49 78zM193 638q2 26 26 42q21 15 49 15q29 1 50 -14.5t21 -44.5q0 -38 -40 -62l-5 -3l-15 -10q-25 -17 -27 -43v-4h-5v5l2 21q1 12 8 28l1 1l11 24q5 10 5 19q1 24 -11 37t-36 9q-17 -3 -26 -15q0 -2 -3 -5h-5z" />
    <glyph glyph-name="glyph369" unicode="&#x1ef8;" horiz-adv-x="525" 
d="M-38 710v10h266v-10h-13q-44 -6 -44 -44q0 -21 14 -55l118 -288l120 288q13 31 13 51q0 42 -56 48h-14v10h200v-10q-63 0 -106 -99l-142 -326v-176q0 -99 67 -99v-10h-251v10q68 0 68 99v174l-145 328q-43 97 -95 99zM208 768q7 32 23 57q22 33 49 33q16 0 30 -12l33 -28
l9 -5q11 -6 21.5 1t13.5 19q1 2 2 5l32 3q-19 -89 -72 -89q-16 0 -30 12l-33 28l-9 5q-11 6 -21.5 -1t-13.5 -19q0 -2 -1 -5z" />
    <glyph glyph-name="glyph370" unicode="&#x1ef9;" horiz-adv-x="534" 
d="M20 492v12h155v-365q0 -108 79 -108q52 0 82 29t30 80v274q0 73 -48 78v12h154v-474q0 -236 -191 -236q-66 0 -110 26q-79 46 -89 127h10q10 -47 57 -71q40 -20 92 -18q126 5 126 156v60q-31 -38 -77 -62.5t-93 -24.5q-51 0 -88 31.5t-39 81.5q-1 23 -1 44v270
q0 73 -49 78zM156 558q7 32 23 57q22 33 49 33q16 0 30 -12l33 -28l9 -5q11 -6 21.5 1t13.5 19q1 2 2 5l32 3q-19 -89 -72 -89q-16 0 -30 12l-33 28l-9 5q-11 6 -21.5 -1t-13.5 -19q0 -2 -1 -5z" />
  </font>
</defs>
</svg>
